<?xml version="1.0" encoding="utf-8"?>
<!-- Generator: Adobe Illustrator 23.0.6, SVG Export Plug-In . SVG Version: 6.00 Build 0)  -->
<svg version="1.1" id="Layer_1" xmlns="http://www.w3.org/2000/svg" xmlns:xlink="http://www.w3.org/1999/xlink" x="0px" y="0px"
	 viewBox="0 0 840.3 847.9" style="enable-background:new 0 0 840.3 847.9;" xml:space="preserve">
<style type="text/css">
	.st0{fill:#333335;}
	.st1{fill:#19191B;}
	.st2{fill:#1F55FF;}
	.st3{opacity:0.15;fill:#FFFFFF;}
</style>
<path class="st0" d="M770.6,195.4c-13.9-23.4-40.6-38.8-78.3-45.5v25.2c11.3,4.4,21.2,9.9,29.3,16.6c7.3,6,13.4,13,18,20.8
	c12.1,20.3,14.3,45.2,6.6,73.9c-22.6,84.6-128,190.3-268.5,269.3c-110,61.9-227.7,98.8-314.9,98.8c-60.1,0-102-17-121.1-49.2
	c-0.6-1-1.2-2.1-1.9-3.4c-21.3-40.4-5.2-98.1,45.3-162.4c12.7-16.1,27.1-32.2,43.2-48.1v-15.1c-9.6,8.7-18.8,17.5-27.5,26.3
	C49.6,454.4,16.3,505,4.6,548.8c-7.7,29-5.7,53.7,6.1,73.6c19.1,32.2,62.5,49.3,125.2,49.3c0,0,0,0,0,0c46.2,0,101.5-9.6,160.1-27.7
	c60.7-18.8,125.1-46.9,186.2-81.2c76.9-43.3,145.5-94.3,198.3-147.7c51.2-51.7,84.5-102.3,96.2-146.1
	C784.5,240,782.4,215.2,770.6,195.4z M303.6,262.1c4.1-2.3,8.1-4.5,12.2-6.7v-9.5c-5.6,3-11.2,6.1-16.7,9.2
	c-29.8,16.8-58.4,34.7-85.3,53.5l-1.4,2.3H226C250.4,293.7,276.4,277.4,303.6,262.1z"/>
<path class="st1" d="M128.3,407.4v154.9c-16.8,24.9-28,48.8-33.1,70.9c-20.3-7.4-35.1-18.7-43.9-33.6c-0.5-0.9-1.1-1.8-1.6-2.9
	C25.4,550.7,58.2,479.4,128.3,407.4z"/>
<path class="st0" d="M309.1,271.8c2.3-1.3,4.5-2.5,6.8-3.8v42.8h-70.2C265.7,297.3,286.9,284.2,309.1,271.8z"/>
<path class="st1" d="M737.5,274.9c-13.4-4-28.6-6.5-45.2-7.5V187c8.5,3.6,15.9,8.1,22.2,13.3c6.3,5.2,11.5,11.2,15.5,17.9
	C739.3,233.8,741.8,252.9,737.5,274.9z"/>
<path class="st2" d="M675.3,0v381.9c-8.8,10.4-18.5,20.9-29,31.5c-35.2,35.3-78.1,69.5-126,100.4V0H675.3z"/>
<path class="st2" d="M487.8,177.9v355.9c-5.6,3.3-11.2,6.6-16.9,9.8c-45.7,25.7-92.7,47-138.1,63.1V177.9H487.8z"/>
<path class="st2" d="M300.4,327.8v289.5c-50,15.1-97.2,23.3-137.5,23.3c-6,0-11.9-0.2-17.5-0.5V327.8H300.4z"/>
<path class="st1" d="M647.3,593.8l-30.5-27.7l0,0c-0.2-0.2-0.3-0.3-0.5-0.5c-8.8-8.2-20.8-12.8-33.8-13
	c-30.8-0.4-60.2,24.2-65.3,54.7c-2.1,12.3,0,24.5,5.9,34.4c1.1,1.9,2.3,3.6,3.7,5.3l15.3,14.9c-0.2,0.1-0.5,0.3-0.7,0.4
	c-79.5,44.7-161.3,77.4-236,94.8c-20.5,4.8-40.4,8.4-59.6,10.8c-43.1,5.4-80.2,4.3-110.3-3.2c-30.3-7.5-52-21.3-64.5-40.8
	l-38.3-64.4c34.1,21.1,86.7,28.2,153.3,20.2c91.2-11,198.3-49,301.7-107.2c102.4-57.6,189.2-128.2,244.6-199
	c35.8-45.8,55.9-88.4,59.6-124.9c0.4-4.3,0.6-8.5,0.6-12.6c0-1.2,0.1-2.5,0.1-3.7l37.1,62.6C869.7,362.1,794.7,484.7,647.3,593.8z"
	/>
<path class="st1" d="M635.7,598.3c-14.8,4.8-28.6,13.1-40.2,24c-5.5,5.2-10.5,10.9-14.8,17.2c-6.5,9.3-11.4,19.6-14.3,30.2
	l-24.9-23.5l-0.4-0.3c-1.7-1.3-3.2-2.8-4.6-4.3l-0.2-0.3c-7.4-8.5-10.4-19.9-8.3-32.2c0.8-4.8,2.3-9.4,4.4-13.7
	c3.3-6.8,8.1-13,13.9-18v0c9.8-8.5,22.4-13.8,35.4-13.8c0.2,0,0.4,0,0.6,0c10.5,0.1,20,3.9,26.9,10.5L635.7,598.3z"/>
<path class="st0" d="M778.9,683.8c-5.3-1.1-10.9-1.8-16.6-1.9c-9.6-0.2-19.2,1.1-28.7,3.9c-15.8,4.6-30.2,12.9-42.2,23.9
	c-14.6,13.4-25.4,30.6-30.4,49.6c-0.8,2.9-1.4,5.8-1.8,8.6c-2,12.3-1.4,24.4,1.7,35.5l-62-57.9l-9.3-8.7
	c-12.8-14.7-18-34.4-14.5-55.4l0.1-0.4v-0.1c2.1-12.2,7.1-24.3,14.6-35c4.1-5.9,8.8-11.2,13.9-16c12.4-11.5,27.6-19.6,43.7-23.2
	l0.6-0.1c6.3-1.4,12.6-2,18.9-1.9c17.8,0.3,34.1,6.6,46,17.9L778.9,683.8z"/>
<path class="st0" d="M691.2,831.6c11.9,10.3,27.2,16,44.3,16.3c0.5,0,1.1,0,1.6,0c43.1,0,83.3-34,90.2-76.6v0
	c3.6-22.3-2.7-43.5-17.2-58.4l-4.4-4.1c-11.8-10-26.9-15.4-43.6-15.7c-8.5-0.2-17,1-25.4,3.4c-31.4,9.1-56.9,34.9-64.9,65.6
	c-0.7,2.5-1.2,5-1.6,7.6c-3.6,22.5,2.8,44,17.7,58.9L691.2,831.6z"/>
<path class="st1" d="M705.3,831.5c10.3,9.1,23.5,14.1,38.2,14.4c0.5,0,0.9,0,1.4,0c37.2,0,71.9-29.9,77.9-67.4v0
	c3.1-19.6-2.3-38.3-14.9-51.4l-3.8-3.6c-10.2-8.8-23.2-13.5-37.6-13.8c-7.3-0.1-14.7,0.9-21.9,3c-27.1,8-49.1,30.7-56,57.7
	c-0.6,2.2-1,4.4-1.4,6.7c-3.1,19.8,2.4,38.7,15.3,51.8L705.3,831.5z"/>
<path class="st1" d="M778.9,683.8c-5.3-1.1-10.9-1.8-16.6-1.9c-9.6-0.2-19.2,1.1-28.7,3.9c-15.8,4.6-30.2,12.9-42.2,23.9l-87.7-79.9
	c12.4-11.5,27.6-19.6,43.7-23.2l0.6-0.1c6.3-1.4,12.6-2,18.9-1.9c17.8,0.3,34.1,6.6,46,17.9L778.9,683.8z"/>
<path class="st0" d="M791.9,248.5c-3,42.8-15.5,88.7-38.7,136.4c-31.3,64.6-78.7,125.8-137,180.7c-8.8-8.2-20.8-12.8-33.8-13
	c-30.8-0.4-60.2,24.2-65.3,54.7c-2.1,12.3,0,24.5,5.9,34.4c-66.1,46.8-140.3,86.2-217.7,115.4c-20.5,4.8-40.4,8.4-59.6,10.8
	c-43.1,5.4-80.2,4.3-110.3-3.2c-30.3-7.5-52-21.3-64.5-40.8l-38.3-64.4c34.1,21.1,86.7,28.2,153.3,20.2
	c91.2-11,198.3-49,301.7-107.2c102.4-57.6,189.2-128.2,244.6-199C768.1,327.7,788.2,285.1,791.9,248.5z"/>
<path class="st0" d="M595.6,622.3c-5.5,5.2-10.5,10.9-14.8,17.2c-6.5,9.3-11.4,19.6-14.3,30.2l-24.9-23.5l-0.4-0.3
	c-1.7-1.3-3.2-2.8-4.6-4.3l-0.2-0.3c-7.4-8.5-10.4-19.9-8.3-32.2c0.8-4.8,2.3-9.4,4.4-13.7c11.8-7,27.2-5.8,37.9,3.9L595.6,622.3z"
	/>
<path class="st3" d="M734.3,281.8c-9.8,37.2-39.8,82.5-84.4,127.7c-47.1,47.7-108.1,93.4-176.4,132.2
	c-53.5,30.4-110.4,55.5-164.4,72.7C255.9,631.1,206.3,640,165.5,640c-49.4,0-84.1-12.7-97.7-35.7c-0.4-0.6-0.8-1.3-1.2-2.2
	c-15.5-29.9,0.3-78.8,43.5-134.3c6.3-8.2,13.2-16.3,20.5-24.5c12.3,2.1,26.2,3.2,41.3,3.2c42.6,0,94.5-8.9,149.9-25.7
	c56.5-17.1,115.9-42.2,171.8-72.7c71.3-38.8,135-84.5,184.2-132.2c4.9-4.8,9.7-9.6,14.3-14.4c10.9,3.6,20.1,8.4,27.1,14.2
	c4.7,3.9,8.6,8.4,11.5,13.4C738.8,242.7,739.9,260.4,734.3,281.8z"/>
</svg>
