<?xml version="1.0" encoding="utf-8"?>
<!-- Generator: Adobe Illustrator 23.0.6, SVG Export Plug-In . SVG Version: 6.00 Build 0)  -->
<svg version="1.1" id="Layer_1" xmlns="http://www.w3.org/2000/svg" xmlns:xlink="http://www.w3.org/1999/xlink" x="0px" y="0px"
	 viewBox="0 0 600.7 180.5" style="enable-background:new 0 0 600.7 180.5;" xml:space="preserve">
<style type="text/css">
	.st0{fill:#FF00FF;}
	.st1{fill:#FFFFFF;}
</style>
<g>
	<path class="st0" d="M38.7,81.6L2.2,14.8C-2.8,6.3,1,0,10.7,0h18.6c7,0,11.4,2.9,14.5,9.3l7.4,18.1c4.2,10.3,7.4,22.4,7.4,22.4H59
		c0,0,3.2-12.2,7.4-22.4l7.4-18.1C76.7,2.9,81.1,0,88.1,0h18.6c9.7,0,13.5,6.3,8.6,14.8L78.8,81.6v42.8c0,8-4.4,12.4-12.4,12.4H51
		c-8.2,0-12.4-4.4-12.4-12.4V81.6z"/>
	<path class="st1" d="M190.8,148.2l-12.9-16.5c-5.7,3.2-12.4,5.1-19.4,5.1h-5.7c-22.1,0-39.9-17.9-39.9-39.9v-59
		c0-18.8,15.4-34.2,34.2-34.2h17.1c18.8,0,34.2,15.4,34.2,34.2v59c0,11.6-4.9,22.1-12.9,29.3l12.9,16.4L190.8,148.2z M158.5,127.2
		c4.8,0,9.3-1.1,13.3-3.2l-15.2-19.6l7.6-5.7l15.2,19.4c4.8-4.9,7.6-11.8,7.6-19.4V35.9c0-12.6-10.3-22.8-22.8-22.8h-17.1
		c-12.6,0-22.8,10.3-22.8,22.8v62.8c0,15.8,12.7,28.5,28.5,28.5H158.5z"/>
	<path class="st1" d="M262.1,41.7h11.4v95.1h-5.7l-5.7-11.4c-5.7,7.6-15,11.4-24.7,11.4h-7.6c-13.7,0-24.7-11-24.7-24.7V41.7h11.4
		v72.3c0,7.4,5.9,13.3,13.3,13.3h7.6c13.7,0,24.7-11,24.7-24.7V41.7z"/>
	<path class="st1" d="M285.9,51.2v-9.5h36.1c13.7,0,24.7,11,24.7,24.7v70.4H303c-14.3,0-24.7-11-24.7-24.7c0-11,8.9-21.5,20-24.2
		l37.1-9.1V64.5c0-7.4-5.9-13.3-13.3-13.3H285.9z M303,127.2h32.3V88.6l-34.6,8.6c-6.3,1.5-11,7.4-11,14.8
		C289.7,120.4,295.2,127.2,303,127.2z"/>
	<path class="st1" d="M366.7,136.7h-11.4V41.7h5.7l5.7,11.4c5.7-7.6,15-11.4,24.7-11.4h7.6c13.7,0,24.7,11,24.7,24.7v70.4h-11.4
		V64.5c0-7.4-5.9-13.3-13.3-13.3h-7.6c-13.7,0-24.7,11-24.7,24.7V136.7z"/>
	<path class="st1" d="M468.5,127.2v9.5H458c-14.3,0-25.7-11-25.7-24.7V3.6h11.4v38h24.7v9.5h-24.7V112c0,8.4,6.5,15.2,14.3,15.2
		H468.5z"/>
	<path class="st1" d="M471.3,3.6h11.4v19h-11.4V3.6z M471.3,41.7h11.4v95.1h-11.4V41.7z"/>
	<path class="st1" d="M502.7,28.3v13.3h26.6v9.5h-26.6v85.6h-11.4V28.3c0-13.7,11.4-24.7,25.7-24.7h12.4v9.5H517
		C509.2,13.1,502.7,20,502.7,28.3z"/>
	<path class="st1" d="M589.3,125.3c-5.7,7.6-15,11.4-24.7,11.4h-7.6c-13.7,0-24.7-11-24.7-24.7V41.7h11.4v72.3
		c0,7.4,5.9,13.3,13.3,13.3h7.6c13.7,0,24.7-11,24.7-24.7V41.7h11.4v102.7c0,20-16.2,36.1-36.1,36.1h-20.9V171h20.9
		c13.7,0,24.7-11,24.7-24.7V125.3z"/>
</g>
</svg>
