<?xml version="1.0" encoding="utf-8"?>
<!-- Generator: Adobe Illustrator 23.0.6, SVG Export Plug-In . SVG Version: 6.00 Build 0)  -->
<svg version="1.1" id="Layer_1" xmlns="http://www.w3.org/2000/svg" xmlns:xlink="http://www.w3.org/1999/xlink" x="0px" y="0px"
	 viewBox="0 0 1037.8 1179.2" style="enable-background:new 0 0 1037.8 1179.2;" xml:space="preserve">
<style type="text/css">
	.st0{fill:#333335;}
	.st1{fill:#19191B;}
	.st2{fill:#1F55FF;}
	.st3{opacity:0.15;fill:#FFFFFF;}
</style>
<path class="st0" d="M869.4,195.4c-13.9-23.4-40.6-38.8-78.3-45.5v25.2c11.3,4.4,21.2,9.9,29.3,16.6c7.3,6,13.4,13,18,20.8
	c12.1,20.3,14.3,45.2,6.6,73.9C822.4,371,717,476.7,576.5,555.7c-110,61.9-227.7,98.8-314.9,98.8c-60.1,0-102-17-121.1-49.2
	c-0.6-1-1.2-2.1-1.9-3.4c-21.3-40.4-5.2-98.1,45.3-162.4c12.7-16.1,27.1-32.2,43.2-48.1v-15.1c-9.6,8.7-18.8,17.5-27.5,26.3
	c-51.2,51.7-84.5,102.3-96.2,146.1c-7.7,29-5.7,53.7,6.1,73.6c19.1,32.2,62.5,49.3,125.2,49.3c0,0,0,0,0,0
	c46.2,0,101.5-9.6,160.1-27.7c60.7-18.8,125.1-46.9,186.2-81.2c76.9-43.3,145.5-94.3,198.3-147.7c51.2-51.7,84.5-102.3,96.2-146.1
	C883.2,240,881.2,215.2,869.4,195.4z M402.4,262.1c4.1-2.3,8.1-4.5,12.2-6.7v-9.5c-5.6,3-11.2,6.1-16.7,9.2
	c-29.8,16.8-58.4,34.7-85.3,53.5l-1.4,2.3h13.5C349.1,293.7,375.1,277.4,402.4,262.1z"/>
<path class="st1" d="M227.1,407.4v154.9c-16.8,24.9-28,48.8-33.1,70.9c-20.3-7.4-35.1-18.7-43.9-33.6c-0.5-0.9-1.1-1.8-1.6-2.9
	C124.2,550.7,157,479.4,227.1,407.4z"/>
<path class="st0" d="M407.8,271.8c2.3-1.3,4.5-2.5,6.8-3.8v42.8h-70.2C364.5,297.3,385.6,284.2,407.8,271.8z"/>
<path class="st1" d="M836.2,274.9c-13.4-4-28.6-6.5-45.2-7.5V187c8.5,3.6,15.9,8.1,22.2,13.3c6.3,5.2,11.5,11.2,15.5,17.9
	C838.1,233.8,840.6,252.9,836.2,274.9z"/>
<path class="st2" d="M774.1,0v381.9c-8.8,10.4-18.5,20.9-29,31.5c-35.2,35.3-78.1,69.5-126,100.4V0H774.1z"/>
<path class="st2" d="M586.6,177.9v355.9c-5.6,3.3-11.2,6.6-16.9,9.8c-45.7,25.7-92.7,47-138.1,63.1V177.9H586.6z"/>
<path class="st2" d="M399.1,327.8v289.5c-50,15.1-97.2,23.3-137.5,23.3c-6,0-11.9-0.2-17.5-0.5V327.8H399.1z"/>
<path class="st1" d="M746,593.8l-30.5-27.7l0,0c-0.2-0.2-0.3-0.3-0.5-0.5c-8.8-8.2-20.8-12.8-33.8-13c-30.8-0.4-60.2,24.2-65.3,54.7
	c-2.1,12.3,0,24.5,5.9,34.4c1.1,1.9,2.3,3.6,3.7,5.3l15.3,14.9c-0.2,0.1-0.5,0.3-0.7,0.4c-79.5,44.7-161.3,77.4-236,94.8
	c-20.5,4.8-40.4,8.4-59.6,10.8c-43.1,5.4-80.2,4.3-110.3-3.2c-30.3-7.5-52-21.3-64.5-40.8l-38.3-64.4
	c34.1,21.1,86.7,28.2,153.3,20.2c91.2-11,198.3-49,301.7-107.2c102.4-57.6,189.2-128.2,244.6-199c35.8-45.8,55.9-88.4,59.6-124.9
	c0.4-4.3,0.6-8.5,0.6-12.6c0-1.2,0.1-2.5,0.1-3.7l37.1,62.6C968.4,362.1,893.4,484.7,746,593.8z"/>
<path class="st1" d="M734.4,598.3c-14.8,4.8-28.6,13.1-40.2,24c-5.5,5.2-10.5,10.9-14.8,17.2c-6.5,9.3-11.4,19.6-14.3,30.2
	l-24.9-23.5l-0.4-0.3c-1.7-1.3-3.2-2.8-4.6-4.3l-0.2-0.3c-7.4-8.5-10.4-19.9-8.3-32.2c0.8-4.8,2.3-9.4,4.4-13.7
	c3.3-6.8,8.1-13,13.9-18v0c9.8-8.5,22.4-13.8,35.4-13.8c0.2,0,0.4,0,0.6,0c10.5,0.1,20,3.9,26.9,10.5L734.4,598.3z"/>
<path class="st0" d="M877.6,683.8c-5.3-1.1-10.9-1.8-16.6-1.9c-9.6-0.2-19.2,1.1-28.7,3.9c-15.8,4.6-30.2,12.9-42.2,23.9
	c-14.6,13.4-25.4,30.6-30.4,49.6c-0.8,2.9-1.4,5.8-1.8,8.6c-2,12.3-1.4,24.4,1.7,35.5l-62-57.9l-9.3-8.7
	c-12.8-14.7-18-34.4-14.5-55.4l0.1-0.4v-0.1c2.1-12.2,7.1-24.3,14.6-35c4.1-5.9,8.8-11.2,13.9-16c12.4-11.5,27.6-19.6,43.7-23.2
	l0.6-0.1c6.3-1.4,12.6-2,18.9-1.9c17.8,0.3,34.1,6.6,46,17.9L877.6,683.8z"/>
<path class="st0" d="M789.9,831.6c11.9,10.3,27.2,16,44.3,16.3c0.5,0,1.1,0,1.6,0c43.1,0,83.3-34,90.2-76.6v0
	c3.6-22.3-2.7-43.5-17.2-58.4l-4.4-4.1c-11.8-10-26.9-15.4-43.6-15.7c-8.5-0.2-17,1-25.4,3.4c-31.4,9.1-56.9,34.9-64.9,65.6
	c-0.7,2.5-1.2,5-1.6,7.6c-3.6,22.5,2.8,44,17.7,58.9L789.9,831.6z"/>
<path class="st1" d="M804,831.5c10.3,9.1,23.5,14.1,38.2,14.4c0.5,0,0.9,0,1.4,0c37.2,0,71.9-29.9,77.9-67.4v0
	c3.1-19.6-2.3-38.3-14.9-51.4l-3.8-3.6c-10.2-8.8-23.2-13.5-37.6-13.8c-7.3-0.1-14.7,0.9-21.9,3c-27.1,8-49.1,30.7-56,57.7
	c-0.6,2.2-1,4.4-1.4,6.7c-3.1,19.8,2.4,38.7,15.3,51.8L804,831.5z"/>
<path class="st1" d="M877.6,683.8c-5.3-1.1-10.9-1.8-16.6-1.9c-9.6-0.2-19.2,1.1-28.7,3.9c-15.8,4.6-30.2,12.9-42.2,23.9l-87.7-79.9
	c12.4-11.5,27.6-19.6,43.7-23.2l0.6-0.1c6.3-1.4,12.6-2,18.9-1.9c17.8,0.3,34.1,6.6,46,17.9L877.6,683.8z"/>
<path class="st0" d="M890.6,248.5c-3,42.8-15.5,88.7-38.7,136.4c-31.3,64.6-78.7,125.8-137,180.7c-8.8-8.2-20.8-12.8-33.8-13
	c-30.8-0.4-60.2,24.2-65.3,54.7c-2.1,12.3,0,24.5,5.9,34.4c-66.1,46.8-140.3,86.2-217.7,115.4c-20.5,4.8-40.4,8.4-59.6,10.8
	c-43.1,5.4-80.2,4.3-110.3-3.2c-30.3-7.5-52-21.3-64.5-40.8l-38.3-64.4c34.1,21.1,86.7,28.2,153.3,20.2
	c91.2-11,198.3-49,301.7-107.2c102.4-57.6,189.2-128.2,244.6-199C866.8,327.7,887,285.1,890.6,248.5z"/>
<path class="st0" d="M694.3,622.3c-5.5,5.2-10.5,10.9-14.8,17.2c-6.5,9.3-11.4,19.6-14.3,30.2l-24.9-23.5l-0.4-0.3
	c-1.7-1.3-3.2-2.8-4.6-4.3l-0.2-0.3c-7.4-8.5-10.4-19.9-8.3-32.2c0.8-4.8,2.3-9.4,4.4-13.7c11.8-7,27.2-5.8,37.9,3.9L694.3,622.3z"
	/>
<path class="st3" d="M833,281.8c-9.8,37.2-39.8,82.5-84.4,127.7c-47.1,47.7-108.1,93.4-176.4,132.2
	c-53.5,30.4-110.4,55.5-164.4,72.7C354.7,631.1,305,640,264.2,640c-49.4,0-84.1-12.7-97.7-35.7c-0.4-0.6-0.8-1.3-1.2-2.2
	c-15.5-29.9,0.3-78.8,43.5-134.3c6.3-8.2,13.2-16.3,20.5-24.5c12.3,2.1,26.2,3.2,41.3,3.2c42.6,0,94.5-8.9,149.9-25.7
	c56.5-17.1,115.9-42.2,171.8-72.7c71.3-38.8,135-84.5,184.2-132.2c4.9-4.8,9.7-9.6,14.3-14.4c10.9,3.6,20.1,8.4,27.1,14.2
	c4.7,3.9,8.6,8.4,11.5,13.4C837.5,242.7,838.7,260.4,833,281.8z"/>
<g>
	<path d="M66.8,1008.3L3.7,893c-8.5-14.8-2-25.6,14.8-25.6h32.2c12.2,0,19.7,4.9,25,16.1l12.8,31.2c7.2,17.7,12.8,38.8,12.8,38.8
		h0.7c0,0,5.6-21,12.8-38.8l12.8-31.2c4.9-11.2,12.5-16.1,24.6-16.1h32.2c16.8,0,23.3,10.8,14.8,25.6l-63.1,115.3v73.9
		c0,13.8-7.6,21.4-21.4,21.4H88.2c-14.1,0-21.4-7.6-21.4-21.4V1008.3z"/>
	<path d="M329.7,1123.3l-22.3-28.6c-9.9,5.6-21.4,8.9-33.5,8.9H264c-38.1,0-69-30.9-69-69V932.8c0-32.5,26.6-59.1,59.2-59.1h29.6
		c32.5,0,59.2,26.6,59.2,59.1v101.9c0,20-8.5,38.1-22.3,50.6l22.3,28.3L329.7,1123.3z M273.8,1087.2c8.2,0,16.1-2,23-5.6l-26.3-33.8
		l13.1-9.9l26.3,33.5c8.2-8.5,13.1-20.4,13.1-33.5V929.5c0-21.7-17.7-39.4-39.4-39.4h-29.6c-21.7,0-39.4,17.7-39.4,39.4v108.4
		c0,27.3,22,49.3,49.3,49.3H273.8z"/>
	<path d="M452.9,939.3h19.7v164.3h-9.9l-9.9-19.7c-9.9,13.1-26,19.7-42.7,19.7h-13.1c-23.7,0-42.7-19.1-42.7-42.7V939.3h19.7v124.9
		c0,12.8,10.2,23,23,23h13.1c23.7,0,42.7-19.1,42.7-42.7V939.3z"/>
	<path d="M494,955.8v-16.4h62.4c23.7,0,42.7,19.1,42.7,42.7v121.6h-75.6c-24.6,0-42.7-19.1-42.7-42.7c0-19.1,15.4-37.1,34.5-41.7
		l64.1-15.8v-24.6c0-12.8-10.2-23-23-23H494z M523.6,1087.2h55.9v-66.7l-59.8,14.8c-10.8,2.6-19.1,12.8-19.1,25.6
		C500.6,1075.4,510.1,1087.2,523.6,1087.2z"/>
	<path d="M633.6,1103.6h-19.7V939.3h9.9l9.9,19.7c9.9-13.1,26-19.7,42.7-19.7h13.1c23.7,0,42.7,19.1,42.7,42.7v121.6h-19.7V978.8
		c0-12.8-10.2-23-23-23h-13.1c-23.7,0-42.7,19.1-42.7,42.7V1103.6z"/>
	<path d="M809.5,1087.2v16.4h-18.1c-24.6,0-44.4-19.1-44.4-42.7V873.6h19.7v65.7h42.7v16.4h-42.7v105.2c0,14.5,11.2,26.3,24.6,26.3
		H809.5z"/>
	<path d="M814.4,873.6h19.7v32.9h-19.7V873.6z M814.4,939.3h19.7v164.3h-19.7V939.3z"/>
	<path d="M868.6,916.3v23h46v16.4h-46v147.9h-19.7V916.3c0-23.7,19.7-42.7,44.4-42.7h21.4V890h-21.4
		C879.8,890,868.6,901.9,868.6,916.3z"/>
	<path d="M1018.1,1083.9c-9.9,13.1-26,19.7-42.7,19.7h-13.1c-23.7,0-42.7-19.1-42.7-42.7V939.3h19.7v124.9c0,12.8,10.2,23,23,23
		h13.1c23.7,0,42.7-19.1,42.7-42.7V939.3h19.7v177.4c0,34.5-27.9,62.4-62.4,62.4h-36.1v-16.4h36.1c23.7,0,42.7-19.1,42.7-42.7
		V1083.9z"/>
</g>
</svg>
