<?xml version="1.0" encoding="utf-8"?>
<!-- Generator: Adobe Illustrator 23.0.6, SVG Export Plug-In . SVG Version: 6.00 Build 0)  -->
<svg version="1.1" id="Layer_1" xmlns="http://www.w3.org/2000/svg" xmlns:xlink="http://www.w3.org/1999/xlink" x="0px" y="0px"
	 viewBox="0 0 1037.8 311.9" style="enable-background:new 0 0 1037.8 311.9;" xml:space="preserve">
<style type="text/css">
	.st0{fill:#1F55FF;}
</style>
<path class="st0" d="M66.8,141L3.7,25.6C-4.8,10.8,1.8,0,18.5,0h32.2c12.2,0,19.7,4.9,25,16.1l12.8,31.2
	c7.2,17.7,12.8,38.8,12.8,38.8h0.7c0,0,5.6-21,12.8-38.8l12.8-31.2C132.6,4.9,140.1,0,152.3,0h32.2c16.8,0,23.3,10.8,14.8,25.6
	L136.2,141v73.9c0,13.8-7.6,21.4-21.4,21.4H88.2c-14.1,0-21.4-7.6-21.4-21.4V141z"/>
<path d="M329.7,256l-22.3-28.6c-9.9,5.6-21.4,8.9-33.5,8.9H264c-38.1,0-69-30.9-69-69V65.4c0-32.5,26.6-59.1,59.2-59.1h29.6
	c32.5,0,59.2,26.6,59.2,59.1v101.9c0,20-8.5,38.1-22.3,50.6l22.3,28.3L329.7,256z M273.8,219.8c8.2,0,16.1-2,23-5.6l-26.3-33.8
	l13.1-9.9l26.3,33.5c8.2-8.5,13.1-20.4,13.1-33.5V62.1c0-21.7-17.7-39.4-39.4-39.4h-29.6c-21.7,0-39.4,17.7-39.4,39.4v108.4
	c0,27.3,22,49.3,49.3,49.3H273.8z"/>
<path d="M452.9,72h19.7v164.3h-9.9l-9.9-19.7c-9.9,13.1-26,19.7-42.7,19.7h-13.1c-23.7,0-42.7-19.1-42.7-42.7V72h19.7v124.9
	c0,12.8,10.2,23,23,23h13.1c23.7,0,42.7-19.1,42.7-42.7V72z"/>
<path d="M494,88.4V72h62.4c23.7,0,42.7,19.1,42.7,42.7v121.6h-75.6c-24.6,0-42.7-19.1-42.7-42.7c0-19.1,15.4-37.1,34.5-41.7
	l64.1-15.8v-24.6c0-12.8-10.2-23-23-23H494z M523.6,219.8h55.9v-66.7l-59.8,14.8c-10.8,2.6-19.1,12.8-19.1,25.6
	C500.6,208,510.1,219.8,523.6,219.8z"/>
<path d="M633.6,236.3h-19.7V72h9.9l9.9,19.7c9.9-13.1,26-19.7,42.7-19.7h13.1c23.7,0,42.7,19.1,42.7,42.7v121.6h-19.7V111.4
	c0-12.8-10.2-23-23-23h-13.1c-23.7,0-42.7,19.1-42.7,42.7V236.3z"/>
<path d="M809.5,219.8v16.4h-18.1c-24.6,0-44.4-19.1-44.4-42.7V6.2h19.7V72h42.7v16.4h-42.7v105.2c0,14.5,11.2,26.3,24.6,26.3H809.5z
	"/>
<path d="M814.4,6.2h19.7v32.9h-19.7V6.2z M814.4,72h19.7v164.3h-19.7V72z"/>
<path d="M868.6,49v23h46v16.4h-46v147.9h-19.7V49c0-23.7,19.7-42.7,44.4-42.7h21.4v16.4h-21.4C879.8,22.7,868.6,34.5,868.6,49z"/>
<path d="M1018.1,216.6c-9.9,13.1-26,19.7-42.7,19.7h-13.1c-23.7,0-42.7-19.1-42.7-42.7V72h19.7v124.9c0,12.8,10.2,23,23,23h13.1
	c23.7,0,42.7-19.1,42.7-42.7V72h19.7v177.4c0,34.5-27.9,62.4-62.4,62.4h-36.1v-16.4h36.1c23.7,0,42.7-19.1,42.7-42.7V216.6z"/>
</svg>
