<?xml version="1.0" encoding="utf-8"?>
<!-- Generator: Adobe Illustrator 23.0.6, SVG Export Plug-In . SVG Version: 6.00 Build 0)  -->
<svg version="1.1" id="Layer_1" xmlns="http://www.w3.org/2000/svg" xmlns:xlink="http://www.w3.org/1999/xlink" x="0px" y="0px"
	 viewBox="0 0 171 159.9" style="enable-background:new 0 0 171 159.9;" xml:space="preserve">
<style type="text/css">
	.st0{fill:#28096D;}
	.st1{fill:#6029E5;}
	.st2{fill:#1F55FF;}
	.st3{fill:#1DE9B6;}
	.st4{fill:#43FFC9;}
	.st5{fill:#FFFFFF;}
</style>
<g>
	<path class="st0" d="M133,26.5c-1.9-3.2-5.5-5.3-10.6-6.2v3.4c1.5,0.6,2.9,1.3,4,2.3c1,0.8,1.8,1.8,2.4,2.8c1.6,2.8,1.9,6.1,0.9,10
		c-3.1,11.5-17.4,25.8-36.4,36.5c-14.9,8.4-30.9,13.4-42.7,13.4c-8.2,0-13.8-2.3-16.4-6.7c-0.1-0.1-0.2-0.3-0.3-0.5
		c-2.9-5.5-0.7-13.3,6.1-22c1.7-2.2,3.7-4.4,5.9-6.5v-2c-1.3,1.2-2.5,2.4-3.7,3.6c-6.9,7-11.5,13.9-13,19.8c-1,3.9-0.8,7.3,0.8,10
		c2.6,4.4,8.5,6.7,17,6.7l0,0c6.3,0,13.8-1.3,21.7-3.8c8.2-2.5,17-6.4,25.3-11c10.4-5.9,19.7-12.8,26.9-20c6.9-7,11.5-13.9,13-19.8
		C134.9,32.6,134.6,29.2,133,26.5z M69.7,35.6c0.6-0.3,1.1-0.6,1.7-0.9v-1.3c-0.8,0.4-1.5,0.8-2.3,1.2c-4,2.3-7.9,4.7-11.6,7.3
		l-0.2,0.3h1.8C62.5,39.8,66,37.6,69.7,35.6z"/>
	<path class="st1" d="M70.4,36.9c0.3-0.2,0.6-0.3,0.9-0.5v5.8h-9.5C64.5,40.3,67.4,38.5,70.4,36.9z"/>
	<path class="st0" d="M116.3,80.5l-4.1-3.8l0,0c0,0,0,0-0.1-0.1c-1.2-1.1-2.8-1.7-4.6-1.8c-4.2-0.1-8.2,3.3-8.9,7.4
		c-0.3,1.7,0,3.3,0.8,4.7c0.1,0.3,0.3,0.5,0.5,0.7l2.1,2c0,0-0.1,0-0.1,0.1c-10.8,6.1-21.9,10.5-32,12.9c-2.8,0.7-5.5,1.1-8.1,1.5
		c-5.8,0.7-10.9,0.6-15-0.4c-4.1-1-7.1-2.9-8.7-5.5l-5.2-8.7c4.6,2.9,11.8,3.8,20.8,2.7c12.4-1.5,26.9-6.6,40.9-14.5
		c13.9-7.8,25.7-17.4,33.2-27c4.9-6.2,7.6-12,8.1-16.9c0.1-0.6,0.1-1.2,0.1-1.7c0-0.2,0-0.3,0-0.5l5,8.5
		C146.5,49.1,136.3,65.7,116.3,80.5z"/>
	<path class="st0" d="M114.7,81.2c-2,0.7-3.9,1.8-5.5,3.3c-0.7,0.7-1.4,1.5-2,2.3c-0.9,1.3-1.5,2.7-1.9,4.1l-3.4-3.2l-0.1,0
		c-0.2-0.2-0.4-0.4-0.6-0.6l0,0c-1-1.2-1.4-2.7-1.1-4.4c0.1-0.7,0.3-1.3,0.6-1.9c0.4-0.9,1.1-1.8,1.9-2.4l0,0c1.3-1.2,3-1.9,4.8-1.9
		c0,0,0.1,0,0.1,0c1.4,0,2.7,0.5,3.6,1.4L114.7,81.2z"/>
	<path class="st1" d="M134.1,92.7c-0.7-0.1-1.5-0.2-2.3-0.3c-1.3,0-2.6,0.1-3.9,0.5c-2.1,0.6-4.1,1.7-5.7,3.2
		c-2,1.8-3.4,4.2-4.1,6.7c-0.1,0.4-0.2,0.8-0.2,1.2c-0.3,1.7-0.2,3.3,0.2,4.8l-8.4-7.9l-1.3-1.2c-1.7-2-2.4-4.7-2-7.5l0-0.1v0
		c0.3-1.7,1-3.3,2-4.7c0.6-0.8,1.2-1.5,1.9-2.2c1.7-1.6,3.7-2.7,5.9-3.1l0.1,0c0.9-0.2,1.7-0.3,2.6-0.3c2.4,0,4.6,0.9,6.2,2.4
		L134.1,92.7z"/>
	<path class="st0" d="M122.2,112.8c1.6,1.4,3.7,2.2,6,2.2c0.1,0,0.1,0,0.2,0c5.8,0,11.3-4.6,12.2-10.4l0,0c0.5-3-0.4-5.9-2.3-7.9
		l-0.6-0.6c-1.6-1.4-3.6-2.1-5.9-2.1c-1.2,0-2.3,0.1-3.4,0.5c-4.3,1.2-7.7,4.7-8.8,8.9c-0.1,0.3-0.2,0.7-0.2,1c-0.5,3.1,0.4,6,2.4,8
		L122.2,112.8z"/>
	<path class="st1" d="M124.2,112.8c1.4,1.2,3.2,1.9,5.2,2c0.1,0,0.1,0,0.2,0c5,0,9.8-4.1,10.6-9.1l0,0c0.4-2.7-0.3-5.2-2-7l-0.5-0.5
		c-1.4-1.2-3.1-1.8-5.1-1.9c-1,0-2,0.1-3,0.4c-3.7,1.1-6.7,4.2-7.6,7.8c-0.1,0.3-0.1,0.6-0.2,0.9c-0.4,2.7,0.3,5.2,2.1,7
		L124.2,112.8z"/>
	<path class="st0" d="M134.1,92.7c-0.7-0.1-1.5-0.2-2.3-0.3c-1.3,0-2.6,0.1-3.9,0.5c-2.1,0.6-4.1,1.7-5.7,3.2l-11.9-10.8
		c1.7-1.6,3.7-2.7,5.9-3.1l0.1,0c0.9-0.2,1.7-0.3,2.6-0.3c2.4,0,4.6,0.9,6.2,2.4L134.1,92.7z"/>
	<path class="st1" d="M135.9,33.7c-0.4,5.8-2.1,12-5.2,18.5c-4.2,8.8-10.7,17.1-18.6,24.5c-1.2-1.1-2.8-1.7-4.6-1.8
		c-4.2-0.1-8.2,3.3-8.9,7.4c-0.3,1.7,0,3.3,0.8,4.7c-9,6.3-19,11.7-29.5,15.7c-2.8,0.7-5.5,1.1-8.1,1.5c-5.8,0.7-10.9,0.6-15-0.4
		c-4.1-1-7.1-2.9-8.7-5.5l-5.2-8.7c4.6,2.9,11.8,3.8,20.8,2.7c12.4-1.5,26.9-6.6,40.9-14.5c13.9-7.8,25.7-17.4,33.2-27
		C132.7,44.4,135.4,38.7,135.9,33.7z"/>
	<path class="st1" d="M109.3,84.4c-0.7,0.7-1.4,1.5-2,2.3c-0.9,1.3-1.5,2.7-1.9,4.1l-3.4-3.2l-0.1,0c-0.2-0.2-0.4-0.4-0.6-0.6l0,0
		c-1-1.2-1.4-2.7-1.1-4.4c0.1-0.7,0.3-1.3,0.6-1.9c1.6-0.9,3.7-0.8,5.1,0.5L109.3,84.4z"/>
	<path class="st0" d="M37.7,82c-0.1-0.1-0.1-0.2-0.2-0.3c-2.1-4.1,0-10.7,5.9-18.2c0.8-1,1.6-2,2.5-3v-5.2
		c-9.5,9.8-14,19.4-10.7,25.7c0.1,0.1,0.1,0.3,0.2,0.4c1.2,2,3.2,3.6,6,4.6c0.1-0.2,0.1-0.5,0.2-0.7C39.8,84.4,38.5,83.3,37.7,82z"
		/>
	<path class="st0" d="M127.5,29.6c-0.5-0.9-1.2-1.7-2.1-2.4c-0.9-0.7-1.9-1.3-3-1.8v2c1.5,0.5,2.7,1.1,3.7,1.9
		c0.6,0.5,1.2,1.1,1.6,1.8c0.9,1.6,1.2,3.7,0.7,6.1c0.1,0,0.1,0,0.2,0.1C129.1,34.3,128.8,31.7,127.5,29.6z"/>
	<path class="st2" d="M99.1,69.6L99.1,69.6c6.5-4.1,12.3-8.7,17.1-13.5c1.4-1.4,2.7-2.9,3.9-4.3v0c-1.1,1.2-2.2,2.5-3.5,3.8
		C111.8,60.5,105.8,65.3,99.1,69.6z"/>
	<path class="st3" d="M120.1,0h-21v45.2c8.1-4.7,15.3-10,21-15.6L120.1,0L120.1,0z"/>
	<path class="st3" d="M94.7,24.1h-21v32.5c6.9-2.2,14.2-5.3,21-9V24.1z"/>
	<path class="st2" d="M73.6,82.2L73.6,82.2c6.2-2.1,12.5-5,18.7-8.5c0.8-0.4,1.5-0.9,2.3-1.3v-0.1c-0.7,0.4-1.3,0.8-2,1.1
		C86.5,77,80,80,73.6,82.2z"/>
	<path class="st3" d="M69.2,57.9V44.5h-21v15.9c1.1,0.1,2.3,0.2,3.6,0.2C56.8,60.6,62.8,59.7,69.2,57.9z"/>
	<path class="st2" d="M48.2,86.7v0.1c0.8,0.1,1.6,0.1,2.4,0.1c5.5,0,11.9-1.1,18.7-3.2v0c-6.8,2-13.1,3.1-18.3,3.1
		C50,86.8,49.1,86.8,48.2,86.7z"/>
	<path class="st0" d="M45.9,60.5c-0.9,1-1.7,2-2.5,3c-5.9,7.5-8,14.2-5.9,18.2c0.1,0.1,0.1,0.2,0.2,0.3c0.8,1.3,2.1,2.4,3.9,3.2
		c0.8-2.8,2.2-5.8,4.3-8.9V60.5z"/>
	<path class="st1" d="M45.9,60.5c-0.9,1-1.7,2-2.5,3c-5.9,7.5-8,14.2-5.9,18.2c0.1,0.1,0.1,0.2,0.2,0.3c0.8,1.3,2.1,2.4,3.9,3.2
		c0.8-2.8,2.2-5.8,4.3-8.9V60.5z"/>
	<path class="st0" d="M127.6,31.1c-0.4-0.7-0.9-1.3-1.6-1.8c-0.9-0.8-2.2-1.4-3.7-1.9v8.9c2.2,0.1,4.2,0.5,5.9,1
		C128.8,34.8,128.6,32.7,127.6,31.1z"/>
	<path class="st1" d="M127.6,31.1c-0.4-0.7-0.9-1.3-1.6-1.8c-0.9-0.8-2.2-1.4-3.7-1.9v8.9c2.2,0.1,4.2,0.5,5.9,1
		C128.8,34.8,128.6,32.7,127.6,31.1z"/>
	<path class="st2" d="M99.1,45.2v24.4c6.7-4.3,12.7-9.1,17.6-14.1c1.2-1.2,2.4-2.5,3.5-3.8V29.6C114.3,35.2,107.1,40.5,99.1,45.2z"
		/>
	<path class="st4" d="M99.1,45.2v24.4c6.7-4.3,12.7-9.1,17.6-14.1c1.2-1.2,2.4-2.5,3.5-3.8V29.6C114.3,35.2,107.1,40.5,99.1,45.2z"
		/>
	<path class="st2" d="M73.6,56.6v25.6C80,80,86.5,77,92.7,73.5c0.7-0.4,1.3-0.7,2-1.1V47.6C87.8,51.3,80.6,54.4,73.6,56.6z"/>
	<path class="st4" d="M73.6,56.6v25.6C80,80,86.5,77,92.7,73.5c0.7-0.4,1.3-0.7,2-1.1V47.6C87.8,51.3,80.6,54.4,73.6,56.6z"/>
	<path class="st2" d="M51.8,60.6c-1.3,0-2.5-0.1-3.6-0.2v26.3c0.9,0.1,1.8,0.1,2.7,0.1c5.2,0,11.5-1.1,18.3-3.1V57.9
		C62.8,59.7,56.8,60.6,51.8,60.6z"/>
	<path class="st4" d="M51.8,60.6c-1.3,0-2.5-0.1-3.6-0.2v26.3c0.9,0.1,1.8,0.1,2.7,0.1c5.2,0,11.5-1.1,18.3-3.1V57.9
		C62.8,59.7,56.8,60.6,51.8,60.6z"/>
	<path class="st1" d="M24.2,136.8l-8.6-15.6c-1.2-2-0.3-3.5,2-3.5H22c1.7,0,2.7,0.7,3.4,2.2l1.7,4.2c1,2.4,1.7,5.3,1.7,5.3h0.1
		c0,0,0.8-2.8,1.7-5.3l1.7-4.2c0.7-1.5,1.7-2.2,3.3-2.2h4.4c2.3,0,3.2,1.5,2,3.5l-8.6,15.6v10c0,1.9-1,2.9-2.9,2.9h-3.6
		c-1.9,0-2.9-1-2.9-2.9C24.2,146.8,24.2,136.8,24.2,136.8z"/>
	<path class="st5" d="M59.8,152.4l-3-3.9c-1.3,0.8-2.9,1.2-4.5,1.2h-1.3c-5.2,0-9.4-4.2-9.4-9.4v-13.8c0-4.4,3.6-8,8-8h4
		c4.4,0,8,3.6,8,8v13.8c0,2.7-1.2,5.2-3,6.9l3,3.8L59.8,152.4z M52.2,147.5c1.1,0,2.2-0.3,3.1-0.8l-3.6-4.6l1.8-1.3l3.6,4.5
		c1.1-1.2,1.8-2.8,1.8-4.5v-14.7c0-2.9-2.4-5.3-5.3-5.3h-4c-2.9,0-5.3,2.4-5.3,5.3v14.7c0,3.7,3,6.7,6.7,6.7L52.2,147.5L52.2,147.5z
		"/>
	<path class="st5" d="M76.5,127.4h2.7v22.3h-1.3l-1.3-2.7c-1.3,1.8-3.5,2.7-5.8,2.7h-1.8c-3.2,0-5.8-2.6-5.8-5.8v-16.5h2.7v16.9
		c0,1.7,1.4,3.1,3.1,3.1h1.8c3.2,0,5.8-2.6,5.8-5.8L76.5,127.4L76.5,127.4z"/>
	<path class="st5" d="M82.1,129.6v-2.2h8.5c3.2,0,5.8,2.6,5.8,5.8v16.5H86.1c-3.3,0-5.8-2.6-5.8-5.8c0-2.6,2.1-5,4.7-5.7l8.7-2.1
		v-3.3c0-1.7-1.4-3.1-3.1-3.1L82.1,129.6L82.1,129.6z M86.1,147.5h7.6v-9l-8.1,2c-1.5,0.4-2.6,1.7-2.6,3.5
		C83,145.9,84.3,147.5,86.1,147.5z"/>
	<path class="st5" d="M101,149.7h-2.7v-22.3h1.3l1.3,2.7c1.3-1.8,3.5-2.7,5.8-2.7h1.8c3.2,0,5.8,2.6,5.8,5.8v16.5h-2.7v-16.9
		c0-1.7-1.4-3.1-3.1-3.1h-1.8c-3.2,0-5.8,2.6-5.8,5.8L101,149.7L101,149.7z"/>
	<path class="st5" d="M124.9,147.5v2.2h-2.5c-3.3,0-6-2.6-6-5.8v-25.4h2.7v8.9h5.8v2.2h-5.8v14.3c0,2,1.5,3.6,3.3,3.6L124.9,147.5
		L124.9,147.5z"/>
	<path class="st5" d="M125.6,118.5h2.7v4.5h-2.7V118.5z M125.6,127.4h2.7v22.3h-2.7V127.4z"/>
	<path class="st5" d="M132.9,124.3v3.1h6.2v2.2h-6.2v20.1h-2.7v-25.4c0-3.2,2.7-5.8,6-5.8h2.9v2.2h-2.9
		C134.4,120.7,132.9,122.3,132.9,124.3z"/>
	<path class="st5" d="M153.2,147c-1.3,1.8-3.5,2.7-5.8,2.7h-1.8c-3.2,0-5.8-2.6-5.8-5.8v-16.5h2.7v16.9c0,1.7,1.4,3.1,3.1,3.1h1.8
		c3.2,0,5.8-2.6,5.8-5.8v-14.3h2.7v24.1c0,4.7-3.8,8.5-8.5,8.5h-4.9v-2.2h4.9c3.2,0,5.8-2.6,5.8-5.8L153.2,147L153.2,147z"/>
</g>
</svg>
