<?xml version="1.0" encoding="utf-8"?>
<!-- Generator: Adobe Illustrator 23.1.1, SVG Export Plug-In . SVG Version: 6.00 Build 0)  -->
<svg version="1.1" id="_x2014_ÎÓÈ_x5F_1" xmlns="http://www.w3.org/2000/svg" xmlns:xlink="http://www.w3.org/1999/xlink"
	 x="0px" y="0px" viewBox="0 0 613.5 285" style="enable-background:new 0 0 613.5 285;" xml:space="preserve">
<style type="text/css">
	.st0{fill:#FDFEFF;}
	.st1{fill:#020202;}
	.st2{fill:#1149D3;}
	.st3{fill:#1F55FF;}
	.st4{fill:#FFFFFF;}
	.st5{fill:#F4BD5B;}
	.st6{fill:#FFADEA;}
	.st7{fill:#9FAFFC;}
	.st8{fill:#060606;}
	.st9{fill:#9C64F4;}
	.st10{fill:#2234A4;}
	.st11{fill:#161616;}
	.st12{fill:#1A1A1A;}
	.st13{fill:#141414;}
	.st14{fill:#3D3D3D;}
	.st15{fill:#FFAED1;}
	.st16{fill:#6519BB;}
</style>
<g>
	<g>
		<path class="st0" d="M21.4,172.8c0.7,3.9,3,7.8,2.2,11.7c-1,5.2-7,8.5-11.3,12.3c-5.9,5.3-9,13.7-4.3,19.8
			c2.4,3.1,6.4,5.2,8.7,8.3c5.7,7.8-1.3,18.3,2.3,27c2.5,6.1,9.9,10,17.6,11.4c3.6,0.6,7.6,0.8,10.9-0.6c2.1-0.9,3.8-2.3,5.2-3.9
			c3.2-3.6,4.9-7.9,6.3-12.2c2.7-8.6,3.6-18.2-1.8-25.8c-2.7-3.8-7-7-8.4-11.3c-2.8-8.5,6.6-17.9,2.1-25.8c-1.5-2.5-4.1-4.4-6-6.7
			c-4.5-5.7-3.4-13.1-3.2-19.9c0.1-2-0.1-4.3-1.9-5.6c-4-2.9-10.1,0.8-12.5,3.5C23.1,159.8,20.4,167,21.4,172.8z"/>
		<path class="st1" d="M41.4,264.1c-1.5,0-3.2-0.2-5-0.5c-6.8-1.2-15-4.9-17.8-11.6c-1.7-4-1.1-8.5-0.6-12.7
			c0.7-5.2,1.3-10-1.7-14.2c-1.1-1.6-2.8-2.9-4.3-4.2c-1.5-1.3-3.1-2.6-4.3-4.1c-4.9-6.4-1.5-15.1,4.4-20.3c1.1-1,2.3-1.9,3.4-2.8
			c3.5-2.7,7-5.5,7.8-9.3c0.5-2.4-0.3-4.8-1.1-7.4c-0.4-1.4-0.9-2.8-1.1-4.2c-0.9-5.5,1.4-12.8,5.9-18c2.3-2.7,8.7-6.7,13-3.6
			c2,1.4,2.2,3.8,2.1,6c0,0.9-0.1,1.8-0.1,2.7c-0.3,5.9-0.6,12.1,3.2,17c0.7,0.9,1.6,1.8,2.5,2.7c1.3,1.3,2.6,2.6,3.5,4.1
			c2.5,4.4,0.9,9.2-0.6,13.8c-1.3,4-2.7,8.2-1.4,12c0.9,2.7,2.9,4.9,5.1,7.2c1.1,1.3,2.3,2.5,3.3,3.9c4.6,6.4,5.3,15.2,1.9,26.1
			c-1.1,3.7-2.9,8.4-6.4,12.3c-1.7,1.9-3.4,3.2-5.4,4C45.8,263.8,43.8,264.1,41.4,264.1z M36.2,150.9c-3.3,0-7.1,2.4-8.8,4.4
			c-4.3,5.1-6.6,12.1-5.7,17.4c0.2,1.4,0.7,2.7,1.1,4.1c0.8,2.5,1.7,5.1,1.1,7.7c-0.8,4-4.5,6.9-8.1,9.7c-1.1,0.9-2.3,1.8-3.4,2.8
			c-5.6,5-8.9,13.3-4.3,19.3c1.1,1.5,2.7,2.8,4.2,4c1.6,1.3,3.3,2.7,4.5,4.3c3.2,4.4,2.5,9.6,1.9,14.7c-0.5,4.2-1.1,8.5,0.5,12.4
			c2.7,6.4,10.7,10,17.3,11.2c4.3,0.8,7.9,0.6,10.7-0.6c1.8-0.8,3.5-2,5.1-3.8c3.3-3.8,5.1-8.4,6.2-12c3.4-10.8,2.8-19.1-1.8-25.4
			c-1-1.3-2.1-2.6-3.3-3.8c-2.1-2.3-4.3-4.7-5.2-7.5c-1.3-4.1,0.1-8.4,1.4-12.5c1.6-4.7,3-9.1,0.7-13.2c-0.8-1.4-2.1-2.7-3.4-3.9
			c-0.9-0.9-1.8-1.8-2.6-2.8c-4-5.1-3.7-11.4-3.4-17.4c0-0.9,0.1-1.8,0.1-2.7c0.1-1.9-0.1-4.1-1.8-5.3
			C38.5,151.2,37.4,150.9,36.2,150.9z"/>
	</g>
	<g>
		<g>
			<path class="st1" d="M34.9,252.7C34.8,252.7,34.8,252.7,34.9,252.7c-0.3-0.1-0.4-0.3-0.4-0.5c3.9-14.3,1.9-28.9,0-42.9
				c-1.9-14.2-3.9-28.8,0-43.2c0.1-0.2,0.3-0.3,0.5-0.3c0.2,0.1,0.3,0.3,0.3,0.5c-3.9,14.3-1.9,28.9,0,42.9
				c1.9,14.2,3.9,28.8,0,43.2C35.2,252.6,35,252.7,34.9,252.7z"/>
		</g>
		<g>
			<g>
				<path class="st1" d="M32.6,184.5c-0.1,0-0.2,0-0.3-0.1c-2.6-2.6-5-5.1-7.2-7.5c-0.1-0.2-0.1-0.4,0-0.5c0.2-0.1,0.4-0.1,0.5,0
					c2.1,2.3,4.3,4.7,6.9,7.2c2.6-2.6,5.2-5.1,7.9-7.5c0.2-0.1,0.4-0.1,0.5,0c0.1,0.2,0.1,0.4,0,0.5c-2.7,2.5-5.4,5-8.1,7.7
					C32.8,184.5,32.7,184.5,32.6,184.5z"/>
			</g>
			<g>
				<path class="st1" d="M33.1,194.8c-0.1,0-0.2,0-0.3-0.1c-2.9-2.7-5.5-5.1-8-7.5c-0.1-0.1-0.2-0.4,0-0.5c0.1-0.1,0.4-0.2,0.5,0
					c2.3,2.3,4.8,4.6,7.7,7.2c2.4-2.7,4.8-5.1,7-7.4c0.1-0.1,0.4-0.2,0.5,0c0.1,0.1,0.2,0.4,0,0.5c-2.4,2.4-4.7,4.9-7.3,7.7
					C33.3,194.8,33.2,194.8,33.1,194.8C33.1,194.8,33.1,194.8,33.1,194.8z"/>
			</g>
			<g>
				<path class="st1" d="M34.3,205.1c-0.1,0-0.2,0-0.2-0.1c-3.3-2.9-6-5.3-8.4-7.5c-0.2-0.1-0.2-0.4,0-0.5c0.1-0.2,0.4-0.2,0.5,0
					c2.4,2.1,4.9,4.4,8.1,7.2c2.6-3,4.6-5.3,6.6-7.4c0.1-0.2,0.4-0.2,0.5,0c0.2,0.1,0.2,0.4,0,0.5c-2,2.2-4.1,4.6-6.8,7.7
					C34.5,205.1,34.4,205.1,34.3,205.1C34.3,205.1,34.3,205.1,34.3,205.1z"/>
			</g>
			<g>
				<path class="st1" d="M35.7,215.5c-0.1,0-0.2,0-0.2-0.1c-2.2-1.9-4.4-3.9-6.6-5.8l-1.9-1.6c-0.2-0.1-0.2-0.4,0-0.5
					c0.1-0.2,0.4-0.2,0.5,0l1.9,1.6c2.1,1.9,4.2,3.7,6.4,5.6c1.6-1.9,3.3-3.7,4.9-5.6l1.6-1.8c0.1-0.2,0.4-0.2,0.5,0
					c0.2,0.1,0.2,0.4,0,0.5l-1.6,1.8c-1.7,2-3.4,3.9-5.1,5.9C35.9,215.4,35.9,215.5,35.7,215.5C35.7,215.5,35.7,215.5,35.7,215.5z"
					/>
			</g>
			<g>
				<path class="st1" d="M36.9,225.8c-0.1,0-0.2,0-0.3-0.1c-2.4-2.3-5.1-4.7-8.2-7.5c-0.2-0.1-0.2-0.4,0-0.5c0.1-0.2,0.4-0.2,0.5,0
					c3,2.7,5.6,5,8,7.2c2.1-2.2,4.3-4.7,6.7-7.4c0.1-0.2,0.4-0.2,0.5,0c0.2,0.1,0.2,0.4,0,0.5c-2.5,2.9-4.8,5.4-7,7.7
					C37.1,225.7,37,225.8,36.9,225.8C36.9,225.8,36.9,225.8,36.9,225.8z"/>
			</g>
			<g>
				<path class="st1" d="M37.2,236.1c-0.1,0-0.2,0-0.3-0.1c-2.3-2.4-4.8-4.8-7.6-7.5c-0.2-0.1-0.2-0.4,0-0.5c0.1-0.2,0.4-0.2,0.5,0
					c2.7,2.5,5.1,4.9,7.4,7.2c2.4-2.4,4.8-4.8,7.3-7.4c0.1-0.1,0.4-0.2,0.5,0c0.2,0.1,0.2,0.4,0,0.5c-2.6,2.8-5.1,5.3-7.6,7.7
					C37.4,236,37.3,236.1,37.2,236.1z"/>
			</g>
			<g>
				<path class="st1" d="M36.4,246.4c-0.1,0-0.2-0.1-0.3-0.1c-2-2.4-4.3-4.9-6.7-7.5c-0.1-0.1-0.1-0.4,0-0.5c0.1-0.1,0.4-0.1,0.5,0
					c2.3,2.5,4.5,4.9,6.5,7.2c2.8-2.4,5.5-4.9,8.2-7.5c0.1-0.1,0.4-0.1,0.5,0c0.1,0.1,0.1,0.4,0,0.5c-2.8,2.7-5.7,5.3-8.6,7.7
					C36.6,246.4,36.5,246.4,36.4,246.4z"/>
			</g>
		</g>
	</g>
	<g>
		<g>
			<path class="st2" d="M64.7,248.5H8c-1.6,0-2.9,1.3-2.9,2.9v30.2c0,1.6,1.3,2.9,2.9,2.9h56.8c1.6,0,2.9-1.3,2.9-2.9v-30.2
				C67.7,249.8,66.4,248.5,64.7,248.5z"/>
			<path class="st1" d="M64.7,284.9H8c-1.8,0-3.3-1.5-3.3-3.3v-30.2c0-1.8,1.5-3.3,3.3-3.3h56.8c1.8,0,3.3,1.5,3.3,3.3v30.2
				C68,283.4,66.6,284.9,64.7,284.9z M8,248.9c-1.4,0-2.5,1.1-2.5,2.5v30.2c0,1.4,1.1,2.5,2.5,2.5h56.8c1.4,0,2.5-1.1,2.5-2.5v-30.2
				c0-1.4-1.1-2.5-2.5-2.5H8z"/>
		</g>
	</g>
</g>
<rect x="153" y="43.5" class="st3" width="388.5" height="169.1"/>
<path class="st1" d="M541.5,212.9H153c-0.2,0-0.4-0.2-0.4-0.4V43.5c0-0.2,0.2-0.4,0.4-0.4h388.5c0.2,0,0.4,0.2,0.4,0.4v169.1
	C541.9,212.8,541.7,212.9,541.5,212.9z M153.4,212.2h387.8V43.9H153.4V212.2z"/>
<g>
	<rect x="476.7" y="81.7" class="st1" width="0.4" height="13.1"/>
	<rect x="486.2" y="54.1" class="st1" width="0.4" height="40.7"/>
	<rect x="496.1" y="68.6" class="st1" width="0.4" height="26.2"/>
	<rect x="505.6" y="54.1" class="st1" width="0.4" height="40.7"/>
	<rect x="513.8" y="87.1" class="st1" width="0.4" height="7.6"/>
	<rect x="522" y="54.1" class="st1" width="0.4" height="40.7"/>
	<g>
		<path class="st0" d="M486.7,91.6h-0.5c-0.7,0-1.2-0.6-1.2-1.2V60.7c0-0.7,0.6-1.2,1.2-1.2h0.5c0.7,0,1.2,0.6,1.2,1.2v29.6
			C487.9,91,487.4,91.6,486.7,91.6z"/>
		<path class="st1" d="M486.7,92h-0.5c-0.9,0-1.6-0.7-1.6-1.6V60.7c0-0.9,0.7-1.6,1.6-1.6h0.5c0.9,0,1.6,0.7,1.6,1.6v29.7
			C488.3,91.2,487.6,92,486.7,92z M486.2,59.9c-0.5,0-0.9,0.4-0.9,0.9v29.7c0,0.5,0.4,0.9,0.9,0.9h0.5c0.5,0,0.9-0.4,0.9-0.9V60.7
			c0-0.5-0.4-0.9-0.9-0.9H486.2z"/>
	</g>
	<g>
		<path class="st0" d="M522.5,91.8H522c-0.7,0-1.2-0.6-1.2-1.2V66.1c0-0.7,0.6-1.2,1.2-1.2h0.5c0.7,0,1.2,0.6,1.2,1.2v24.4
			C523.7,91.2,523.1,91.8,522.5,91.8z"/>
		<path class="st1" d="M522.5,92.2H522c-0.9,0-1.6-0.7-1.6-1.6V66.1c0-0.9,0.7-1.6,1.6-1.6h0.5c0.9,0,1.6,0.7,1.6,1.6v24.5
			C524.1,91.5,523.4,92.2,522.5,92.2z M522,65.3c-0.5,0-0.9,0.4-0.9,0.9v24.5c0,0.5,0.4,0.9,0.9,0.9h0.5c0.5,0,0.9-0.4,0.9-0.9V66.1
			c0-0.5-0.4-0.9-0.9-0.9H522z"/>
	</g>
	<g>
		<path class="st0" d="M506,91.6h-0.5c-0.7,0-1.2-0.6-1.2-1.2V72.2c0-0.7,0.6-1.2,1.2-1.2h0.5c0.7,0,1.2,0.6,1.2,1.2v18.2
			C507.2,91,506.7,91.6,506,91.6z"/>
		<path class="st1" d="M506,92h-0.5c-0.9,0-1.6-0.7-1.6-1.6V72.1c0-0.9,0.7-1.6,1.6-1.6h0.5c0.9,0,1.6,0.7,1.6,1.6v18.2
			C507.6,91.2,506.9,92,506,92z M505.5,71.3c-0.5,0-0.9,0.4-0.9,0.9v18.2c0,0.5,0.4,0.9,0.9,0.9h0.5c0.5,0,0.9-0.4,0.9-0.9V72.1
			c0-0.5-0.4-0.9-0.9-0.9H505.5z"/>
	</g>
	<g>
		<path class="st0" d="M477.3,89.2h-0.5c-0.7,0-1.2-0.6-1.2-1.2V86c0-0.7,0.6-1.2,1.2-1.2h0.5c0.7,0,1.2,0.6,1.2,1.2v1.9
			C478.5,88.6,477.9,89.2,477.3,89.2z"/>
		<path class="st1" d="M477.3,89.5h-0.5c-0.9,0-1.6-0.7-1.6-1.6V86c0-0.9,0.7-1.6,1.6-1.6h0.5c0.9,0,1.6,0.7,1.6,1.6v1.9
			C478.9,88.8,478.2,89.5,477.3,89.5z M476.8,85.2c-0.5,0-0.9,0.4-0.9,0.9v1.9c0,0.5,0.4,0.9,0.9,0.9h0.5c0.5,0,0.9-0.4,0.9-0.9V86
			c0-0.5-0.4-0.9-0.9-0.9H476.8z"/>
	</g>
	<g>
		<path class="st0" d="M496.6,87.6h-0.5c-0.7,0-1.2-0.6-1.2-1.2V76.1c0-0.7,0.6-1.2,1.2-1.2h0.5c0.7,0,1.2,0.6,1.2,1.2v10.3
			C497.9,87,497.3,87.6,496.6,87.6z"/>
		<path class="st1" d="M496.6,88h-0.5c-0.9,0-1.6-0.7-1.6-1.6V76.1c0-0.9,0.7-1.6,1.6-1.6h0.5c0.9,0,1.6,0.7,1.6,1.6v10.3
			C498.2,87.3,497.5,88,496.6,88z M496.2,75.2c-0.5,0-0.9,0.4-0.9,0.9v10.3c0,0.5,0.4,0.9,0.9,0.9h0.5c0.5,0,0.9-0.4,0.9-0.9V76.1
			c0-0.5-0.4-0.9-0.9-0.9H496.2z"/>
	</g>
</g>
<g>
	
		<rect x="435.6" y="29.3" transform="matrix(4.665376e-03 -1 1 4.665376e-03 375.5088 494.884)" class="st4" width="1.5" height="59.1"/>
	
		<rect x="435.6" y="32.2" transform="matrix(4.665376e-03 -1 1 4.665376e-03 372.5941 497.7581)" class="st4" width="1.5" height="59.1"/>
	
		<rect x="420.4" y="22.8" transform="matrix(4.664641e-03 -1 1 4.664641e-03 351.7563 488.2853)" class="st4" width="1.5" height="89.4"/>
	
		<rect x="410.7" y="37.8" transform="matrix(4.715658e-03 -1 1 4.715658e-03 336.7308 483.7951)" class="st4" width="1.5" height="69.9"/>
	
		<rect x="386.3" y="48.1" transform="matrix(4.715658e-03 -1 1 4.715658e-03 326.6289 445.332)" class="st4" width="1.5" height="21"/>
	
		<rect x="386.3" y="51" transform="matrix(4.715658e-03 -1 1 4.715658e-03 323.7142 448.2059)" class="st4" width="1.5" height="21"/>
	
		<rect x="390.7" y="66.9" transform="matrix(4.648292e-03 -1 1 4.648292e-03 307.6768 473.0346)" class="st4" width="1.5" height="30.1"/>
	
		<rect x="390.7" y="69.8" transform="matrix(4.715658e-03 -1 1 4.715658e-03 304.7361 475.9024)" class="st4" width="1.5" height="30.1"/>
</g>
<g>
	<g>
		<path class="st5" d="M250,146.3c1,0.2,2.2,0.7,3.3,1.2c1.2,0.5,2.4,1.2,3.7,1.9c2.5,1.4,4.9,2.9,7.3,4.5c1.2,0.8,2.4,1.6,3.6,2.4
			l0.9,0.6l0.5,0.3l0.4,0.3c0.5,0.3,0.9,0.7,1.4,1.1c1.7,1.6,3.1,3.7,3.8,6.1c0.4,1.2,0.6,2.4,0.6,3.7c0,1.3-0.1,2.5-0.4,3.9
			c-0.6,2.9-1.3,5.7-2.1,8.5c-0.8,2.8-1.8,5.6-3,8.3c-1.2,2.7-2.6,5.3-4.6,7.5c2.3-1.9,4.2-4.3,5.8-6.9c1.7-2.5,3.1-5.2,4.4-7.9
			c1.3-2.7,2.5-5.5,3.6-8.3c0.6-1.4,1.1-3.1,1.3-4.8c0.2-1.7,0.2-3.4,0-5.1c-0.4-3.4-1.8-6.8-4-9.7c-0.6-0.7-1.1-1.4-1.8-2l-0.5-0.5
			l-0.4-0.4l-0.8-0.8c-1.1-1-2.2-2.1-3.3-3.1c-2.3-2-4.6-4.1-7.1-6c-1.2-1-2.5-1.9-3.9-2.8c-1.4-0.9-2.8-1.8-4.7-2.6l-0.3-0.1
			c-2.9-1.3-6.2,0-7.5,2.9c-1.3,2.9,0,6.2,2.9,7.5C249.3,146.1,249.6,146.2,250,146.3z"/>
		<path class="st1" d="M265.3,197.1c-0.1,0-0.2,0-0.3-0.1c-0.1-0.1-0.1-0.4,0-0.5c1.7-2,3.2-4.4,4.5-7.4c1.1-2.4,2.1-5.1,3-8.2
			c0.8-2.7,1.5-5.5,2.1-8.5c0.3-1.5,0.4-2.6,0.4-3.8c0-1.2-0.2-2.5-0.6-3.6c-0.7-2.3-2-4.4-3.7-6c-0.5-0.4-0.9-0.8-1.3-1.1l-1.7-1.2
			c-1.2-0.8-2.4-1.6-3.6-2.4c-2.9-1.9-5.2-3.3-7.3-4.5c-1.2-0.7-2.4-1.3-3.6-1.8c-1.3-0.6-2.4-1-3.3-1.2c-0.4-0.1-0.8-0.2-1.1-0.4
			c-1.5-0.6-2.6-1.8-3.2-3.3c-0.6-1.5-0.6-3.1,0.1-4.6c0.7-1.5,1.8-2.6,3.4-3.2c1.5-0.6,3.2-0.6,4.6,0.1l0.3,0.1
			c1.9,0.8,3.4,1.8,4.7,2.7c1.3,0.9,2.6,1.8,3.9,2.9c2.7,2.1,5.2,4.3,7.1,6c1.1,1,2.2,2.1,3.3,3.1l1.7,1.7c0.6,0.6,1.1,1.2,1.8,2.1
			c2.2,2.8,3.6,6.2,4.1,9.8c0.2,1.7,0.2,3.5,0,5.2c-0.2,1.5-0.7,3.2-1.3,4.9c-1.2,3-2.3,5.8-3.6,8.4c-1.5,3-2.9,5.6-4.4,8
			c-1.9,2.9-3.8,5.2-5.9,6.9C265.5,197.1,265.4,197.1,265.3,197.1z M250.1,146c0.9,0.2,2,0.6,3.4,1.3c1.2,0.5,2.4,1.2,3.7,1.9
			c2.1,1.2,4.5,2.6,7.4,4.5c1.2,0.8,2.4,1.6,3.6,2.4l1.7,1.2c0.5,0.3,0.9,0.7,1.4,1.1c1.8,1.7,3.1,3.8,3.9,6.3
			c0.4,1.2,0.6,2.5,0.6,3.8c0,1.3-0.1,2.5-0.4,4c-0.6,3.1-1.3,5.8-2.1,8.5c-0.9,3.1-1.9,5.8-3,8.3c-0.6,1.4-1.2,2.6-1.9,3.7
			c0.8-1,1.7-2.2,2.5-3.4c1.5-2.3,2.9-4.9,4.4-7.9c1.2-2.6,2.4-5.3,3.6-8.3c0.6-1.6,1.1-3.3,1.3-4.7c0.2-1.7,0.2-3.4,0-5
			c-0.5-3.5-1.8-6.8-3.9-9.5c-0.7-0.8-1.2-1.5-1.7-2l-1.7-1.7c-1.1-1-2.2-2.1-3.3-3.1c-1.9-1.7-4.3-3.9-7-6c-1.3-1-2.6-2-3.9-2.8
			c-1.3-0.9-2.8-1.8-4.6-2.6l-0.3-0.1c-1.3-0.6-2.7-0.6-4.1-0.1c-1.3,0.5-2.4,1.5-2.9,2.8s-0.6,2.7-0.1,4.1c0.5,1.3,1.5,2.4,2.8,2.9
			C249.4,145.8,249.7,145.9,250.1,146z"/>
	</g>
	<g>
		<g>
			<path class="st5" d="M269.2,191.9c0.7,0.7,0,2.8-1.6,4.7c-1.6,1.9-3.6,2.8-4.3,2.1c-0.7-0.7,0-2.8,1.6-4.7
				C266.5,192.1,268.4,191.2,269.2,191.9z"/>
			<path class="st1" d="M263.9,199.3c-0.4,0-0.7-0.1-0.9-0.3c-1.1-1,0-3.4,1.6-5.2c1.3-1.5,2.7-2.4,3.8-2.5c0.4,0,0.8,0.1,1,0.3
				c1.1,1,0,3.4-1.6,5.2C266.6,198.3,265.1,199.2,263.9,199.3C264,199.3,264,199.3,263.9,199.3z M268.5,192
				C268.5,192,268.5,192,268.5,192c-0.8,0-2.1,0.7-3.4,2.2c-1.6,1.8-2.1,3.7-1.6,4.2c0.1,0.1,0.3,0.1,0.5,0.1c0.7,0,2-0.7,3.3-2.2
				c1.6-1.8,2.1-3.7,1.6-4.2C268.8,192.1,268.7,192,268.5,192z"/>
		</g>
	</g>
</g>
<g>
	<g>
		<rect x="365.1" y="53.5" class="st1" width="0.5" height="46.7"/>
	</g>
	<g>
		<rect x="346.1" y="53.5" class="st1" width="0.5" height="46.7"/>
	</g>
	<g>
		<rect x="327.2" y="53.5" class="st1" width="0.5" height="46.7"/>
	</g>
	<g>
		<rect x="308.2" y="53.5" class="st1" width="0.5" height="46.7"/>
	</g>
	<g>
		<rect x="289.2" y="53.5" class="st1" width="0.5" height="46.7"/>
	</g>
	<g>
		<rect x="270.3" y="53.5" class="st1" width="0.5" height="46.7"/>
	</g>
	<g>
		<rect x="251.3" y="53.5" class="st1" width="0.5" height="46.7"/>
	</g>
	<g>
		<rect x="232.3" y="53.5" class="st1" width="0.5" height="46.7"/>
	</g>
	<g>
		<rect x="213.3" y="53.5" class="st1" width="0.5" height="46.7"/>
	</g>
</g>
<g>
	<g>
		<g>
			<path class="st6" d="M251.4,134.6l-2.5,0.1c-0.3,0-0.7-0.4-0.7-0.8l-1.2-8.9c-0.1-0.5,0.2-0.9,0.5-0.9l2.5-0.1
				c0.3,0,0.7,0.4,0.7,0.8l1.2,8.9C252,134.2,251.7,134.6,251.4,134.6z"/>
		</g>
		<g>
			<g>
				<path class="st5" d="M248.3,117.4c-0.9,0.9-1.5,2.2-1.4,3.7l0.1,3.8c0.1,2.6,1.9,4.6,4,4.6c1.6,0,3.1-1.2,3.5-2.9
					c1-4.1-0.4-6.5-0.6-7.3l-0.1-0.2L248.3,117.4z"/>
				<path class="st1" d="M250.9,129.8c-2.3,0-4.3-2.2-4.3-4.9l-0.1-3.8c0-1.5,0.5-3,1.5-4c0.1-0.1,0.2-0.1,0.4-0.1l5.6,1.6
					c0.1,0,0.2,0.1,0.2,0.2l0.1,0.2c0,0,0,0.1,0,0.1c0,0.1,0.1,0.4,0.2,0.6c0.4,1.2,1.2,3.4,0.4,6.8
					C254.4,128.4,252.8,129.8,250.9,129.8C251,129.8,250.9,129.8,250.9,129.8z M248.4,117.8c-0.8,0.8-1.2,2-1.2,3.3l0.1,3.8
					c0.1,2.4,1.7,4.2,3.6,4.2c1.5,0,2.8-1.1,3.2-2.7c0.8-3.2,0.1-5.3-0.4-6.4c-0.1-0.3-0.2-0.5-0.2-0.7L248.4,117.8z"/>
			</g>
		</g>
		<g>
			<path class="st7" d="M253.1,121.6l0.4,1.3c-0.2,2-2.2,4.3-3.9,4.6c-2.2,0.4-2.9-0.9-4.8-5L253.1,121.6z"/>
		</g>
	</g>
</g>
<g>
	<path class="st5" d="M256.7,233.3l10,0c-1.8,14.8-5.6,29.4-11.2,43.2c-0.3,0.7-1.2,0.3-1.1-0.3C256.9,264.3,257,238.7,256.7,233.3z
		"/>
	<path class="st1" d="M255,277.3c-0.1,0-0.2,0-0.3,0c-0.4-0.1-0.8-0.5-0.7-1.1c2.5-12,2.6-37.5,2.3-42.8c0-0.1,0-0.2,0.1-0.3
		c0.1-0.1,0.2-0.1,0.3-0.1l10,0c0.1,0,0.2,0,0.3,0.1c0.1,0.1,0.1,0.2,0.1,0.3c-1.9,15-5.6,29.5-11.2,43.3
		C255.7,277.1,255.3,277.3,255,277.3z M257.1,233.7c0.3,6,0.1,30.8-2.3,42.6c0,0.2,0.1,0.2,0.1,0.2c0.1,0,0.2,0,0.2-0.1
		c5.5-13.6,9.2-28,11.1-42.7L257.1,233.7z"/>
</g>
<g>
	<path class="st8" d="M243.1,181.1c0.4,0.5,0.7,1,1.1,1.6c1.3-3.2,5.6-4.8,10.3-4.6c8.2,0.4,11,6.5,12,13.1
		c1.7,11.1,2.1,22.3,1.3,33.5c-0.1,1.9-0.3,3.8-0.6,5.7c-0.1,1.1-0.3,2.3-0.4,3.4l-19.2,0c0,0,0,0,0,0.1l-12.3,0.1
		c0-0.2-0.1-0.4-0.1-0.7c-0.2-1-0.4-2-0.6-3c-0.4-2-0.8-4-1.1-5.9c-2-10.8-3.4-21.1-3.3-32.4C230.2,185.1,236,172.3,243.1,181.1z"/>
	<path d="M234.9,234.5l-0.8-4.1c-0.4-2-0.8-4-1.1-5.9c-1.8-9.8-3.4-20.6-3.3-32.5c0-4.8,2.8-12.6,7.1-14.1c1.5-0.5,4-0.5,6.7,2.9
		c0.2,0.3,0.4,0.6,0.6,0.9c1.7-2.7,5.6-4.3,10.4-4.1c7.1,0.4,11.1,4.8,12.5,13.5c1.7,11,2.1,22.3,1.3,33.6c-0.1,1.7-0.3,3.6-0.6,5.8
		c-0.1,1.2-0.3,2.3-0.4,3.5l-0.1,0.4l-19.2,0l-0.5,0.1L234.9,234.5z M238.3,178.6c-0.4,0-0.8,0.1-1.2,0.2c-3.8,1.3-6.4,8.8-6.5,13.2
		c-0.1,11.8,1.5,22.5,3.3,32.3c0.4,2,0.7,3.9,1.1,5.9l0.6,3.3l11.4-0.1l0.5-0.1l18.8,0c0.1-1,0.2-2,0.4-2.9c0.3-2.2,0.4-4.1,0.6-5.8
		c0.8-11.2,0.4-22.4-1.2-33.4c-1.3-8.3-4.9-12.3-11.5-12.7c-4.7-0.2-8.7,1.5-9.8,4.3l-0.4,1l-0.5-0.9c-0.3-0.6-0.6-1.1-1-1.5
		C241.2,179.5,239.7,178.6,238.3,178.6z"/>
</g>
<g>
	<path class="st5" d="M240.8,253.5c-0.6-5.8-0.9-13.6-1.7-19.5l9.3-0.1c-0.2,5.7-0.5,11.4-1.1,17.1c-1.1,10.1-2.7,20.1-5,29.9
		c-0.4,1.6-2.4,1.1-2.2-0.5C241.2,271.4,241.7,262.5,240.8,253.5z"/>
	<path class="st1" d="M241.3,282.2c-0.1,0-0.2,0-0.2,0c-0.7-0.1-1.4-0.8-1.3-1.9c1.2-10.5,1.4-19,0.7-26.7c-0.2-2.2-0.4-4.6-0.6-7.1
		c-0.3-4.3-0.6-8.7-1.1-12.4c0-0.1,0-0.2,0.1-0.3c0.1-0.1,0.2-0.1,0.3-0.1l9.3-0.1c0.1,0,0.2,0,0.3,0.1c0.1,0.1,0.1,0.2,0.1,0.3
		c-0.2,6-0.5,11.6-1.1,17.1c-1.1,10.2-2.7,20.2-5,29.9C242.5,281.9,241.9,282.2,241.3,282.2z M241.2,253.5
		c0.7,7.8,0.5,16.4-0.7,26.9c-0.1,0.7,0.3,1,0.6,1.1c0.3,0,0.7-0.1,0.8-0.7c2.3-9.7,4-19.7,5-29.8c0.6-5.4,0.9-10.8,1.1-16.7
		l-8.5,0.1c0.5,3.6,0.8,7.9,1.1,12C240.8,248.9,241,251.3,241.2,253.5L241.2,253.5z"/>
</g>
<g>
	<path class="st9" d="M264.6,183.1c1,3.4,2.2,7.2,0.2,10.3c-2.2,3.5-7.5,4.9-12.4,5.5c-6.3,0.8-13.5,0.5-18.2-3
		c-5-3.7-4-9.3-3.6-14.7c0.4-6.7,8.6-51.8,22.4-47.4c5.7,1.8,5.2,13.8,5.5,17.5C259.7,162.1,261.4,172.7,264.6,183.1z"/>
	<path class="st1" d="M247,199.6c-4.5,0-9.4-0.8-13-3.4c-4.7-3.4-4.3-8.6-3.9-13.5c0-0.5,0.1-1,0.1-1.5c0.4-6.3,6.4-39.6,16.9-46.7
		c2-1.3,4-1.7,6-1c5,1.6,5.4,10.3,5.7,15.4c0,1,0.1,1.8,0.1,2.4c1.3,12.2,3.2,22.3,6,31.7c1,3.4,2.2,7.3,0.1,10.6
		c-1.9,3-6.2,4.9-12.7,5.7C250.8,199.5,248.9,199.6,247,199.6z M251.1,133.9c-1.2,0-2.4,0.4-3.6,1.2c-10.2,6.9-16.2,40.7-16.5,46.1
		c0,0.5-0.1,1-0.1,1.5c-0.4,5-0.7,9.7,3.6,12.9c4.9,3.6,12.4,3.6,17.9,2.9c6.3-0.7,10.3-2.5,12.1-5.3c1.9-3,0.8-6.7-0.2-10
		c-2.9-9.5-4.8-19.6-6.1-31.9c-0.1-0.6-0.1-1.5-0.1-2.4c-0.2-5-0.6-13.3-5.1-14.8C252.3,134,251.7,133.9,251.1,133.9z"/>
</g>
<g>
	<path class="st1" d="M255.2,283.2h3.3c0-0.9-0.2-2-0.5-3.1c-0.8-2.8-2.2-4.9-3.2-4.6c-1,0.3-1.2,2.8-0.4,5.6
		C254.7,281.8,254.9,282.5,255.2,283.2z"/>
	<path class="st1" d="M258.5,283.5h-3.3c-0.1,0-0.3-0.1-0.3-0.2c-0.3-0.7-0.6-1.4-0.8-2.1c-0.7-2.7-0.7-5.7,0.7-6.1
		c0.2-0.1,0.5-0.1,1,0.2c1,0.6,2.1,2.4,2.7,4.7c0.3,1.1,0.5,2.2,0.5,3.2c0,0.1,0,0.2-0.1,0.3C258.7,283.5,258.6,283.5,258.5,283.5z
		 M255.4,282.8h2.7c0-0.8-0.2-1.7-0.4-2.6c-0.6-2.4-1.7-3.9-2.3-4.3c-0.2-0.1-0.3-0.1-0.4-0.1c-0.6,0.2-0.9,2.3-0.2,5.2
		C255,281.6,255.2,282.2,255.4,282.8z"/>
</g>
<g>
	<path class="st1" d="M233.6,281.3c0,1,2.3,1.7,5.2,1.7c2.8-0.1,5.1-0.9,5.1-1.9c0-1-2.3-1.7-5.2-1.7
		C235.9,279.5,233.6,280.3,233.6,281.3z"/>
	<path class="st1" d="M238.5,283.4c-2.6,0-5.2-0.7-5.2-2.1c0-0.3,0.1-0.6,0.4-0.9c0.8-0.8,2.8-1.4,5.1-1.4c2.7-0.1,5.5,0.6,5.5,2
		c0,0.5-0.3,1.1-1.7,1.6c-1,0.4-2.3,0.6-3.7,0.6C238.7,283.4,238.6,283.4,238.5,283.4z M239,279.8c-0.1,0-0.2,0-0.3,0
		c-2.4,0-4,0.6-4.5,1.2c-0.1,0.1-0.2,0.2-0.2,0.3c0,0.6,1.9,1.4,4.8,1.3c1.3,0,2.6-0.2,3.5-0.6c0.9-0.3,1.2-0.7,1.2-0.9
		C243.5,280.6,241.7,279.8,239,279.8z"/>
</g>
<path class="st8" d="M240.4,71.8l4.7,9.5l2.4,4.7l1.2,2.4c0.4,0.9,0.7,1.4,1.3,1.9c1.1,1,2.7,1.2,4.1,0.7c0.7-0.3,1.2-0.7,1.7-1.4
	l1.6-2.1l6.3-8.5l3.2-4.2l0.8-1.1c0.3-0.4,0.6-0.8,1-1.1c0.7-0.6,1.6-1.1,2.6-1.4c0.9-0.3,1.9-0.3,2.9-0.2c0.5,0.1,1,0.2,1.4,0.4
	c0.5,0.2,0.8,0.4,1.2,0.5l4.8,2.2l2.4,1.1c0.8,0.4,1.6,0.7,2.4,0.9c1.6,0.4,3.3,0.3,4.9-0.2c0.8-0.3,1.5-0.6,2.2-1.1
	c0.7-0.4,1.3-1,2-1.6l4.1-3.4l4.1-3.4l1-0.9c0.3-0.3,0.7-0.6,1.1-0.8c0.9-0.5,1.9-0.7,2.9-0.5c1,0.1,1.9,0.7,2.5,1.4
	c0.3,0.4,0.6,0.7,0.8,1.1l0.8,1.1l3,4.3l6.1,8.7l3,4.3c0.5,0.7,1,1.5,1.6,2c0.6,0.6,1.4,1,2.2,1.3c0.8,0.3,1.7,0.3,2.5,0.2
	c0.8-0.1,1.7-0.4,2.5-0.7l5.1-1.4l2.6-0.7c0.8-0.2,1.7-0.4,2.6-0.5c1.8-0.1,3.6,0.2,5.2,1c0.8,0.4,1.6,0.9,2.2,1.5l2.1,1.7l4.1,3.3
	l8.3,6.6l-8.3-6.5l-4.2-3.3c-1.4-1-2.7-2.3-4.3-3c-1.6-0.7-3.4-1.1-5.1-0.9c-0.9,0.1-1.7,0.3-2.6,0.5l-2.5,0.7l-5.1,1.5
	c-0.9,0.2-1.7,0.5-2.6,0.7c-0.9,0.1-1.8,0.1-2.7-0.2c-0.9-0.3-1.7-0.7-2.4-1.4c-0.7-0.6-1.1-1.4-1.7-2.1l-3.1-4.3l-6.2-8.6l-3.1-4.3
	l-0.8-1.1c-0.3-0.4-0.5-0.7-0.8-1c-0.5-0.6-1.3-1-2-1.1c-0.8-0.1-1.6,0-2.3,0.4c-0.6,0.4-1.3,1.1-2,1.6l-4,3.5l-4,3.5
	c-0.7,0.6-1.3,1.2-2.1,1.7c-0.8,0.5-1.6,0.9-2.5,1.2c-1.8,0.6-3.7,0.7-5.5,0.3c-0.9-0.2-1.8-0.6-2.6-0.9l-2.4-1l-4.9-2.1
	c-0.8-0.4-1.6-0.7-2.3-0.8c-0.8-0.1-1.6-0.1-2.3,0.2c-0.8,0.2-1.5,0.6-2,1.1c-0.3,0.2-0.6,0.6-0.8,0.9l-0.8,1.1l-3.1,4.3l-6.2,8.6
	l-1.6,2.1c-0.6,0.8-1.4,1.5-2.4,1.9c-1.9,0.8-4.3,0.5-5.9-0.9c-0.8-0.7-1.4-1.7-1.7-2.4l-1.2-2.4l-2.4-4.7l-4.8-9.4
	c-0.3-0.5-0.1-1.1,0.4-1.3C239.6,71.1,240.2,71.3,240.4,71.8C240.4,71.8,240.4,71.8,240.4,71.8z"/>
<path class="st10" d="M229.1,78.8l0.2,0.3c0.2,0.3,0.6,0.4,0.9,0.2l9.9-5.9c0.3-0.2,0.4-0.6,0.2-0.9l-0.2-0.3
	c-0.2-0.3-0.6-0.4-0.9-0.2l-9.9,5.9C229.1,78,228.9,78.5,229.1,78.8z"/>
<g>
	<path class="st5" d="M249.5,135.6c-0.3-0.2-0.6-0.5-1-0.7c-0.3-0.2-1-0.6-1.5-1c-0.5-0.4-1.1-0.8-1.6-1.2c-1.1-0.8-2.1-1.7-3.1-2.7
		c-2-1.9-3.8-3.9-5.4-6.1c-3.3-4.3-5.7-9.3-6.9-14.7c-1.2-5.4-1-11.1,0.6-16.7c1.1-4,2.4-7.4,4.3-10.9c0,0,0.1,0,0.1,0
		c1,0.2,2.1-1.7,2.4-4.2c0.3-2.5-0.3-4.6-1.3-4.8c-1-0.2-2.1,1.7-2.4,4.2c-0.2,1.8,0,3.4,0.6,4.2c-2.5,3.1-4.5,6.4-6.4,10.5
		c-2.5,5.6-3.9,11.9-3.5,18.3c0.4,6.4,2.3,12.7,5.3,18.4c1.5,2.9,3.3,5.6,5.2,8.1c1,1.3,2,2.5,3.1,3.7c0.6,0.6,1.1,1.2,1.7,1.8
		c0.6,0.6,1.1,1.1,2,1.8l0.3,0.3c2.4,2,6,1.7,8-0.7C252.2,141.3,251.9,137.7,249.5,135.6z"/>
	<path class="st1" d="M245.8,146c-1.4,0-2.8-0.5-3.9-1.4l-0.3-0.3c-0.8-0.7-1.3-1.1-1.8-1.7l-0.1-0.1c-0.6-0.6-1.2-1.2-1.7-1.8
		c-1-1.1-2-2.3-3.1-3.8c-2-2.7-3.8-5.4-5.3-8.2c-3.2-6-5-12.4-5.4-18.6c-0.3-6.3,0.9-12.7,3.6-18.5c1.7-3.8,3.7-7.1,6.3-10.3
		c-0.5-1-0.7-2.5-0.5-4.2c0.2-1.9,0.9-3.5,1.8-4.2c0.3-0.2,0.7-0.3,1-0.3c1.4,0.2,1.9,2.8,1.6,5.2c-0.2,1.9-0.9,3.5-1.8,4.2
		c-0.3,0.2-0.6,0.3-0.9,0.3c-1.8,3.3-3.1,6.6-4.2,10.6c-1.5,5.5-1.7,11.2-0.6,16.5c1.1,5.1,3.4,10,6.9,14.5c1.6,2.1,3.4,4.1,5.4,6
		c1.2,1.1,2.1,1.9,3,2.6c0.5,0.4,1,0.8,1.6,1.2c0.7,0.5,1.2,0.8,1.4,1c0.4,0.2,0.7,0.4,1,0.7c1.2,1,2,2.5,2.1,4.1
		c0.1,1.6-0.4,3.2-1.4,4.4c-1,1.2-2.5,2-4.1,2.1C246.1,146,246,146,245.8,146z M236.1,73.3c-0.1,0-0.2,0.1-0.4,0.2
		c-0.6,0.4-1.3,1.7-1.5,3.7c-0.2,1.6,0,3.2,0.5,4c0.1,0.1,0.1,0.3,0,0.4c-2.6,3.2-4.6,6.5-6.3,10.4c-2.6,5.7-3.8,12-3.5,18.2
		c0.3,6.1,2.2,12.4,5.3,18.3c1.5,2.7,3.2,5.5,5.2,8.1c1.1,1.5,2.1,2.6,3.1,3.7c0.5,0.6,1.1,1.2,1.7,1.8l0.1,0.1c0.6,0.6,1,1,1.8,1.7
		l0.3,0.3c1.1,0.9,2.5,1.4,3.9,1.2c1.4-0.1,2.7-0.8,3.6-1.9c0.9-1.1,1.4-2.5,1.2-3.9c-0.1-1.4-0.8-2.7-1.9-3.6
		c-0.3-0.2-0.6-0.4-0.9-0.6c-0.3-0.2-0.8-0.5-1.5-1c-0.5-0.4-1.1-0.8-1.6-1.2c-0.9-0.7-1.9-1.6-3.1-2.7c-2-1.9-3.9-4-5.5-6.1
		c-3.5-4.6-5.8-9.6-7-14.8c-1.2-5.4-1-11.2,0.6-16.8c1.1-4.1,2.5-7.6,4.4-11c0.1-0.2,0.3-0.2,0.4-0.2c0,0,0.1,0,0.1,0
		c0.1,0,0.2,0,0.4-0.2c0.6-0.4,1.3-1.7,1.5-3.7C237.4,75.3,236.8,73.4,236.1,73.3C236.1,73.3,236.1,73.3,236.1,73.3z"/>
</g>
<g>
	<path class="st1" d="M613.1,284.9H0.4c-0.2,0-0.4-0.2-0.4-0.4c0-0.2,0.2-0.4,0.4-0.4h612.7c0.2,0,0.4,0.2,0.4,0.4
		C613.5,284.7,613.3,284.9,613.1,284.9z"/>
</g>
<g>
	<g>
		<path class="st3" d="M487.4,12.1l13.8,0.3c1.3,0,2.3-1,2.4-2.3c0-1.3-1-2.3-2.3-2.4l-13.8-0.3c-1.3,0-2.3,1-2.4,2.3
			C485.1,11,486.1,12.1,487.4,12.1z"/>
		<path class="st11" d="M501.3,12.8C501.2,12.8,501.2,12.8,501.3,12.8l-13.8-0.3c-1.5,0-2.7-1.3-2.6-2.7c0-1.5,1.2-2.6,2.7-2.6
			c0,0,0,0,0.1,0l13.8,0.3c0.7,0,1.4,0.3,1.9,0.8c0.5,0.5,0.8,1.2,0.8,1.9c0,0.7-0.3,1.4-0.8,1.9C502.6,12.5,502,12.8,501.3,12.8z
			 M487.5,7.8c-1.1,0-1.9,0.8-2,1.9c0,1.1,0.8,2,1.9,2l13.8,0.3c0.5,0,1-0.2,1.4-0.5c0.4-0.4,0.6-0.8,0.6-1.4c0-0.5-0.2-1-0.5-1.4
			c-0.4-0.4-0.8-0.6-1.4-0.6L487.5,7.8C487.5,7.8,487.5,7.8,487.5,7.8z"/>
	</g>
	<g>
		<g>
			<polygon class="st4" points="593.8,31.1 576.8,271.9 583.4,271.9 600.4,31.1 			"/>
			<path class="st11" d="M583.4,272.3h-6.7c-0.1,0-0.2,0-0.3-0.1c-0.1-0.1-0.1-0.2-0.1-0.3l17-240.9c0-0.2,0.2-0.3,0.4-0.3h6.7
				c0.1,0,0.2,0,0.3,0.1c0.1,0.1,0.1,0.2,0.1,0.3l-17,240.9C583.8,272.1,583.6,272.3,583.4,272.3z M577.2,271.6h5.9L600,31.4h-5.9
				L577.2,271.6z"/>
		</g>
		<g>
			<polygon class="st4" points="588.4,31.1 571.5,271.9 574.8,271.9 591.8,31.1 			"/>
			<path class="st11" d="M574.8,272.3h-3.3c-0.1,0-0.2,0-0.3-0.1c-0.1-0.1-0.1-0.2-0.1-0.3l17-240.9c0-0.2,0.2-0.3,0.4-0.3h3.3
				c0.1,0,0.2,0,0.3,0.1c0.1,0.1,0.1,0.2,0.1,0.3l-17,240.9C575.2,272.1,575,272.3,574.8,272.3z M571.9,271.6h2.6l16.9-240.1h-2.6
				L571.9,271.6z"/>
		</g>
	</g>
	<g>
		<g>
			<g>
				<polygon class="st4" points="590.8,32.2 504.9,11 506.5,4.6 591.8,25.6 				"/>
				<path class="st11" d="M590.8,32.6C590.8,32.6,590.7,32.6,590.8,32.6l-86-21.2c-0.2,0-0.3-0.3-0.3-0.5l1.6-6.4
					c0-0.1,0.1-0.2,0.2-0.2c0.1-0.1,0.2-0.1,0.3,0l85.3,21c0.2,0,0.3,0.2,0.3,0.4l-1,6.6c0,0.1-0.1,0.2-0.2,0.3
					C590.9,32.5,590.9,32.6,590.8,32.6z M505.4,10.7l85.1,21l0.9-5.8L506.8,5L505.4,10.7z"/>
			</g>
			<g>
				<polygon class="st4" points="590,37.4 503.5,16.1 504.3,12.9 590.5,34.1 				"/>
				<path class="st11" d="M590,37.8C589.9,37.8,589.9,37.8,590,37.8l-86.6-21.3c-0.2,0-0.3-0.3-0.3-0.5l0.8-3.2
					c0-0.1,0.1-0.2,0.2-0.2c0.1-0.1,0.2-0.1,0.3,0l86.2,21.3c0.2,0,0.3,0.2,0.3,0.4l-0.5,3.3c0,0.1-0.1,0.2-0.2,0.3
					C590.1,37.8,590,37.8,590,37.8z M503.9,15.8L589.7,37l0.4-2.5l-85.5-21.1L503.9,15.8z"/>
			</g>
		</g>
		<g>
			<path class="st3" d="M510.3,11.1c-0.6,3.6-4,6.1-7.6,5.5c-3.6-0.6-6.1-4-5.5-7.6c0.6-3.6,4-6.1,7.6-5.5
				C508.4,4.1,510.8,7.5,510.3,11.1z"/>
			<path class="st11" d="M503.7,17.1c-0.4,0-0.7,0-1.1-0.1c-3.8-0.6-6.4-4.2-5.8-8c0.3-1.8,1.3-3.5,2.8-4.6c1.5-1.1,3.4-1.5,5.2-1.3
				c3.8,0.6,6.4,4.2,5.8,8c-0.3,1.8-1.3,3.5-2.8,4.6C506.6,16.6,505.2,17.1,503.7,17.1z M503.7,3.9c-1.3,0-2.6,0.4-3.7,1.2
				c-1.4,1-2.2,2.4-2.5,4.1c-0.5,3.4,1.8,6.6,5.2,7.1c1.7,0.3,3.3-0.1,4.7-1.1c1.4-1,2.2-2.4,2.5-4.1c0.5-3.4-1.8-6.6-5.2-7.1
				C504.4,3.9,504,3.9,503.7,3.9z"/>
		</g>
		<g>
			<path class="st4" d="M505.4,10.6c-0.2,1-1.1,1.7-2.2,1.6c-1-0.2-1.7-1.1-1.6-2.2c0.2-1,1.1-1.7,2.2-1.6
				C504.9,8.6,505.6,9.6,505.4,10.6z"/>
			<path class="st11" d="M503.6,12.6c-0.1,0-0.2,0-0.4,0c-1.2-0.2-2.1-1.4-1.9-2.6c0.2-1.2,1.3-2.1,2.6-1.9c1.2,0.2,2.1,1.4,1.9,2.6
				C505.6,11.8,504.7,12.6,503.6,12.6z M503.6,8.8c-0.7,0-1.4,0.5-1.5,1.3c-0.1,0.8,0.4,1.6,1.3,1.7c0.8,0.1,1.6-0.4,1.7-1.3
				c0.1-0.8-0.4-1.6-1.3-1.7C503.7,8.8,503.7,8.8,503.6,8.8z"/>
		</g>
	</g>
	<g>
		<g>
			<g>
				<path class="st12" d="M602.9,32.9c0,4.8-3.9,8.7-8.8,8.7c-4.8,0-8.8-3.9-8.8-8.7c0-4.8,3.9-8.7,8.8-8.7
					C599,24.2,602.9,28.1,602.9,32.9z"/>
				<path class="st13" d="M594.1,42.2c-5.1,0-9.3-4.1-9.3-9.2c0-5.1,4.2-9.2,9.3-9.2c5.1,0,9.3,4.1,9.3,9.2
					C603.4,38,599.2,42.2,594.1,42.2z M594.1,24.7c-4.6,0-8.3,3.7-8.3,8.2s3.7,8.2,8.3,8.2c4.6,0,8.3-3.7,8.3-8.2
					S598.7,24.7,594.1,24.7z"/>
			</g>
		</g>
		<path class="st4" d="M596.5,33.2c0,1.4-1.1,2.5-2.5,2.5s-2.5-1.1-2.5-2.5c0-1.4,1.1-2.5,2.5-2.5S596.5,31.9,596.5,33.2z"/>
		<path class="st11" d="M594,36.1c-1.6,0-2.9-1.3-2.9-2.9c0-1.6,1.3-2.9,2.9-2.9c1.6,0,2.9,1.3,2.9,2.9
			C596.9,34.8,595.6,36.1,594,36.1z M594,31.1c-1.2,0-2.1,0.9-2.1,2.1c0,1.2,0.9,2.1,2.1,2.1s2.1-0.9,2.1-2.1
			C596.1,32.1,595.2,31.1,594,31.1z"/>
	</g>
	<g>
		<path class="st2" d="M572.5,284h-21.4c-1.3,0-2.3-1-2.3-2.3v-8.4c0-1.3,1-2.3,2.3-2.3h21.4c1.3,0,2.3,1,2.3,2.3v8.4
			C574.8,282.9,573.8,284,572.5,284z"/>
		<path class="st11" d="M572.5,284.3h-21.4c-1.5,0-2.7-1.2-2.7-2.7v-8.4c0-1.5,1.2-2.7,2.7-2.7h21.4c1.5,0,2.7,1.2,2.7,2.7v8.4
			C575.2,283.1,574,284.3,572.5,284.3z M551.1,271.3c-1.1,0-2,0.9-2,1.9v8.4c0,1.1,0.9,1.9,2,1.9h21.4c1.1,0,2-0.9,2-1.9v-8.4
			c0-1.1-0.9-1.9-2-1.9H551.1z"/>
	</g>
	<g>
		<path class="st4" d="M604.6,284h-33.7c-1.3,0-2.3-1-2.3-2.3v-8.4c0-1.3,1-2.3,2.3-2.3h33.7c1.3,0,2.3,1,2.3,2.3v8.4
			C607,282.9,605.9,284,604.6,284z"/>
		<path class="st11" d="M604.6,284.3h-33.7c-1.5,0-2.7-1.2-2.7-2.7v-8.4c0-1.5,1.2-2.7,2.7-2.7h33.7c1.5,0,2.7,1.2,2.7,2.7v8.4
			C607.3,283.1,606.1,284.3,604.6,284.3z M570.9,271.3c-1.1,0-2,0.9-2,1.9v8.4c0,1.1,0.9,1.9,2,1.9h33.7c1.1,0,2-0.9,2-1.9v-8.4
			c0-1.1-0.9-1.9-2-1.9H570.9z"/>
	</g>
</g>
<g>
	<g>
		<g>
			<path class="st1" d="M173.5,152.1c-0.2,0-0.4-0.2-0.4-0.4c0-0.2,0.2-0.4,0.4-0.4c0.2,0,0.4,0.2,0.4,0.4
				C173.9,151.9,173.7,152.1,173.5,152.1z"/>
			<path class="st1" d="M173.5,154.1c-0.2,0-0.4-0.2-0.4-0.4c0-0.2,0.2-0.4,0.4-0.4c0.2,0,0.4,0.2,0.4,0.4
				C173.9,153.9,173.7,154.1,173.5,154.1z"/>
			<path class="st1" d="M173.4,156.2c-0.2,0-0.4-0.2-0.4-0.4c0-0.2,0.2-0.4,0.4-0.4c0.2,0,0.4,0.2,0.4,0.4
				C173.8,156,173.7,156.2,173.4,156.2z"/>
			
				<ellipse transform="matrix(2.853615e-03 -1 1 2.853615e-03 15.0842 330.8399)" class="st1" cx="173.4" cy="157.9" rx="0.4" ry="0.4"/>
			<path class="st1" d="M173.4,160.3c-0.2,0-0.4-0.2-0.4-0.4c0-0.2,0.2-0.4,0.4-0.4c0.2,0,0.4,0.2,0.4,0.4
				C173.8,160.1,173.6,160.3,173.4,160.3z"/>
			<path class="st1" d="M173.4,162.4c-0.2,0-0.4-0.2-0.4-0.4c0-0.2,0.2-0.4,0.4-0.4c0.2,0,0.4,0.2,0.4,0.4
				C173.8,162.2,173.6,162.4,173.4,162.4z"/>
			<path class="st1" d="M173.4,164.5c-0.2,0-0.4-0.2-0.4-0.4c0-0.2,0.2-0.4,0.4-0.4c0.2,0,0.4,0.2,0.4,0.4
				C173.8,164.3,173.6,164.5,173.4,164.5z"/>
			<path class="st1" d="M173.4,166.5c-0.2,0-0.4-0.2-0.4-0.4c0-0.2,0.2-0.4,0.4-0.4c0.2,0,0.4,0.2,0.4,0.4
				C173.8,166.3,173.6,166.5,173.4,166.5z"/>
			<path class="st1" d="M173.4,168.6c-0.2,0-0.4-0.2-0.4-0.4c0-0.2,0.2-0.4,0.4-0.4c0.2,0,0.4,0.2,0.4,0.4
				C173.8,168.4,173.6,168.6,173.4,168.6z"/>
			<path class="st1" d="M173.4,170.7c-0.2,0-0.4-0.2-0.4-0.4c0-0.2,0.2-0.4,0.4-0.4c0.2,0,0.4,0.2,0.4,0.4
				C173.8,170.5,173.6,170.7,173.4,170.7z"/>
		</g>
	</g>
	
		<rect x="166.4" y="148.8" transform="matrix(4.655868e-03 -1 1 4.655868e-03 14.2196 318.1484)" class="st1" width="1" height="6.4"/>
	
		<rect x="166.4" y="150.7" transform="matrix(4.671523e-03 -1 1 4.671523e-03 12.259 320.0765)" class="st1" width="1" height="6.4"/>
	<rect x="164.8" y="153" transform="matrix(4.667406e-03 -1 1 4.667406e-03 6.7283 322.2993)" class="st1" width="1" height="9.6"/>
	
		<rect x="163.7" y="157.6" transform="matrix(4.713617e-03 -1 1 4.713617e-03 2.0796 324.7924)" class="st1" width="1" height="7.5"/>
	
		<rect x="161.1" y="150.8" transform="matrix(4.613330e-03 -1 1 4.613330e-03 8.966 312.8203)" class="st1" width="1" height="2.3"/>
	
		<rect x="161.1" y="152.7" transform="matrix(4.713617e-03 -1 1 4.713617e-03 6.9919 314.7355)" class="st1" width="1" height="2.3"/>
	
		<rect x="161.5" y="166" transform="matrix(4.714090e-03 -1 1 4.714090e-03 -6.3322 328.8401)" class="st1" width="1" height="3.2"/>
	
		<rect x="161.5" y="167.9" transform="matrix(4.612867e-03 -1 1 4.612867e-03 -8.2735 330.7876)" class="st1" width="1" height="3.2"/>
</g>
<g>
	<g>
		<path class="st2" d="M166.7,195.7c-18.3,0-33.2-14.8-33.2-33.1c0-18.2,14.9-33.1,33.2-33.1c0.1,0,0.3,0,0.4,0v-15.8
			c-0.1,0-0.3,0-0.4,0c-27,0-49,21.9-49,48.9c0,27,22,48.9,49,48.9c0.1,0,0.3,0,0.4,0v-15.8C167,195.6,166.8,195.7,166.7,195.7z"/>
		<path class="st1" d="M166.7,211.8c-27.3,0-49.4-22.1-49.4-49.3c0-27.2,22.2-49.3,49.4-49.3l0.4,0c0.2,0,0.4,0.2,0.4,0.4v15.8
			c0,0.1,0,0.2-0.1,0.3c-0.1,0.1-0.2,0.1-0.3,0.1c-0.1,0-0.1,0-0.2,0c-0.1,0-0.1,0-0.2,0c-18.1,0-32.8,14.7-32.8,32.7
			c0,18,14.7,32.7,32.8,32.7c0.1,0,0.1,0,0.2,0c0.1,0,0.1,0,0.2,0c0.1,0,0.2,0,0.3,0.1c0.1,0.1,0.1,0.2,0.1,0.3v15.8
			c0,0.2-0.2,0.4-0.4,0.4L166.7,211.8z M166.7,114c-26.8,0-48.7,21.8-48.7,48.5c0,26.8,21.8,48.5,48.7,48.5c0,0,0-15.1,0-15.1
			c-18.5,0-33.6-15-33.6-33.5c0-18.5,15.1-33.5,33.6-33.5C166.7,129.1,166.7,114,166.7,114z"/>
	</g>
	<g>
		<path class="st8" d="M166.4,113.7v15.8c18,0.2,32.6,14.8,32.8,32.8l15.9,0.2C215,135.7,193.2,113.9,166.4,113.7z"/>
		<path d="M215.6,162.9l-16.9-0.2l0-0.5c-0.2-17.6-14.7-32.1-32.3-32.3l-0.5,0v-16.8l0.5,0c27,0.2,49.1,22.3,49.2,49.3L215.6,162.9z
			 M199.7,161.8l14.9,0.2c-0.3-26-21.6-47.3-47.7-47.7V129C184.7,129.5,199.3,144,199.7,161.8z"/>
	</g>
	<g>
		<path class="st0" d="M199.2,162.2c0,0.1,0,0.2,0,0.3c0,18.1-14.7,32.9-32.8,33.1v15.8c26.9-0.2,48.7-22.1,48.7-48.9
			c0,0,0-0.1,0-0.1L199.2,162.2z"/>
		<path class="st1" d="M166.5,211.8c-0.1,0-0.2,0-0.3-0.1c-0.1-0.1-0.1-0.2-0.1-0.3v-15.8c0-0.2,0.2-0.4,0.4-0.4
			c17.9-0.2,32.4-14.9,32.4-32.7c0,0,0-0.1,0-0.1c0-0.1,0-0.1,0-0.2c0-0.1,0-0.2,0.1-0.3c0.1-0.1,0.2-0.1,0.3-0.1l15.9,0.2
			c0.2,0,0.4,0.2,0.4,0.4l0,0.1C215.5,189.5,193.5,211.6,166.5,211.8C166.5,211.8,166.5,211.8,166.5,211.8z M166.8,196v15.1
			c26.4-0.4,47.8-22,47.9-48.3l-15.1-0.2C199.6,180.7,184.9,195.6,166.8,196z"/>
	</g>
</g>
<g>
	<path class="st1" d="M133.5,282.8c0,1,2.3,1.7,5.2,1.7c2.8-0.1,5.1-0.9,5.1-1.9c0-1-2.3-1.7-5.2-1.7
		C135.8,281,133.5,281.8,133.5,282.8z"/>
	<path class="st1" d="M138.4,284.8c-2.6,0-5.2-0.7-5.2-2.1c0-0.5,0.3-1.1,1.7-1.6c1-0.4,2.3-0.6,3.7-0.6c2.7-0.1,5.5,0.6,5.5,2
		c0,0.5-0.3,1.1-1.7,1.6c-1,0.4-2.3,0.6-3.7,0.6C138.6,284.8,138.5,284.8,138.4,284.8z M138.9,281.3c-0.1,0-0.2,0-0.3,0
		c-1.3,0-2.6,0.2-3.5,0.6c-0.9,0.3-1.2,0.7-1.2,0.9c0,0.6,1.9,1.4,4.8,1.3c1.3,0,2.6-0.2,3.5-0.6c0.9-0.3,1.2-0.7,1.2-0.9
		C143.4,282,141.6,281.3,138.9,281.3z"/>
</g>
<g>
	<path class="st1" d="M83.2,282.9c0,1,2.3,1.7,5.2,1.7c2.8-0.1,5.1-0.9,5.1-1.9c0-1-2.3-1.7-5.2-1.7
		C85.4,281.1,83.2,281.9,83.2,282.9z"/>
	<path class="st1" d="M88.1,285c-2.6,0-5.2-0.7-5.2-2.1c0-0.5,0.3-1.1,1.7-1.6c1-0.4,2.3-0.6,3.7-0.6c2.7-0.1,5.5,0.6,5.5,2
		c0,0.3-0.1,0.6-0.4,0.9c-0.8,0.8-2.8,1.4-5.1,1.4C88.2,285,88.2,285,88.1,285z M88.6,281.4c-0.1,0-0.2,0-0.3,0
		c-1.3,0-2.6,0.2-3.5,0.6c-0.9,0.3-1.2,0.7-1.2,0.9c0,0.6,1.9,1.4,4.8,1.3c2.4,0,4-0.6,4.5-1.2c0.1-0.1,0.2-0.2,0.2-0.3
		C93,282.2,91.3,281.4,88.6,281.4z"/>
</g>
<g>
	<path class="st5" d="M146,116.4c-1.9,0.2-3.4,0.8-4,1.5c-3.2,0.8-6.3,1.8-9.3,3c-2.9,1.1-5.8,2.2-8.6,3.4l-2.1,0.9
		c-0.7,0.4-1.5,0.7-2.3,1.2c-1.5,0.9-2.9,2-4.1,3.2c-1.2,1.2-2.3,2.7-3.2,4.2c-0.9,1.5-1.6,3.2-2.1,5c-0.5,1.7-0.8,3.6-0.8,5.4
		c0,0.9,0,1.7,0.1,2.6l7.8-2.2c-0.1-0.2-0.1-0.5-0.1-0.7c-0.2-1.2-0.2-2.4-0.1-3.6c0.1-1.2,0.4-2.4,0.9-3.6c0.4-1.2,1-2.3,1.8-3.4
		c0.7-1,1.6-2,2.6-2.9c0.5-0.5,1-0.8,1.6-1.2l1.9-1.2c2.5-1.6,5.1-3.1,7.8-4.6c2.7-1.5,5.5-2.9,8.3-4.2c0.7,0.6,2.4,1,4.3,0.8
		c2.5-0.2,4.4-1.2,4.3-2.2C150.6,116.8,148.5,116.2,146,116.4z"/>
	<path class="st1" d="M109.7,147.2c-0.1,0-0.2,0-0.2-0.1c-0.1-0.1-0.2-0.2-0.2-0.3l0-0.2c-0.1-0.8-0.1-1.6-0.1-2.4
		c0-1.8,0.3-3.6,0.8-5.5c0.5-1.8,1.2-3.5,2.1-5.1c0.9-1.6,2-3.1,3.3-4.3c1.3-1.4,2.7-2.5,4.2-3.3c0.6-0.4,1.2-0.7,1.8-1l0.5-0.2
		l2.1-0.9c2.9-1.2,5.8-2.4,8.6-3.4c3.2-1.1,6.3-2.1,9.3-2.9c0.7-0.8,2.3-1.4,4.2-1.5c2.4-0.2,4.9,0.4,5.1,1.8c0,0.3-0.1,0.7-0.3,1
		c-0.7,0.8-2.3,1.5-4.3,1.6c-1.8,0.2-3.5-0.1-4.4-0.8c-2.7,1.2-5.4,2.6-8.1,4c-2.6,1.4-5.2,3-7.8,4.6l-2.3,1.5
		c-0.4,0.3-0.8,0.5-1.1,0.9c-0.9,0.7-1.8,1.7-2.6,2.8c-0.7,0.9-1.3,2-1.7,3.3c-0.4,1.1-0.7,2.3-0.9,3.5c-0.1,1.2-0.1,2.4,0.1,3.5
		c0,0.3,0.1,0.5,0.1,0.7c0,0.2-0.1,0.4-0.3,0.4l-7.8,2.2C109.7,147.2,109.7,147.2,109.7,147.2z M146.1,116.8c-2,0.2-3.3,0.8-3.7,1.3
		c0,0.1-0.1,0.1-0.2,0.1c-3,0.8-6.1,1.8-9.3,3c-2.8,1-5.7,2.2-8.6,3.4l-2.6,1.2c-0.6,0.3-1.2,0.6-1.8,0.9c-1.4,0.8-2.7,1.9-4,3.2
		c-1.2,1.2-2.2,2.6-3.1,4.1c-0.9,1.5-1.6,3.2-2,4.9c-0.5,1.8-0.8,3.6-0.8,5.3c0,0.7,0,1.4,0.1,2.1l7-2c0-0.1,0-0.3-0.1-0.4
		c-0.2-1.1-0.2-2.4-0.1-3.7c0.1-1.3,0.4-2.5,0.9-3.7c0.5-1.3,1.1-2.4,1.8-3.4c0.9-1.2,1.7-2.2,2.7-2.9c0.4-0.3,0.8-0.6,1.2-0.9
		l0.4-0.3l1.9-1.2c2.6-1.6,5.2-3.2,7.8-4.6c2.8-1.5,5.6-2.9,8.3-4.2c0.1-0.1,0.3,0,0.4,0.1c0.6,0.5,2.1,0.9,4.1,0.7
		c2-0.2,3.3-0.8,3.7-1.4c0.1-0.2,0.2-0.3,0.2-0.4C150.3,117.2,148.4,116.6,146.1,116.8L146.1,116.8z"/>
</g>
<g>
	<path class="st8" d="M101.5,228l21.5,8.8l5.4,2.2c1,0.3,2.1,0.8,3,1.5c1.9,1.4,3.3,3.7,3.8,6.3c0.3,1.1,0.1,3.3,0.1,5.2l-0.1,5.8
		l-0.2,11.5l-0.2,13.3c0,1.3,1.8,1.5,2.1,0.3l3.1-12.9l2.7-11.2l1.3-5.6l0.7-2.8c0.2-0.8,0.5-2.2,0.6-3.4c0.6-5-0.7-10.4-3.7-14.8
		c-1.5-2.2-3.5-4.2-5.7-5.8l-4.6-3.6l-18-13.9c-4.8-3.7-11.8-3.3-15.8,1.2c-4.4,5-3.6,12.5,1.5,16.5
		C99.7,227.1,100.6,227.6,101.5,228z"/>
	<path d="M135.8,284.1c-0.1,0-0.1,0-0.2,0c-0.8-0.1-1.4-0.7-1.4-1.6l0.5-30.6c0-0.5,0-1,0-1.6c0-1.4,0.1-2.8-0.1-3.5
		c-0.4-2.4-1.8-4.6-3.6-6c-0.9-0.7-1.8-1.1-2.8-1.4l-26.9-11c-1-0.4-2-1-2.8-1.6c-2.6-2-4.3-5-4.6-8.3c-0.3-3.3,0.7-6.5,3-9
		c4.1-4.7,11.4-5.2,16.5-1.3l22.6,17.5c2.3,1.6,4.3,3.6,5.8,6c3,4.5,4.4,10,3.8,15.2c-0.1,1.1-0.4,2.2-0.6,3.1l-2.1,8.8l-5.8,24.1
		C137.1,283.7,136.5,284.1,135.8,284.1z M101.7,227.6l26.8,10.9c1.1,0.3,2.1,0.9,3.1,1.6c2.1,1.6,3.5,4,4,6.6
		c0.2,0.8,0.2,2.2,0.1,3.7c0,0.5,0,1.1,0,1.6l-0.5,30.6c0,0.5,0.4,0.6,0.5,0.6c0.1,0,0.5,0,0.6-0.4l7.8-32.9c0.2-0.8,0.5-1.9,0.5-3
		c0.6-4.9-0.7-10.2-3.6-14.5c-1.5-2.2-3.4-4.1-5.6-5.7l-22.6-17.5c-4.7-3.6-11.4-3.1-15.1,1.1c-2,2.3-3,5.2-2.7,8.2
		c0.3,3,1.8,5.7,4.2,7.6C99.9,226.7,100.8,227.2,101.7,227.6z"/>
</g>
<path class="st8" d="M83.6,213.9l10.7,20.6l5.3,10.3l1.3,2.5c0.4,0.6,0.7,1.2,1,1.8c0.5,1.2,0.8,2.2,0.9,3.2c0.1,1,0,1.8-0.7,3
	l-3.2,4.8l-6.4,9.6l-7.8,11.6c-0.8,1.1,0.7,2.4,1.7,1.5l10.5-9.4l8.7-7.8l4.3-3.9c1.9-1.7,3.6-4.4,4.3-7.2c0.8-2.8,0.8-5.7,0.5-8.2
	c-0.2-1.3-0.4-2.5-0.7-3.7l-0.7-2.9l-2.9-11.2l-5.7-22.5c-1.5-6.1-7.7-9.7-13.8-8.2c-6.1,1.5-9.8,7.7-8.2,13.8
	C82.9,212.4,83.2,213.2,83.6,213.9z"/>
<path d="M85.6,283.7c-0.4,0-0.8-0.1-1.1-0.4c-0.6-0.6-0.8-1.4-0.3-2.2l17.5-26.1c0.6-1.1,0.6-1.9,0.6-2.7c-0.1-0.9-0.4-1.9-0.9-3
	c-0.2-0.5-0.5-1.1-0.9-1.8l-6.6-12.8l-10.7-20.6c-0.4-0.8-0.7-1.7-1-2.5c-1.6-6.3,2.2-12.8,8.6-14.4c3.1-0.8,6.3-0.3,9,1.3
	c2.7,1.6,4.7,4.2,5.4,7.3l9.3,36.6c0.3,1.2,0.5,2.4,0.7,3.8c0.4,3.1,0.2,5.9-0.5,8.4c-0.8,2.8-2.4,5.6-4.5,7.5l-23.5,21.1
	C86.4,283.5,86,283.7,85.6,283.7z M84,213.7l17.3,33.4c0.4,0.7,0.7,1.4,1,1.8c0.6,1.2,0.9,2.3,1,3.3c0.1,1,0,2-0.7,3.3l-17.5,26.1
	c-0.3,0.5,0,0.8,0.1,0.8c0.1,0.1,0.5,0.4,0.9,0l23.5-21.1c1.9-1.8,3.5-4.4,4.2-7c0.7-2.4,0.9-5.1,0.5-8.1c-0.2-1.3-0.4-2.5-0.7-3.6
	l-9.3-36.6c-0.7-2.8-2.5-5.2-5-6.7c-2.5-1.5-5.4-1.9-8.2-1.2c-5.8,1.5-9.3,7.4-7.9,13.2C83.4,212.2,83.7,213,84,213.7z"/>
<g>
	<path class="st5" d="M166.3,210.1c-1.6-0.3-3-0.2-3.9,0.1c-2-0.5-3.9-1-5.9-1.6c-3.3-1-6.6-2-10-3.1l-5-1.6l-2.6-0.7l-1.3-0.3
		c-0.4-0.1-0.9-0.2-1.2-0.3c-2.6-0.8-4.6-2.8-5.4-5.1c-0.1-0.3-0.2-0.6-0.3-0.9l-0.2-1.1L130,193c-0.2-1-0.4-1.9-0.5-2.9l-7.9,1.9
		c0.3,1,0.7,2,1,3l0.9,2.5l0.2,0.6l0.3,0.8c0.2,0.5,0.5,1,0.7,1.5c2.2,3.9,6.2,6.7,10.4,7.4c0.6,0.1,1,0.1,1.4,0.2l1.3,0.2l2.5,0.4
		l5.1,0.9c3.4,0.6,6.9,1.2,10.4,1.8c2,0.3,4.1,0.6,6.1,0.8c0.7,0.7,2,1.3,3.7,1.6c2.4,0.5,4.6,0,4.7-1
		C170.6,211.8,168.8,210.6,166.3,210.1z"/>
	<path class="st1" d="M167.7,214.3c-0.6,0-1.3-0.1-2-0.2c-1.6-0.3-3-0.9-3.8-1.6c-1.9-0.2-4-0.5-6-0.8c-3.2-0.5-6.4-1.1-9.6-1.6
		l-5.9-1l-4-0.6c-0.3,0-0.7-0.1-1.1-0.2c-4.5-0.7-8.4-3.6-10.7-7.6c-0.3-0.5-0.6-1.1-0.8-1.5l-0.6-1.4l-0.9-2.5
		c-0.3-0.8-0.5-1.6-0.8-2.3l-0.2-0.7c0-0.1,0-0.2,0-0.3c0.1-0.1,0.1-0.2,0.2-0.2l7.9-1.9c0.1,0,0.2,0,0.3,0c0.1,0.1,0.1,0.1,0.2,0.2
		l0.1,0.7c0.1,0.7,0.3,1.4,0.4,2.1l0.8,3.7c0.1,0.2,0.1,0.5,0.2,0.7c0.8,2.3,2.8,4.2,5.2,4.9c0.3,0.1,0.7,0.2,1,0.3l1.4,0.4l2.6,0.7
		l5.8,1.8c3,0.9,6.1,1.9,9.2,2.8c2,0.6,3.9,1.1,5.8,1.5c1-0.4,2.4-0.4,4-0.1c2.3,0.4,4.7,1.7,4.5,3.1c-0.1,0.3-0.3,0.6-0.6,0.9
		C169.7,214.1,168.8,214.3,167.7,214.3z M122.1,192.3l0.1,0.3c0.3,0.8,0.5,1.6,0.8,2.3l1.5,3.9c0.2,0.5,0.4,1,0.7,1.5
		c2.1,3.8,6,6.5,10.2,7.2c0.5,0.1,0.8,0.1,1.1,0.2l1.5,0.2l2.6,0.4l5.9,1c3.1,0.6,6.4,1.1,9.6,1.6c2.1,0.3,4.1,0.6,6.1,0.8
		c0.1,0,0.2,0,0.2,0.1c0.7,0.7,2,1.2,3.5,1.5c1.9,0.4,3.4,0.1,4-0.3c0.2-0.1,0.3-0.2,0.3-0.4c0.1-0.7-1.5-1.8-3.9-2.3
		c-1.4-0.3-2.8-0.2-3.6,0.1c-0.1,0-0.2,0-0.2,0c-1.9-0.5-3.9-1-5.9-1.6c-3.1-0.9-6.2-1.9-9.2-2.8l-5.8-1.8l-4-1.1
		c-0.4-0.1-0.8-0.2-1.1-0.3c-2.6-0.8-4.7-2.9-5.7-5.4c-0.1-0.2-0.2-0.5-0.3-0.8l0-0.1l-0.8-3.6c-0.1-0.7-0.3-1.4-0.4-2.1l-0.1-0.4
		L122.1,192.3z"/>
</g>
<g>
	<path class="st14" d="M83.4,203.5c2-16.5,14.2-31.4,30.6-38.8c-1.8-5.1-3-10.1-3.9-15.1c-0.1-0.4-0.1-0.7-0.2-1.2l-0.2-1.4
		c0-0.1,0-0.1,0-0.2l7.8-2.2c0.1,0.3,0.2,0.7,0.2,1l0.3,0.8c0.1,0.3,0.2,0.7,0.3,1c1.7,4.8,3.6,9.4,5.9,13.5
		c2.3-0.5,4.4-0.7,5.4,0.4c1.3,1.5-0.3,4.2-2,6.4c0,0.2,0,0.5,0,0.7c-0.2,3-0.2,6.3,0.1,9.5c0.3,3.3,0.8,6.6,1.3,10
		c0.1,0.7,0.3,1.4,0.4,2.2l-7.9,1.9c-0.2-0.7-0.5-1.3-0.7-2c-0.8-2.6-1.6-5.2-2.3-7.9c-2.7,6.1-4.1,12.6-3.9,19.4
		c0.1,3.7,0.6,7.7-1.6,10.8c-2,2.8-5.6,4.2-9.2,5c-6.6,1.6-15,1.4-18.8-3.8C83,210.7,83,207,83.4,203.5z"/>
	<path class="st1" d="M96.8,218.6c-4.7,0-9.3-1.3-11.9-4.8c-2.4-3.3-2.2-7.5-1.9-10.4c1.9-16.1,13.9-31.4,30.5-38.9
		c-1.5-4.3-2.7-8.9-3.8-14.8l-0.1-0.4c0-0.2-0.1-0.5-0.1-0.8l-0.2-1.6c0-0.2,0.1-0.3,0.3-0.4l7.8-2.2c0.1,0,0.2,0,0.3,0
		c0.1,0.1,0.2,0.1,0.2,0.2l0.2,1l0.3,0.8c0.1,0.2,0.1,0.4,0.2,0.6l0.1,0.4c1.9,5.3,3.7,9.6,5.8,13.2c2.8-0.6,4.6-0.4,5.5,0.6
		c1.5,1.8-0.4,4.7-1.9,6.7c0,0.2,0,0.4,0,0.6c-0.2,2.7-0.2,5.9,0.1,9.5c0.3,2.9,0.7,6.1,1.3,9.9c0.1,0.4,0.2,0.9,0.3,1.3l0.2,0.8
		c0,0.2-0.1,0.4-0.3,0.4l-7.9,1.9c-0.2,0-0.4-0.1-0.4-0.2l-0.3-0.8c-0.1-0.4-0.3-0.8-0.4-1.2c-0.8-2.5-1.5-4.8-2-6.9
		c-2.5,6-3.6,12.1-3.4,18.2c0,0.4,0,0.9,0,1.3c0.1,3.4,0.3,6.9-1.7,9.7c-2.2,3.1-6.4,4.5-9.4,5.2C101.7,218.3,99.2,218.6,96.8,218.6
		z M110.1,147.1l0.2,1.3c0,0.3,0.1,0.5,0.1,0.8l0.1,0.4c1.1,6,2.3,10.7,3.9,15.1c0.1,0.2,0,0.4-0.2,0.5
		c-16.6,7.4-28.5,22.5-30.4,38.5c-0.3,2.8-0.5,6.8,1.7,9.9c3.7,5.1,11.9,5.2,18.4,3.6c4.5-1.1,7.4-2.7,9-4.9c1.9-2.7,1.7-6,1.6-9.3
		c0-0.4,0-0.9,0-1.3c-0.2-6.5,1.1-13.1,3.9-19.5c0.1-0.1,0.2-0.2,0.4-0.2c0.2,0,0.3,0.1,0.3,0.3c0.6,2.4,1.4,5,2.3,7.9
		c0.1,0.4,0.3,0.8,0.4,1.2l0.2,0.5l7.2-1.7l-0.1-0.5c-0.1-0.4-0.2-0.9-0.3-1.3c-0.7-3.9-1.1-7.1-1.4-10c-0.3-3.6-0.4-6.8-0.1-9.6
		c0-0.2,0-0.3,0-0.5l0-0.2c0-0.1,0-0.2,0.1-0.2c2.2-2.9,2.9-4.8,2-5.9c-0.7-0.8-2.4-0.9-5-0.3c-0.2,0-0.3,0-0.4-0.2
		c-2.1-3.7-4-8.2-6-13.6l-0.1-0.4c-0.1-0.2-0.2-0.5-0.2-0.7l-0.4-1.5L110.1,147.1z"/>
</g>
<g>
	<path class="st5" d="M131.5,148l-0.1-0.1l-5.4-1.6c-0.9,0.8-1.4,2.1-1.4,3.5l0.1,3.6c0,0.4,0.1,0.8,0.2,1.2l1,7.4
		c0.1,0.5,0.4,0.8,0.7,0.8l2.4-0.1c0.3,0,0.6-0.4,0.5-0.8l-0.5-4.1c1.4-0.2,2.7-1.3,3.1-2.8C133,151.1,131.6,148.8,131.5,148z"/>
	<path class="st1" d="M126.6,163.2c-0.5,0-1-0.5-1.1-1.1l-1-7.4c-0.1-0.4-0.2-0.8-0.2-1.2l-0.1-3.6c0-1.5,0.5-2.9,1.5-3.8
		c0.1-0.1,0.2-0.1,0.4-0.1l5.4,1.6c0.1,0,0.2,0.1,0.2,0.2l0.1,0.1c0,0,0,0.1,0,0.1c0,0.1,0.1,0.3,0.2,0.6c0.4,1.2,1.2,3.3,0.4,6.6
		c-0.4,1.5-1.6,2.7-3,3l0.5,3.8c0,0.4,0,0.7-0.3,1c-0.2,0.2-0.4,0.3-0.6,0.3L126.6,163.2C126.6,163.2,126.6,163.2,126.6,163.2z
		 M126.1,146.7c-0.7,0.8-1.1,1.9-1.1,3.1l0.1,3.6c0,0.3,0.1,0.7,0.2,1.1l1,7.5c0,0.3,0.3,0.5,0.3,0.5l2.4-0.1
		c0.1-0.1,0.2-0.2,0.1-0.4l-0.5-4.1c0-0.2,0.1-0.4,0.3-0.4c1.3-0.2,2.4-1.2,2.7-2.5c0.8-3.1,0.1-5.1-0.3-6.1
		c-0.1-0.2-0.2-0.5-0.2-0.6L126.1,146.7z"/>
</g>
<g>
	<path class="st0" d="M131.2,146.1l-2.2-1.6c-0.7-0.5-1.5-0.6-2.4-0.4l-6.2,1.8c-0.7,0.2-1.1,1.1-0.6,1.8l4,5.9
		c1.1,2,1.9,2.7,3.5,2.4c1.6-0.3,3.5-2.5,3.7-4.4l-0.2-0.7C130.8,150.9,131.9,148.7,131.2,146.1z"/>
	<path class="st1" d="M126.6,156.4c-1.4,0-2.2-0.9-3.1-2.7l-4-5.8c-0.3-0.4-0.3-0.9-0.2-1.4c0.2-0.5,0.5-0.8,1-1l6.2-1.8
		c0.9-0.3,1.9-0.1,2.7,0.5l2.2,1.6c0.1,0,0.1,0.1,0.1,0.2c0.7,2.4-0.1,4.4-0.3,5l0.2,0.6c0,0,0,0.1,0,0.1c-0.2,2-2.2,4.4-4,4.7
		C127.1,156.4,126.9,156.4,126.6,156.4z M127.5,144.4c-0.2,0-0.4,0-0.7,0.1l-6.2,1.8c-0.2,0.1-0.4,0.3-0.5,0.5
		c-0.1,0.2-0.1,0.5,0.1,0.7l4,5.9c1.1,2,1.7,2.5,3.1,2.2c1.3-0.2,3.2-2.2,3.4-4l-0.2-0.6c0-0.1,0-0.2,0-0.3c0,0,1-2,0.4-4.4
		l-2.1-1.5C128.4,144.5,127.9,144.4,127.5,144.4z"/>
</g>
<g>
	<g>
		<path class="st5" d="M131,150.9c0.6,0,0.9,0.5,1,1.3c0.1,0.8-0.1,1.4-0.7,1.5c-0.6,0-1.2-0.5-1.3-1.3
			C129.9,151.6,130.4,150.9,131,150.9z"/>
		<path class="st1" d="M131.2,154c-0.8,0-1.5-0.7-1.6-1.6c0-0.5,0.1-1,0.4-1.4c0.3-0.3,0.6-0.5,1-0.5c0.5,0,1.2,0.1,1.4,1.6
			c0.1,0.7-0.1,1.2-0.3,1.5c-0.2,0.2-0.4,0.3-0.7,0.4C131.2,154,131.2,154,131.2,154z M131,151.2c-0.2,0-0.4,0.1-0.5,0.2
			c-0.2,0.2-0.3,0.5-0.2,0.8c0,0.6,0.4,1,0.9,0.9c0.1,0,0.2-0.1,0.2-0.1c0.1-0.2,0.2-0.5,0.2-1C131.5,151.2,131.2,151.2,131,151.2
			L131,151.2z"/>
	</g>
</g>
<g>
	<path class="st0" d="M483.5,0.4H340.8c-6,0-10.9,5.6-10.9,12.5v6.9h164.5v-6.9C494.4,6,489.5,0.4,483.5,0.4z"/>
	<path class="st1" d="M494.4,20.2H329.9c-0.2,0-0.4-0.2-0.4-0.4v-6.9c0-7.1,5.1-12.8,11.3-12.8h142.8c6.2,0,11.3,5.8,11.3,12.8v6.9
		C494.8,20,494.6,20.2,494.4,20.2z M330.2,19.4H494v-6.6c0-6.7-4.7-12.1-10.5-12.1H340.8c-5.8,0-10.5,5.4-10.5,12.1V19.4z"/>
</g>
<g>
	<path class="st1" d="M295.8,281.7c0,1-2.3,1.7-5.2,1.7c-2.8-0.1-5.1-0.9-5.1-1.9c0-1,2.3-1.7,5.2-1.7
		C293.6,279.8,295.8,280.7,295.8,281.7z"/>
	<path class="st1" d="M291,283.7c-0.1,0-0.2,0-0.3,0c-1.4,0-2.7-0.2-3.7-0.6c-1.4-0.5-1.7-1.2-1.7-1.6c0-1.4,2.8-2.1,5.5-2
		c2.3,0,4.3,0.6,5.1,1.4c0.3,0.3,0.4,0.6,0.4,0.9C296.2,283,293.6,283.7,291,283.7z M290.5,280.1c-2.7,0-4.5,0.8-4.5,1.3
		c0,0.2,0.3,0.6,1.2,0.9c0.9,0.3,2.2,0.5,3.5,0.6c2.9,0.1,4.8-0.7,4.8-1.3c0-0.1-0.1-0.2-0.2-0.3c-0.5-0.5-2.2-1.1-4.5-1.2
		C290.6,280.1,290.5,280.1,290.5,280.1z"/>
</g>
<path class="st15" d="M374.5,102c-1.5,2.5-3.2,5-4.9,7.3c-4.2,5.4-9.2,10.1-14.7,13.9l4.2,3.7c5.1-4.7,9.4-10.2,12.8-16
	c1.5-2.6,2.9-5.3,4-8.1C376.3,101.8,375,101.1,374.5,102z"/>
<g>
	<path class="st0" d="M354.7,123.2c-5.6,3.8-11.7,6.8-18,8.8c-3.2,1-6.4,1.8-9.7,2.4c-1.6,0.3-3.3,0.5-4.9,0.7
		c-0.8,0.1-1.6,0.2-2.4,0.2l-1.2,0.1c-0.4,0-0.8,0-1,0c-0.3,0-0.7,0-1,0c-3.3,0.3-5.7,3.5-5,6.8c0.6,2.9,3.5,4.8,6.4,4.5l0.2,0
		c0.7-0.1,1.1-0.1,1.6-0.2l1.4-0.3c1-0.2,1.9-0.4,2.8-0.6c1.8-0.4,3.7-0.9,5.4-1.5c3.6-1.1,7-2.5,10.4-4.1
		c6.7-3.2,12.9-7.3,18.4-12.2c0.3-0.3,0.5-0.5,0.8-0.8l-4.2-3.7C354.8,123.1,354.7,123.2,354.7,123.2z"/>
	<path class="st1" d="M317.3,147c-2.9,0-5.6-2-6.1-4.8c-0.3-1.7,0-3.4,1-4.8c1-1.4,2.6-2.3,4.3-2.4c0.3,0,0.7,0,1.1,0
		c0.2,0,0.6,0,1,0l1.2-0.1c0.8,0,1.6-0.1,2.4-0.2c1.8-0.2,3.4-0.4,4.8-0.7c3.2-0.6,6.5-1.4,9.6-2.4c6.4-2,12.4-5,17.9-8.7
		c0,0,0.2,0.3,0.2,0.3l-0.1-0.4c0.1-0.1,0.4-0.1,0.5,0l4.2,3.7c0.1,0.1,0.1,0.2,0.1,0.3c0,0.1,0,0.2-0.1,0.3l-0.3,0.3
		c-0.2,0.2-0.3,0.3-0.5,0.5c-5.5,4.9-11.7,9.1-18.5,12.3c-3.4,1.6-6.9,3-10.4,4.1c-1.7,0.5-3.5,1-5.5,1.5c-0.9,0.2-1.9,0.4-2.8,0.6
		l-1.6,0.3c-0.5,0.1-0.9,0.1-1.5,0.2l-0.2,0C317.8,147,317.5,147,317.3,147z M317.1,135.7c-0.2,0-0.4,0-0.6,0
		c-1.5,0.2-2.8,0.9-3.7,2.1c-0.9,1.2-1.2,2.7-0.9,4.2c0.5,2.6,3.2,4.5,6,4.2l0.2,0c0.6-0.1,1-0.1,1.4-0.2l1.6-0.3
		c0.9-0.2,1.9-0.4,2.8-0.6c2-0.5,3.8-1,5.4-1.5c3.5-1.1,7-2.5,10.4-4.1c6.7-3.2,12.8-7.3,18.3-12.2c0.2-0.2,0.3-0.3,0.5-0.5
		c0,0-3.7-3.3-3.7-3.3c-5.6,3.8-11.6,6.7-18,8.8c-3.2,1-6.4,1.8-9.7,2.4c-1.5,0.3-3.1,0.5-4.9,0.7c-0.8,0.1-1.6,0.2-2.4,0.2
		l-1.2,0.1c-0.4,0-0.9,0-1.1,0C317.4,135.7,317.2,135.7,317.1,135.7z"/>
</g>
<g>
	<path class="st15" d="M489.8,103.4c-0.7-0.9-1.3-1.8-2-2.8h-2.6c0.7,1.5,1.5,2.9,2.3,4.3c3.4,5.9,7.8,11.3,12.8,16l4.2-3.7
		C499,113.5,494,108.8,489.8,103.4z"/>
	<g>
		<path class="st14" d="M529.8,128.1c-1.3-0.3-2.6-0.6-3.9-0.9l-2.7,8.5c1.3,0.5,2.6,1,3.9,1.5L529.8,128.1z"/>
		<path class="st1" d="M527.2,137.6c0,0-0.1,0-0.1,0c-1.3-0.5-2.6-1-3.9-1.5c-0.2-0.1-0.3-0.3-0.2-0.5l2.7-8.5
			c0.1-0.2,0.3-0.3,0.5-0.2c1.4,0.4,2.6,0.7,3.9,0.9c0.1,0,0.2,0.1,0.2,0.2c0.1,0.1,0.1,0.2,0,0.3l-2.7,9.1c0,0.1-0.1,0.2-0.2,0.2
			C527.3,137.6,527.2,137.6,527.2,137.6z M523.7,135.5c1.1,0.4,2.1,0.9,3.2,1.2l2.4-8.4c-1-0.2-2-0.5-3.1-0.8L523.7,135.5z"/>
	</g>
	<g>
		<path class="st0" d="M522.7,126.2c-6.4-2-12.4-5-18-8.8c0,0-0.1-0.1-0.1-0.1l-4.2,3.7c0.3,0.3,0.5,0.5,0.8,0.8
			c5.4,4.9,11.7,9,18.4,12.2c1.2,0.6,2.5,1.1,3.7,1.7l2.7-8.5C524.8,126.9,523.8,126.6,522.7,126.2z"/>
		<path class="st1" d="M523.2,136.1c0,0-0.1,0-0.1,0c-1.3-0.5-2.5-1.1-3.8-1.7c-6.8-3.2-13-7.3-18.5-12.3c-0.2-0.2-0.3-0.3-0.5-0.5
			l-0.3-0.3c-0.1-0.1-0.1-0.2-0.1-0.3c0-0.1,0-0.2,0.1-0.3l4.2-3.7c0.1-0.1,0.3-0.1,0.5,0l-0.1,0.4l0.2-0.3
			c5.5,3.8,11.6,6.7,17.9,8.7c1,0.3,2.1,0.6,3.3,1c0.1,0,0.2,0.1,0.2,0.2c0,0.1,0.1,0.2,0,0.3l-2.7,8.5c0,0.1-0.1,0.2-0.2,0.2
			C523.4,136.1,523.3,136.1,523.2,136.1z M500.9,121.1c0.2,0.2,0.3,0.3,0.5,0.5c5.4,4.9,11.6,9,18.3,12.2c1.1,0.5,2.2,1,3.4,1.5
			l2.5-7.8c-1.1-0.3-2-0.6-2.9-0.9c-6.4-2-12.4-5-18-8.8L500.9,121.1z"/>
	</g>
	<g>
		<path class="st8" d="M542.8,129.5c-0.3,0-0.7,0-1,0c-0.2,0-0.7,0-1,0l-1.2-0.1c-0.8,0-1.6-0.1-2.4-0.2c-1.6-0.2-3.2-0.4-4.9-0.7
			c-0.8-0.1-1.7-0.3-2.5-0.5l-2.7,9.1c0.9,0.3,1.8,0.6,2.7,0.9c1.8,0.6,3.6,1.1,5.4,1.5c0.9,0.2,1.9,0.4,2.8,0.6l1.4,0.3
			c0.5,0.1,0.9,0.2,1.6,0.2l0.2,0c3,0.3,5.8-1.6,6.4-4.5C548.5,133,546.1,129.9,542.8,129.5z"/>
		<path d="M542,141.3c-0.2,0-0.5,0-0.7,0l-0.2,0c-0.6-0.1-1-0.1-1.5-0.2l-1.6-0.3c-0.9-0.2-1.9-0.4-2.8-0.6c-2-0.5-3.8-1-5.5-1.5
			c-0.9-0.3-1.8-0.6-2.8-0.9l-0.4-0.2l2.9-10l0.5,0.1c0.8,0.2,1.6,0.3,2.5,0.5c1.5,0.3,3.1,0.5,4.8,0.7c0.8,0.1,1.6,0.1,2.4,0.2
			l1.2,0.1c0.3,0,0.8,0,1,0c0.4,0,0.8,0,1.1,0c1.7,0.2,3.3,1.1,4.3,2.5c1,1.4,1.4,3.2,1.1,4.9C547.7,139.3,545,141.3,542,141.3z
			 M527.8,136.9c0.8,0.3,1.5,0.5,2.3,0.8c1.7,0.5,3.4,1,5.4,1.5c0.9,0.2,1.9,0.4,2.8,0.6l1.6,0.3c0.4,0.1,0.8,0.1,1.4,0.2l0.2,0
			c2.8,0.3,5.3-1.5,5.9-4.1c0.3-1.5,0-2.9-0.9-4.1c-0.9-1.2-2.2-1.9-3.6-2.1c-0.3,0-0.6,0-1,0c-0.2,0-0.7,0-1.1,0l-1.2-0.1
			c-0.8,0-1.6-0.1-2.4-0.2c-1.8-0.2-3.4-0.4-4.9-0.7c-0.7-0.1-1.4-0.3-2-0.4L527.8,136.9z"/>
	</g>
</g>
<g>
	<path class="st8" d="M501.1,282c0,1,2.3,1.7,5.2,1.7c2.8-0.1,5.1-0.9,5.1-1.9c0-1-2.3-1.7-5.2-1.7C503.4,280.1,501.1,281,501.1,282
		z"/>
	<path d="M506,284.1c-2.7,0-5.3-0.7-5.4-2.2c0-0.2,0.1-0.6,0.4-0.9c0.8-0.8,2.8-1.4,5.2-1.4c2.8-0.1,5.6,0.7,5.7,2.2
		c0,0.5-0.3,1.2-1.8,1.8c-1,0.4-2.4,0.6-3.8,0.6C506.2,284.1,506.1,284.1,506,284.1z M506.5,280.6c-0.1,0-0.2,0-0.3,0
		c-2.4,0-4,0.6-4.5,1.1c0,0.1-0.1,0.2-0.1,0.2c0,0.5,1.8,1.3,4.6,1.2c1.3,0,2.5-0.2,3.4-0.6c0.8-0.3,1.2-0.7,1.1-0.8
		C510.8,281.3,509.2,280.6,506.5,280.6z"/>
</g>
<g>
	<path class="st3" d="M539.3,183.8c-0.2,0.2-0.3,0.4-0.5,0.5l-0.4,0.4l-0.7,0.8c-0.4,0.5-0.9,1.1-1.3,1.6c-0.8,1-1.6,2.1-2.4,3.1
		c-1.5,2.1-3,4.2-4.3,6.3c-2.7,4.3-5.2,8.7-7.4,13.2c-4.5,9-8,18.3-10.5,27.9c-1.2,4.8-2.2,9.6-2.9,14.5c-0.7,4.8-1.1,9.7-1.2,14.5
		c-0.1,4.8,0.1,9.6,0.5,14.4c0.2,1.7,2.7,1.8,2.8,0c0.5-4.6,1.3-9.2,2.3-13.7c1.1-4.5,2.3-8.9,3.8-13.2c1.6-4.3,3.3-8.5,5.2-12.6
		c4-8.1,8.7-15.7,14.2-22.7c2.7-3.5,5.6-6.8,8.6-9.9c1.5-1.6,3.1-3.1,4.6-4.5c0.8-0.7,1.6-1.4,2.4-2.1c0.4-0.3,0.8-0.7,1.2-1
		l0.6-0.4l0.3-0.2c0.1-0.1,7.9-3.9,7.9-3.8L539.3,183.8z"/>
	<path class="st1" d="M509.8,282.7c-0.8,0-1.7-0.5-1.8-1.7c-0.4-4.8-0.6-9.6-0.5-14.4c0.2-5.3,0.6-10.1,1.2-14.6
		c0.8-5.4,1.7-10.1,2.9-14.5c2.5-9.7,6-19.1,10.5-28c2.3-4.7,4.8-9.1,7.5-13.2c1.2-2,2.7-4.1,4.3-6.4c0.8-1.1,1.6-2.1,2.4-3.1
		c0.4-0.5,0.8-1,1.3-1.6l1.1-1.2c0.2-0.2,0.3-0.3,0.5-0.5c0.1-0.1,0.3-0.1,0.5-0.1l22.9,13.2c0.2,0.1,0.2,0.4,0.1,0.5
		c0,0.1-0.1,0.1-0.2,0.1c-0.4,0.2-7.5,3.6-7.8,3.8l-0.8,0.6c-0.4,0.3-0.8,0.6-1.2,0.9c-0.7,0.6-1.5,1.3-2.4,2.1
		c-1.8,1.6-3.3,3.1-4.6,4.5c-2.9,3-5.8,6.3-8.6,9.9c-5.4,6.9-10.2,14.5-14.1,22.6c-1.8,3.7-3.5,7.8-5.2,12.5
		c-1.4,4-2.7,8.3-3.8,13.2c-1,4.4-1.8,9-2.3,13.6C511.5,282.2,510.6,282.7,509.8,282.7z M539.4,184.3c-0.1,0.1-0.1,0.2-0.2,0.2
		l-1.1,1.3c-0.4,0.5-0.9,1-1.3,1.6c-0.8,1-1.5,2-2.4,3.1c-1.7,2.3-3.1,4.4-4.3,6.3c-2.6,4.1-5.1,8.5-7.4,13.1
		c-4.4,8.8-7.9,18.2-10.4,27.8c-1.1,4.4-2.1,9.1-2.9,14.4c-0.6,4.5-1,9.3-1.2,14.5c-0.1,4.7,0.1,9.5,0.5,14.3c0.1,0.7,0.6,1,1,1
		c0.4,0,1-0.2,1.1-1c0.5-4.6,1.3-9.2,2.3-13.7c1.2-4.9,2.4-9.2,3.9-13.3c1.7-4.8,3.4-8.9,5.3-12.6c4-8.1,8.8-15.8,14.2-22.8
		c2.8-3.6,5.8-7,8.7-10c1.3-1.4,2.9-2.9,4.6-4.5c0.8-0.7,1.6-1.5,2.4-2.1c0.4-0.3,0.8-0.7,1.2-1l0.8-0.6c0.1,0,5.1-2.6,7.3-3.5
		L539.4,184.3z"/>
</g>
<g>
	<path class="st8" d="M318.3,118.3l1.1-1.7c0.5-0.7,1.2-1.1,2.1-1.1h5.8c2,0,3.1,2.2,2.1,3.8l-3.7,5.7c-0.5,0.7-1.2,1.1-2.1,1.1
		h-4.9c-0.3-1.1-0.6-2.2-0.9-3.3C317.2,121.3,317.4,119.7,318.3,118.3z"/>
	<path d="M323.5,126.7h-5.3l-1.1-3.6c-0.5-1.7-0.2-3.5,0.7-5l1.1-1.7c0.6-0.8,1.5-1.3,2.5-1.3h5.8c1.1,0,2.1,0.6,2.6,1.6
		c0.5,1,0.5,2.1-0.1,3l-3.7,5.7C325.4,126.2,324.5,126.7,323.5,126.7z M318.9,125.7h4.6c0.7,0,1.3-0.3,1.6-0.9l3.7-5.7
		c0.4-0.6,0.4-1.4,0.1-2c-0.3-0.6-1-1-1.7-1h-5.8c-0.7,0-1.3,0.3-1.6,0.9l-1.1,1.7c-0.8,1.2-1,2.7-0.6,4.1L318.9,125.7z"/>
</g>
<g>
	<ellipse transform="matrix(1.881059e-02 -0.9998 0.9998 1.881059e-02 47.8179 612.158)" cx="335.8" cy="281.7" rx="1.8" ry="5.1"/>
	<path d="M336,283.9c-0.1,0-0.2,0-0.3,0c-2.3,0-4.3-0.6-5.1-1.4c-0.3-0.3-0.4-0.6-0.4-0.9c0-1.4,2.8-2.1,5.5-2
		c1.4,0,2.7,0.2,3.7,0.6c1.4,0.5,1.7,1.2,1.7,1.6C341.3,283.2,338.7,283.9,336,283.9z M335.5,280.3c-2.7,0-4.5,0.8-4.5,1.3
		c0,0.1,0.1,0.2,0.2,0.3c0.5,0.5,2.2,1.1,4.5,1.2c2.9,0.1,4.8-0.7,4.8-1.3c0-0.2-0.3-0.6-1.2-0.9c-0.9-0.3-2.2-0.5-3.5-0.6
		C335.7,280.3,335.6,280.3,335.5,280.3z"/>
</g>
<g>
	<path class="st8" d="M573.1,283c0.2,1,2.6,1.2,5.4,0.6c2.8-0.6,4.8-1.9,4.6-2.9c-0.2-1-2.6-1.2-5.4-0.6
		C575,280.7,572.9,282,573.1,283z"/>
	<path d="M575.8,284.4c-1.6,0-2.9-0.4-3.1-1.3c-0.1-0.2-0.1-0.6,0.2-1c0.6-1,2.5-1.9,4.8-2.4c2.7-0.6,5.7-0.5,6,1
		c0.1,0.5,0,1.2-1.4,2.1c-0.9,0.6-2.2,1-3.6,1.4C577.7,284.3,576.7,284.4,575.8,284.4z M580.5,280.3c-0.7,0-1.6,0.1-2.6,0.3
		c-2.3,0.5-3.8,1.4-4.1,2c0,0.1-0.1,0.2-0.1,0.3c0.1,0.4,2,0.9,4.8,0.2c1.3-0.3,2.4-0.7,3.3-1.2c0.8-0.5,1-0.9,1-1
		C582.6,280.6,581.8,280.3,580.5,280.3z"/>
</g>
<g>
	<path class="st2" d="M328.9,187l10.2,24.5l5.1,12.2c2.3,5.5,2.7,11.5,1.4,16.9l-11.8,40.7c-0.4,1.3-2.4,1-2.3-0.4l2.6-42
		c0-3.2-1.1-6.3-2.8-8.6l-7.4-10.9L309,197.7L328.9,187z"/>
	<path class="st1" d="M332.6,282.6c-0.1,0-0.2,0-0.3,0c-0.7-0.1-1.3-0.7-1.3-1.6l2.6-42c0-3.1-1-6-2.7-8.4l-22.2-32.7
		c-0.1-0.1-0.1-0.2-0.1-0.3c0-0.1,0.1-0.2,0.2-0.2l19.9-10.7c0.1-0.1,0.2-0.1,0.3,0c0.1,0,0.2,0.1,0.2,0.2l15.2,36.8
		c2.2,5.4,2.7,11.5,1.4,17.1l-11.8,40.7C333.8,282.3,333.2,282.6,332.6,282.6z M309.6,197.8l22,32.3c1.8,2.5,2.9,5.6,2.9,8.8
		l-2.6,42c0,0.5,0.3,0.8,0.7,0.8c0.3,0.1,0.8-0.1,0.9-0.6l11.8-40.7c1.3-5.5,0.8-11.4-1.4-16.6l-15.1-36.4L309.6,197.8z"/>
</g>
<g>
	<path class="st3" d="M550.8,188.4c1.5,41.9,1.6,56.1,11.9,70.1c3.5,4.7,16.9,23,16.9,22.9c1.1,1.5,3.4,0,2.6-1.7
		c-20-39.3-18.9-27.6-7.5-90.1L550.8,188.4z"/>
	<path class="st1" d="M580.7,282.3c-0.5,0-1.1-0.2-1.5-0.8l0,0c-0.3-0.3-0.9-1.1-2.2-2.9l-14.7-19.9c-10-13.6-10.4-26.7-11.8-65.8
		l-0.2-4.5c0-0.1,0-0.2,0.1-0.3c0.1-0.1,0.2-0.1,0.3-0.1l23.9,1.2c0.1,0,0.2,0.1,0.3,0.1c0.1,0.1,0.1,0.2,0.1,0.3
		c-1.2,6.8-2.4,12.8-3.4,18c-7.1,37.6-7.1,37.6,5.4,61.3c1.6,3.1,3.4,6.5,5.4,10.5c0.6,1.1,0,2.1-0.7,2.5
		C581.4,282.2,581.1,282.3,580.7,282.3z M551.2,188.8l0.1,4.1c1.4,38.9,1.8,52,11.7,65.4c3.4,4.7,16.8,22.7,16.9,22.8
		c0.5,0.6,1.1,0.6,1.5,0.3c0.5-0.3,0.8-0.9,0.4-1.6c-2-4-3.8-7.4-5.4-10.5c-12.6-24-12.6-24-5.4-61.8c1-5.1,2.1-10.9,3.3-17.6
		L551.2,188.8z"/>
</g>
<g>
	<path class="st2" d="M316.4,186.6c0.1,0.9,0.2,1.5,0.2,2.1l0.1,1.9c0.1,1.3,0.1,2.5,0.1,3.7c0,2.5,0,4.9-0.1,7.3
		c-0.2,4.8-0.5,9.6-1.2,14.3c-1.2,9.5-3.3,18.7-6.3,27.7c-1.5,4.5-3.2,8.8-5.2,13.1c-2,4.2-4.1,8.4-6.6,12.3
		c-2.7,4.4-5.7,8.6-9,12.6c-1,1.2-2.7-0.1-2.1-1.4c2.3-4.4,4.3-9,5.9-13.6c2.9-8.3,4.8-16.8,5.8-25.4c1-8.6,1.1-17.2,0.4-25.7
		c-0.3-4.2-0.9-8.4-1.6-12.6c-0.4-2.1-0.8-4.1-1.3-6.1c-0.2-1-0.5-2-0.7-3l-0.4-1.4c-0.1-0.4-0.3-1-0.4-1.2
		c-3-5.8-0.7-12.9,5.2-15.8c5.6-2.7,12.5-0.4,15.4,5c0.6,1.2,1,2.5,1.2,3.8L316.4,186.6z"/>
	<path class="st1" d="M287.7,282.3c-0.3,0-0.7-0.1-0.9-0.3c-0.6-0.4-1-1.2-0.6-2.1c2.3-4.5,4.3-9,5.9-13.6c2.8-8,4.8-16.5,5.8-25.3
		c0.9-8.4,1.1-17,0.4-25.6c-0.3-4.2-0.9-8.4-1.6-12.5c-0.3-2-0.8-3.9-1.3-6.1c-0.2-1-0.5-2-0.7-2.9l-0.4-1.6
		c-0.1-0.3-0.2-0.8-0.3-0.9c-1.5-2.9-1.8-6.2-0.8-9.3c1-3.1,3.2-5.6,6.1-7c5.8-2.8,12.9-0.5,15.9,5.2c0.6,1.2,1.1,2.5,1.3,3.9
		l0.3,2.3c0.1,0.8,0.1,1.3,0.2,1.8l0.2,2.3c0.1,1.3,0.1,2.5,0.1,3.7c0,2.6,0,5-0.1,7.3c-0.2,4.8-0.6,9.6-1.2,14.4
		c-1.2,9.6-3.4,18.9-6.3,27.7c-1.6,4.8-3.3,9.1-5.2,13.1c-2.4,5.1-4.5,8.9-6.6,12.3c-2.6,4.3-5.7,8.6-9,12.6
		C288.6,282.2,288.2,282.3,287.7,282.3z M304.5,174.7c-1.6,0-3.3,0.4-4.8,1.1c-2.8,1.3-4.8,3.7-5.8,6.6c-1,2.9-0.7,6,0.7,8.7
		c0.1,0.2,0.2,0.5,0.4,1.1l0.5,1.6c0.3,1,0.5,2,0.7,3c0.5,2.2,0.9,4.2,1.3,6.1c0.7,4.2,1.3,8.4,1.6,12.6c0.7,8.7,0.6,17.3-0.4,25.7
		c-1,8.9-3,17.5-5.8,25.5c-1.6,4.6-3.6,9.2-5.9,13.7c-0.3,0.5,0,0.9,0.3,1.2c0.3,0.2,0.8,0.3,1.1-0.2c3.3-4,6.3-8.2,8.9-12.5
		c2.1-3.4,4.1-7.2,6.6-12.3c1.8-4,3.5-8.2,5.2-13c2.9-8.8,5-18,6.3-27.6c0.6-4.7,1-9.5,1.2-14.3c0.1-2.3,0.1-4.7,0.1-7.3
		c0-1.2-0.1-2.5-0.1-3.7l-0.1-2.3c0-0.5-0.1-1-0.2-1.8c0,0-0.3-2.3-0.3-2.3c-0.2-1.3-0.6-2.5-1.2-3.6
		C312.6,176.9,308.6,174.7,304.5,174.7z"/>
</g>
<g>
	<path class="st0" d="M330,189c-0.9-2.5-2.6-4.8-4-7.2c-3.8-6.5-5.4-14-4.5-21.3c0.7-5.4,9.3-30.3-5.7-27.5c-0.2,0-0.5,0.1-0.7,0.1
		c-11.3,2.7-17.4,20.7-19.9,28.9c-2,6.5-3,13.2-2.8,19.9c0.1,3.8,0.5,7.8,3.1,11c4.3,5.4,12.8,6.7,20.5,7c4.9,0.2,10.5-0.1,13.3-3.5
		C330.9,194.5,330.9,191.5,330,189z"/>
	<path class="st1" d="M318.2,200.5c-0.8,0-1.6,0-2.3-0.1c-6.8-0.3-16.2-1.4-20.8-7.2c-2.7-3.4-3.1-7.6-3.2-11.3
		c-0.1-6.7,0.9-13.4,2.9-20c5.3-17.5,12.1-27.3,20.2-29.2c0.2,0,0.3-0.1,0.5-0.1l0.2,0c3.1-0.6,5.4-0.1,6.9,1.6
		c4.2,4.4,1.6,15.6,0,22.4c-0.4,1.7-0.7,3.1-0.8,4c-0.9,7.1,0.6,14.6,4.4,21c0.4,0.7,0.8,1.3,1.2,2c1.1,1.7,2.1,3.4,2.8,5.3
		c1.1,3,0.8,6-0.9,8C327,199.9,322.3,200.5,318.2,200.5z M318,133.2c-0.7,0-1.4,0.1-2.1,0.2l-0.2,0c-0.1,0-0.3,0-0.4,0.1
		c-7.8,1.8-14.4,11.5-19.7,28.7c-2,6.5-2.9,13.2-2.8,19.8c0.1,3.6,0.5,7.6,3,10.8c4.4,5.5,13.7,6.6,20.2,6.9
		c4.3,0.2,10.2,0.1,12.9-3.3c1.5-1.8,1.8-4.5,0.7-7.3c-0.7-1.8-1.7-3.5-2.8-5.1c-0.4-0.7-0.8-1.3-1.2-2c-3.9-6.6-5.5-14.2-4.5-21.5
		c0.1-0.9,0.4-2.3,0.9-4.1c1.5-6.6,4.1-17.6,0.2-21.7C321.2,133.7,319.8,133.2,318,133.2z"/>
</g>
<g>
	<path class="st5" d="M326.5,120.9c-1.6,1.6-3.5,1.3-5.7,1.9c0.3,1.1,0,1.8-0.5,2.2c0.1-0.7-0.2-1.4-0.7-1.5
		c-0.6-0.1-1.2,0.4-1.4,1.3c-0.1,0.2-0.1,0.5,0,0.7c0,0-0.4,1.4-0.4,1.4c0,0.1-1.4,5.9-1.4,5.9c-0.1,0.1-0.2,0.1-0.3,0.2
		c-0.8,0.9-0.2,2.6,1.2,3.8c1.4,1.2,3.2,1.5,4,0.6c0.8-0.9,0.2-2.6-1.2-3.8c0,0,1.3-2.5,1.3-2.5c1.6,0.1,3.2-1,4.3-2.8l1.1-2.7
		C327.2,123.9,327.1,122.2,326.5,120.9z"/>
	<path class="st1" d="M320.1,138.3c-0.9,0-2-0.4-2.9-1.2c-1.6-1.4-2.1-3.3-1.2-4.3c0.1-0.1,0.1-0.1,0.2-0.2l1.3-5.6
		c0-0.1,0-0.1,0-0.2l0.3-1.3c0-0.3,0-0.5,0.1-0.7c0.1-0.5,0.3-0.9,0.7-1.2c0.3-0.3,0.8-0.4,1.2-0.4c0.4,0.1,0.7,0.4,0.9,0.8
		c0-0.3,0-0.6-0.1-1c-0.1-0.2,0.1-0.4,0.3-0.5c0.7-0.2,1.4-0.3,2.1-0.4c1.3-0.2,2.5-0.4,3.4-1.4c0.1-0.1,0.2-0.1,0.3-0.1
		c0.1,0,0.2,0.1,0.3,0.2c0.6,1.4,0.7,3.2,0.3,4.9l-1.1,2.7c-1.2,1.9-2.8,3-4.4,3l-1.1,2c0.7,0.6,1.1,1.3,1.3,2
		c0.3,0.8,0.2,1.6-0.3,2.1C321.2,138,320.7,138.3,320.1,138.3z M318.2,126.9c0,0-1.4,5.8-1.4,5.8c0,0.1-0.1,0.2-0.2,0.2
		c-0.1,0-0.1,0.1-0.2,0.2c-0.6,0.7-0.1,2.2,1.1,3.3c1.2,1.1,2.8,1.4,3.4,0.7c0.3-0.3,0.3-0.8,0.2-1.4c-0.2-0.7-0.7-1.3-1.3-1.9
		c-0.1-0.1-0.2-0.3-0.1-0.5l1.3-2.5c0.1-0.1,0.2-0.2,0.4-0.2c1.4,0.1,2.9-0.9,3.9-2.6l1-2.6c0.3-1.4,0.3-2.7-0.1-3.9
		c-1,0.8-2.2,1-3.4,1.2c-0.5,0.1-1.1,0.2-1.7,0.3c0.2,0.9,0,1.7-0.7,2.3c-0.1,0.1-0.3,0.1-0.4,0c-0.1-0.1-0.2-0.2-0.2-0.4
		c0.1-0.5-0.1-1-0.4-1.1c-0.2,0-0.4,0.1-0.5,0.2c-0.2,0.2-0.4,0.5-0.4,0.8c0,0.2-0.1,0.4,0,0.5c0,0.1,0,0.2-0.1,0.3L318.2,126.9
		C318.2,126.9,318.2,126.9,318.2,126.9z"/>
</g>
<g>
	<path class="st14" d="M322.1,146.9c0.3,5.2-1.4,10.2-2.6,15.2c-2.1,8.6-2.8,17.6-2.1,26.5c0.1,0.7,0.1,1.5-0.4,2
		c-0.3,0.3-0.8,0.4-1.2,0.4c-6.2,0.9-12.6,0-18.3-2.5c-3.8-1.7-7.6-4.6-8.6-8.7c-0.6-2.4-0.1-4.9,0.3-7.4c1.5-7.8,3.1-15.6,6.7-22.7
		c2.9-5.8,8.1-12.8,14.5-14.9C317,132.6,321.8,141.5,322.1,146.9z"/>
	<path class="st1" d="M311,191.7c-4.7,0-9.4-1-13.7-2.9c-4.8-2.2-7.9-5.3-8.8-8.9c-0.6-2.5-0.1-5.2,0.3-7.5
		c1.6-8.4,3.2-15.9,6.7-22.8c1.5-2.9,6.8-12.5,14.7-15.1c2.1-0.7,4.2-0.4,6.1,0.9c3.5,2.4,5.9,7.7,6.1,11.5
		c0.3,4.2-0.8,8.4-1.9,12.5c-0.3,1-0.5,1.9-0.7,2.9c-2.1,8.6-2.8,17.5-2.1,26.3c0.1,0.8,0.1,1.7-0.6,2.3c-0.4,0.3-0.9,0.4-1.4,0.5
		C314.3,191.6,312.6,191.7,311,191.7z M312.4,134.8c-0.6,0-1.3,0.1-1.9,0.3c-7.6,2.5-12.9,11.9-14.3,14.7c-3.4,6.8-5,14.3-6.6,22.6
		c-0.4,2.3-0.9,4.8-0.3,7.2c1.1,4.5,5.7,7.2,8.4,8.4c5.6,2.5,12,3.4,18.1,2.5c0.4-0.1,0.7-0.1,1-0.3c0.4-0.3,0.4-1,0.3-1.7
		c-0.8-8.9-0.1-17.9,2.1-26.6c0.2-1,0.5-1.9,0.7-2.9c1.1-4,2.1-8.1,1.9-12.2c-0.2-3.6-2.4-8.6-5.8-10.9
		C314.8,135.2,313.6,134.8,312.4,134.8z"/>
</g>
<path class="st1" d="M312.5,171.8h-14.8c-0.6,0-1-0.5-1-1v-0.5c0-0.6,0.5-1,1-1h14.8c0.6,0,1,0.5,1,1v0.5
	C313.5,171.3,313.1,171.8,312.5,171.8z"/>
<g>
	<path class="st0" d="M312.6,177.2l-1.2-0.7l-0.6-0.4l-0.3-0.3c-0.8-0.8-1.1-1.6-1.2-2.7c-0.1-1.2,0.2-2.6,0.6-4
		c0.1-0.4,0.2-0.7,0.4-1.1l0.4-1.3l0.8-2.7c2.2-7,4.2-14,6.9-20.3l0-0.1c0.1-0.2,0.2-0.4,0.2-0.6c0.9-3-0.9-6.1-3.9-7
		c-3-0.9-6.1,0.9-7,3.9c-2.2,7.6-3.3,14.9-4.6,22l-0.5,2.7l-0.3,1.3c-0.1,0.5-0.2,1-0.3,1.6c-0.3,2.1-0.3,4.5,0.3,6.9
		c0.3,1.2,0.9,2.5,1.6,3.6c0.8,1.1,1.8,2,2.9,2.7l0.8,0.5l0.6,0.3l1.2,0.6l0.6,0.3l2.4-4.9L312.6,177.2z"/>
	<path class="st1" d="M310.5,182.7c-0.1,0-0.1,0-0.2,0l-2.4-1.2l-0.9-0.5c-1.2-0.7-2.3-1.7-3.1-2.8c-0.8-1.1-1.4-2.3-1.7-3.7
		c-0.6-2.2-0.6-4.4-0.3-7.1c0.1-0.4,0.1-0.9,0.2-1.3l0.8-4.3c0.2-1.2,0.4-2.4,0.7-3.7c1-6,2.1-12.1,3.9-18.4
		c0.4-1.5,1.5-2.8,2.9-3.6c1.4-0.8,3-1,4.6-0.5c1.6,0.4,2.8,1.5,3.6,2.9c0.8,1.4,1,3,0.5,4.6c-0.1,0.2-0.1,0.5-0.2,0.7
		c-2.3,5.4-4.1,11.2-6,17.3l-2.2,7c-0.1,0.2-0.1,0.4-0.2,0.5c-0.1,0.2-0.1,0.4-0.2,0.6c-0.5,1.4-0.7,2.7-0.6,3.8
		c0.1,1.1,0.4,1.8,1.1,2.5l0.3,0.3l2,1.3c0.2,0.1,0.2,0.3,0.1,0.5l-2.4,4.9C310.8,182.7,310.6,182.7,310.5,182.7z M313.4,136.2
		c-0.9,0-1.8,0.2-2.6,0.7c-1.2,0.7-2.1,1.8-2.5,3.2c-1.8,6.3-2.9,12.4-3.9,18.3c-0.2,1.2-0.4,2.4-0.7,3.7l-0.8,4.3
		c-0.1,0.4-0.2,0.8-0.2,1.3c-0.3,2.5-0.3,4.7,0.3,6.8c0.3,1.3,0.9,2.4,1.6,3.4c0.7,1,1.7,1.9,2.8,2.6l1.4,0.7l1.5,0.7l2.1-4.3
		c0,0-1.7-1.1-1.7-1.1l-0.4-0.3c-0.8-0.8-1.2-1.7-1.3-3c-0.1-1.2,0.2-2.6,0.7-4.1c0.1-0.2,0.1-0.4,0.2-0.6c0.1-0.2,0.1-0.3,0.2-0.5
		l1.3-4l0.9-3c1.8-5.9,3.7-11.9,6-17.3c0.1-0.2,0.2-0.4,0.2-0.7c0.4-1.4,0.2-2.8-0.5-4c-0.7-1.2-1.8-2.1-3.2-2.5
		C314.3,136.3,313.9,136.2,313.4,136.2z"/>
</g>
<g>
	
		<rect x="337.7" y="100.6" transform="matrix(1 -1.849795e-03 1.849795e-03 1 -0.2757 0.7888)" class="st0" width="177.1" height="97.7"/>
	<path class="st1" d="M337.8,198.8c-0.1,0-0.2,0-0.3-0.1c-0.1-0.1-0.1-0.2-0.1-0.3l-0.2-97.7c0-0.2,0.2-0.4,0.4-0.4l177.1-0.3
		c0.1,0,0.2,0,0.3,0.1c0.1,0.1,0.1,0.2,0.1,0.3l0.2,97.7c0,0.2-0.2,0.4-0.4,0.4L337.8,198.8C337.8,198.8,337.8,198.8,337.8,198.8z
		 M338,101.1l0.2,96.9l176.3-0.3l-0.2-96.9L338,101.1z"/>
</g>
<g>
	<path class="st0" d="M391.6,108.1l-0.3,80.1L391.6,108.1z"/>
	<path class="st1" d="M391.3,188.5c-0.2,0-0.4-0.2-0.4-0.4l0.3-80.1c0-0.2,0.2-0.4,0.4-0.4c0.2,0,0.4,0.2,0.4,0.4l-0.3,80.1
		C391.7,188.4,391.5,188.5,391.3,188.5z"/>
</g>
<g>
	<path class="st0" d="M459.9,108.1l-0.4,80.1L459.9,108.1z"/>
	<path class="st1" d="M459.5,188.5c-0.2,0-0.4-0.2-0.4-0.4l0.4-80.1c0-0.2,0.2-0.4,0.4-0.4c0.2,0,0.4,0.2,0.4,0.4l-0.4,80.1
		C459.9,188.4,459.8,188.5,459.5,188.5z"/>
</g>
<g>
	<rect x="347.8" y="177.4" class="st8" width="6.3" height="6.3"/>
	<path d="M354.7,184.2l-7.3,0l0-7.3l7.3,0L354.7,184.2z M348.3,183.2l5.3,0l0-5.3l-5.3,0L348.3,183.2z"/>
</g>
<g>
	<rect x="347.8" y="164.7" class="st16" width="6.3" height="6.3"/>
	<path class="st1" d="M354.2,171.4l-6.3,0c-0.1,0-0.2,0-0.3-0.1c-0.1-0.1-0.1-0.2-0.1-0.3l0-6.3c0-0.2,0.2-0.4,0.4-0.4l6.3,0
		c0.1,0,0.2,0,0.3,0.1c0.1,0.1,0.1,0.2,0.1,0.3l0,6.3C354.5,171.2,354.4,171.4,354.2,171.4z M348.2,170.6l5.6,0l0-5.6l-5.6,0
		L348.2,170.6z"/>
</g>
<g>
	<rect x="347.9" y="151.9" class="st16" width="6.3" height="6.3"/>
	<path class="st1" d="M354.2,158.6l-6.3,0c-0.2,0-0.4-0.2-0.4-0.4l0-6.3c0-0.2,0.2-0.4,0.4-0.4l6.3,0c0.2,0,0.4,0.2,0.4,0.4l0,6.3
		C354.5,158.5,354.4,158.6,354.2,158.6z M348.2,157.9l5.6,0l0-5.6l-5.6,0L348.2,157.9z"/>
</g>
<g>
	<rect x="347.9" y="139.2" class="st9" width="6.3" height="6.3"/>
	<path class="st1" d="M354.2,145.9l-6.3,0c-0.1,0-0.2,0-0.3-0.1c-0.1-0.1-0.1-0.2-0.1-0.3l0-6.3c0-0.2,0.2-0.4,0.4-0.4l6.3,0
		c0.1,0,0.2,0,0.3,0.1c0.1,0.1,0.1,0.2,0.1,0.3l0,6.3C354.6,145.7,354.4,145.9,354.2,145.9z M348.2,145.1l5.6,0l0-5.6l-5.6,0
		L348.2,145.1z"/>
</g>
<g>
	<rect x="347.9" y="126.5" class="st0" width="6.3" height="6.3"/>
	<path class="st1" d="M354.2,133.2l-6.3,0c-0.2,0-0.4-0.2-0.4-0.4l0-6.3c0-0.1,0-0.2,0.1-0.3c0.1-0.1,0.2-0.1,0.3-0.1l6.3,0
		c0.2,0,0.4,0.2,0.4,0.4l0,6.3c0,0.1,0,0.2-0.1,0.3C354.4,133.1,354.3,133.2,354.2,133.2z M348.2,132.4l5.6,0l0-5.6l-5.6,0
		L348.2,132.4z"/>
</g>
<g>
	<rect x="347.9" y="113.7" class="st9" width="6.3" height="6.3"/>
	<path class="st1" d="M354.2,120.4l-6.3,0c-0.2,0-0.4-0.2-0.4-0.4l0-6.3c0-0.2,0.2-0.4,0.4-0.4l6.3,0c0.2,0,0.4,0.2,0.4,0.4l0,6.3
		C354.6,120.2,354.4,120.4,354.2,120.4z M348.3,119.7l5.6,0l0-5.6l-5.6,0L348.3,119.7z"/>
</g>
<g>
	<rect x="357.5" y="177.4" class="st9" width="6.3" height="6.3"/>
	<path class="st1" d="M363.9,184.1l-6.3,0c-0.2,0-0.4-0.2-0.4-0.4l0-6.3c0-0.2,0.2-0.4,0.4-0.4l6.3,0c0.2,0,0.4,0.2,0.4,0.4l0,6.3
		C364.2,183.9,364.1,184.1,363.9,184.1z M357.9,183.4l5.6,0l0-5.6l-5.6,0L357.9,183.4z"/>
</g>
<g>
	<rect x="357.5" y="164.7" class="st16" width="6.3" height="6.3"/>
	<path class="st1" d="M363.9,171.4l-6.3,0c-0.2,0-0.4-0.2-0.4-0.4l0-6.3c0-0.2,0.2-0.4,0.4-0.4l6.3,0c0.2,0,0.4,0.2,0.4,0.4l0,6.3
		C364.2,171.2,364.1,171.4,363.9,171.4z M357.9,170.6l5.6,0l0-5.6l-5.6,0L357.9,170.6z"/>
</g>
<g>
	<rect x="357.6" y="152" class="st16" width="6.3" height="6.3"/>
	<path class="st1" d="M363.9,158.6l-6.3,0c-0.2,0-0.4-0.2-0.4-0.4l0-6.3c0-0.2,0.2-0.4,0.4-0.4l6.3,0c0.2,0,0.4,0.2,0.4,0.4l0,6.3
		C364.2,158.5,364.1,158.6,363.9,158.6z M357.9,157.9l5.6,0l0-5.6l-5.6,0L357.9,157.9z"/>
</g>
<g>
	<rect x="357.6" y="139.2" class="st9" width="6.3" height="6.3"/>
	<path class="st1" d="M363.9,145.9l-6.3,0c-0.1,0-0.2,0-0.3-0.1c-0.1-0.1-0.1-0.2-0.1-0.3l0-6.3c0-0.2,0.2-0.4,0.4-0.4l6.3,0
		c0.1,0,0.2,0,0.3,0.1c0.1,0.1,0.1,0.2,0.1,0.3l0,6.3C364.3,145.7,364.1,145.9,363.9,145.9z M357.9,145.1l5.6,0l0-5.6l-5.6,0
		L357.9,145.1z"/>
</g>
<g>
	<rect x="357.6" y="126.5" class="st9" width="6.3" height="6.3"/>
	<path class="st1" d="M363.9,133.2l-6.3,0c-0.2,0-0.4-0.2-0.4-0.4l0-6.3c0-0.2,0.2-0.4,0.4-0.4l6.3,0c0.2,0,0.4,0.2,0.4,0.4l0,6.3
		C364.3,133,364.1,133.2,363.9,133.2z M357.9,132.4l5.6,0l0-5.6l-5.6,0L357.9,132.4z"/>
</g>
<g>
	<rect x="357.6" y="113.7" class="st0" width="6.3" height="6.3"/>
	<path class="st1" d="M363.9,120.4l-6.3,0c-0.2,0-0.4-0.2-0.4-0.4l0-6.3c0-0.2,0.2-0.4,0.4-0.4l6.3,0c0.2,0,0.4,0.2,0.4,0.4l0,6.3
		C364.3,120.3,364.1,120.4,363.9,120.4z M358,119.7l5.6,0l0-5.6l-5.6,0L358,119.7z"/>
</g>
<g>
	<rect x="367.4" y="177.4" class="st16" width="6.3" height="6.3"/>
	<path class="st1" d="M373.7,184.1l-6.3,0c-0.2,0-0.4-0.2-0.4-0.4l0-6.3c0-0.1,0-0.2,0.1-0.3s0.2-0.1,0.3-0.1l6.3,0
		c0.2,0,0.4,0.2,0.4,0.4l0,6.3c0,0.1,0,0.2-0.1,0.3C373.9,184.1,373.8,184.1,373.7,184.1z M367.8,183.4l5.6,0l0-5.6l-5.6,0
		L367.8,183.4z"/>
</g>
<g>
	<rect x="367.4" y="164.7" class="st9" width="6.3" height="6.3"/>
	<path class="st1" d="M373.7,171.4l-6.3,0c-0.2,0-0.4-0.2-0.4-0.4l0-6.3c0-0.2,0.2-0.4,0.4-0.4l6.3,0c0.1,0,0.2,0,0.3,0.1
		c0.1,0.1,0.1,0.2,0.1,0.3l0,6.3c0,0.1,0,0.2-0.1,0.3C373.9,171.3,373.8,171.4,373.7,171.4z M367.8,170.6l5.6,0l0-5.6l-5.6,0
		L367.8,170.6z"/>
</g>
<g>
	<rect x="367.4" y="152" class="st0" width="6.3" height="6.3"/>
	<path class="st1" d="M373.7,158.6l-6.3,0c-0.1,0-0.2,0-0.3-0.1c-0.1-0.1-0.1-0.2-0.1-0.3l0-6.3c0-0.2,0.2-0.4,0.4-0.4l6.3,0
		c0.1,0,0.2,0,0.3,0.1c0.1,0.1,0.1,0.2,0.1,0.3l0,6.3C374.1,158.5,374,158.6,373.7,158.6z M367.8,157.9l5.6,0l0-5.6l-5.6,0
		L367.8,157.9z"/>
</g>
<g>
	<rect x="367.4" y="139.2" class="st16" width="6.3" height="6.3"/>
	<path class="st1" d="M373.8,145.9l-6.3,0c-0.2,0-0.4-0.2-0.4-0.4l0-6.3c0-0.2,0.2-0.4,0.4-0.4l6.3,0c0.2,0,0.4,0.2,0.4,0.4l0,6.3
		C374.1,145.7,374,145.9,373.8,145.9z M367.8,145.1l5.6,0l0-5.6l-5.6,0L367.8,145.1z"/>
</g>
<g>
	<rect x="367.4" y="126.5" class="st8" width="6.3" height="6.3"/>
	<path d="M374.3,133.3l-7.3,0l0-7.3l7.3,0L374.3,133.3z M367.9,132.3l5.3,0l0-5.3l-5.3,0L367.9,132.3z"/>
</g>
<g>
	<rect x="367.5" y="113.7" class="st0" width="6.3" height="6.3"/>
	<path class="st1" d="M373.8,120.4l-6.3,0c-0.1,0-0.2,0-0.3-0.1c-0.1-0.1-0.1-0.2-0.1-0.3l0-6.3c0-0.2,0.2-0.4,0.4-0.4l6.3,0
		c0.1,0,0.2,0,0.3,0.1s0.1,0.2,0.1,0.3l0,6.3C374.2,120.3,374,120.4,373.8,120.4z M367.8,119.7l5.6,0l0-5.6l-5.6,0L367.8,119.7z"/>
</g>
<g>
	<rect x="376.6" y="177.4" class="st16" width="6.3" height="6.3"/>
	<path class="st1" d="M382.9,184.1l-6.3,0c-0.2,0-0.4-0.2-0.4-0.4l0-6.3c0-0.2,0.2-0.4,0.4-0.4l6.3,0c0.2,0,0.4,0.2,0.4,0.4l0,6.3
		C383.3,184,383.1,184.1,382.9,184.1z M377,183.4l5.6,0l0-5.6l-5.6,0L377,183.4z"/>
</g>
<g>
	<rect x="376.6" y="164.7" class="st16" width="6.3" height="6.3"/>
	<path class="st1" d="M382.9,171.4l-6.3,0c-0.2,0-0.4-0.2-0.4-0.4l0-6.3c0-0.2,0.2-0.4,0.4-0.4l6.3,0c0.2,0,0.4,0.2,0.4,0.4l0,6.3
		C383.3,171.2,383.1,171.4,382.9,171.4z M377,170.6l5.6,0l0-5.6l-5.6,0L377,170.6z"/>
</g>
<g>
	<rect x="376.6" y="152" class="st8" width="6.3" height="6.3"/>
	<path d="M383.4,158.8l-7.3,0l0-7.3l7.3,0L383.4,158.8z M377.1,157.8l5.3,0l0-5.3l-5.3,0L377.1,157.8z"/>
</g>
<g>
	<rect x="376.6" y="139.2" class="st9" width="6.3" height="6.3"/>
	<path class="st1" d="M382.9,145.9l-6.3,0c-0.1,0-0.2,0-0.3-0.1c-0.1-0.1-0.1-0.2-0.1-0.3l0-6.3c0-0.2,0.2-0.4,0.4-0.4l6.3,0
		c0.1,0,0.2,0,0.3,0.1s0.1,0.2,0.1,0.3l0,6.3C383.3,145.7,383.1,145.9,382.9,145.9z M377,145.2l5.6,0l0-5.6l-5.6,0L377,145.2z"/>
</g>
<g>
	<rect x="376.6" y="126.5" class="st16" width="6.3" height="6.3"/>
	<path class="st1" d="M382.9,133.2l-6.3,0c-0.1,0-0.2,0-0.3-0.1c-0.1-0.1-0.1-0.2-0.1-0.3l0-6.3c0-0.2,0.2-0.4,0.4-0.4l6.3,0
		c0.1,0,0.2,0,0.3,0.1c0.1,0.1,0.1,0.2,0.1,0.3l0,6.3C383.3,133,383.2,133.2,382.9,133.2z M377,132.4l5.6,0l0-5.6l-5.6,0L377,132.4z
		"/>
</g>
<g>
	<rect x="376.6" y="113.8" class="st9" width="6.3" height="6.3"/>
	<path class="st1" d="M383,120.4l-6.3,0c-0.2,0-0.4-0.2-0.4-0.4l0-6.3c0-0.1,0-0.2,0.1-0.3c0.1-0.1,0.2-0.1,0.3-0.1l6.3,0
		c0.2,0,0.4,0.2,0.4,0.4l0,6.3c0,0.1,0,0.2-0.1,0.3C383.2,120.4,383.1,120.4,383,120.4z M377,119.7l5.6,0l0-5.6l-5.6,0L377,119.7z"
		/>
</g>
<g>
	<g>
		<g>
			<path class="st1" d="M475.9,112.7c-0.2,0-0.3-0.1-0.3-0.3c0-0.2,0.1-0.3,0.3-0.3c0.2,0,0.3,0.1,0.3,0.3
				C476.2,112.6,476,112.7,475.9,112.7z"/>
			<path class="st1" d="M475.9,114.3c-0.2,0-0.3-0.1-0.3-0.3c0-0.2,0.1-0.3,0.3-0.3c0.2,0,0.3,0.1,0.3,0.3
				C476.2,114.2,476,114.3,475.9,114.3z"/>
			<path class="st1" d="M475.8,115.9c-0.2,0-0.3-0.1-0.3-0.3c0-0.2,0.1-0.3,0.3-0.3c0.2,0,0.3,0.1,0.3,0.3
				C476.1,115.7,476,115.9,475.8,115.9z"/>
			<path class="st1" d="M475.8,117.4c-0.2,0-0.3-0.1-0.3-0.3c0-0.2,0.1-0.3,0.3-0.3c0.2,0,0.3,0.1,0.3,0.3
				C476.1,117.3,476,117.4,475.8,117.4z"/>
			<path class="st1" d="M475.8,119c-0.2,0-0.3-0.1-0.3-0.3c0-0.2,0.1-0.3,0.3-0.3c0.2,0,0.3,0.1,0.3,0.3
				C476.1,118.9,476,119,475.8,119z"/>
			<path class="st1" d="M475.8,120.6c-0.2,0-0.3-0.1-0.3-0.3c0-0.2,0.1-0.3,0.3-0.3c0.2,0,0.3,0.1,0.3,0.3
				C476.1,120.5,476,120.6,475.8,120.6z"/>
			<path class="st1" d="M475.8,122.2c-0.2,0-0.3-0.1-0.3-0.3c0-0.2,0.1-0.3,0.3-0.3c0.2,0,0.3,0.1,0.3,0.3
				C476.1,122,476,122.2,475.8,122.2z"/>
			<path class="st1" d="M475.8,123.7c-0.2,0-0.3-0.1-0.3-0.3c0-0.2,0.1-0.3,0.3-0.3c0.2,0,0.3,0.1,0.3,0.3
				C476.1,123.6,475.9,123.7,475.8,123.7z"/>
			<path class="st1" d="M475.8,125.3c-0.2,0-0.3-0.1-0.3-0.3c0-0.2,0.1-0.3,0.3-0.3c0.2,0,0.3,0.1,0.3,0.3
				C476.1,125.2,475.9,125.3,475.8,125.3z"/>
			<path class="st1" d="M475.7,126.9c-0.2,0-0.3-0.1-0.3-0.3c0-0.2,0.1-0.3,0.3-0.3c0.2,0,0.3,0.1,0.3,0.3
				C476.1,126.7,475.9,126.9,475.7,126.9z"/>
		</g>
		<g>
			<path class="st1" d="M475.7,128.5c-0.2,0-0.3-0.1-0.3-0.3c0-0.2,0.1-0.3,0.3-0.3c0.2,0,0.3,0.1,0.3,0.3
				C476,128.4,475.9,128.5,475.7,128.5z"/>
			<path class="st1" d="M475.7,130.1c-0.2,0-0.3-0.1-0.3-0.3c0-0.2,0.1-0.3,0.3-0.3c0.2,0,0.3,0.1,0.3,0.3
				C476,130,475.9,130.1,475.7,130.1z"/>
			<path class="st1" d="M475.7,131.7c-0.2,0-0.3-0.1-0.3-0.3c0-0.2,0.1-0.3,0.3-0.3c0.2,0,0.3,0.1,0.3,0.3
				C476,131.5,475.9,131.7,475.7,131.7z"/>
			<path class="st1" d="M475.7,133.2c-0.2,0-0.3-0.1-0.3-0.3c0-0.2,0.1-0.3,0.3-0.3c0.2,0,0.3,0.1,0.3,0.3
				C476,133.1,475.9,133.2,475.7,133.2z"/>
			<path class="st1" d="M475.7,134.8c-0.2,0-0.3-0.1-0.3-0.3c0-0.2,0.1-0.3,0.3-0.3c0.2,0,0.3,0.1,0.3,0.3
				C476,134.7,475.8,134.8,475.7,134.8z"/>
			<path class="st1" d="M475.7,136.4c-0.2,0-0.3-0.1-0.3-0.3c0-0.2,0.1-0.3,0.3-0.3c0.2,0,0.3,0.1,0.3,0.3
				C476,136.3,475.8,136.4,475.7,136.4z"/>
			<path class="st1" d="M475.6,138c-0.2,0-0.3-0.1-0.3-0.3c0-0.2,0.1-0.3,0.3-0.3c0.2,0,0.3,0.1,0.3,0.3
				C476,137.8,475.8,138,475.6,138z"/>
			<path class="st1" d="M475.6,139.5c-0.2,0-0.3-0.1-0.3-0.3c0-0.2,0.1-0.3,0.3-0.3c0.2,0,0.3,0.1,0.3,0.3
				C475.9,139.4,475.8,139.5,475.6,139.5z"/>
			<path class="st1" d="M475.6,141.1c-0.2,0-0.3-0.1-0.3-0.3c0-0.2,0.1-0.3,0.3-0.3c0.2,0,0.3,0.1,0.3,0.3
				C475.9,141,475.8,141.1,475.6,141.1z"/>
			<path class="st1" d="M475.6,142.7c-0.2,0-0.3-0.1-0.3-0.3c0-0.2,0.1-0.3,0.3-0.3c0.2,0,0.3,0.1,0.3,0.3
				C475.9,142.6,475.8,142.7,475.6,142.7z"/>
		</g>
	</g>
	
		<rect x="481.3" y="109.7" transform="matrix(8.777218e-03 -1 1 8.777218e-03 364.7558 593.334)" class="st1" width="0.8" height="5.9"/>
	
		<rect x="481.3" y="111.2" transform="matrix(8.793948e-03 -1 1 8.793948e-03 363.2523 594.7885)" class="st1" width="0.8" height="5.9"/>
	
		<rect x="481.3" y="112.7" transform="matrix(8.777070e-03 -1 1 8.777070e-03 361.7647 596.2472)" class="st1" width="0.8" height="5.9"/>
	
		<rect x="483.6" y="111.8" transform="matrix(8.775270e-03 -1 1 8.775270e-03 362.6328 600.1298)" class="st1" width="0.8" height="10.7"/>
	
		<rect x="483.9" y="116.9" transform="matrix(8.793948e-03 -1 1 8.793948e-03 360.1422 603.0872)" class="st1" width="0.8" height="5.9"/>
	
		<rect x="483.9" y="118.4" transform="matrix(8.777070e-03 -1 1 8.777070e-03 358.6549 604.5457)" class="st1" width="0.8" height="5.9"/>
	
		<rect x="501.3" y="118.5" transform="matrix(8.793948e-03 -1 1 8.793948e-03 375.8209 622.1218)" class="st1" width="0.8" height="5.9"/>
	
		<rect x="483.9" y="119.9" transform="matrix(8.777070e-03 -1 1 8.777070e-03 357.1591 606.0024)" class="st1" width="0.8" height="5.9"/>
	
		<rect x="492.5" y="105.3" transform="matrix(8.775048e-03 -1 1 8.775048e-03 375.77 604.6414)" class="st1" width="0.8" height="15"/>
	
		<rect x="490.6" y="108.6" transform="matrix(8.775891e-03 -1 1 8.775891e-03 372.4319 604.2064)" class="st1" width="0.8" height="11.2"/>
	
		<rect x="500.8" y="110.6" transform="matrix(8.778105e-03 -1 1 8.778105e-03 382.4497 614.4651)" class="st1" width="0.8" height="7.5"/>
	
		<rect x="496" y="104.8" transform="matrix(8.779249e-03 -1 1 8.779249e-03 376.2253 611.0947)" class="st1" width="0.8" height="22"/>
	
		<rect x="498.2" y="110.1" transform="matrix(8.790454e-03 -1 1 8.790454e-03 376.8778 614.7608)" class="st1" width="0.8" height="14.3"/>
	
		<rect x="497.2" y="110.4" transform="matrix(8.773916e-03 -1 1 8.773916e-03 373.2654 616.5531)" class="st1" width="0.8" height="19.3"/>
	
		<rect x="492.6" y="116.4" transform="matrix(8.781056e-03 -1 1 8.781056e-03 367.2276 613.3488)" class="st1" width="0.8" height="10"/>
	
		<rect x="495.4" y="115.2" transform="matrix(8.778258e-03 -1 1 8.778258e-03 368.4431 617.588)" class="st1" width="0.8" height="15.5"/>
	
		<rect x="487.1" y="121.7" transform="matrix(8.777070e-03 -1 1 8.777070e-03 358.5502 611.0571)" class="st1" width="0.8" height="5.9"/>
	
		<rect x="498.8" y="116.8" transform="matrix(8.781000e-03 -1 1 8.781000e-03 370.0644 622.8622)" class="st1" width="0.8" height="15.9"/>
	
		<rect x="496.3" y="114.1" transform="matrix(8.777712e-03 -1 1 8.777712e-03 366.1139 621.8153)" class="st1" width="0.8" height="24.4"/>
	
		<rect x="491.1" y="120.7" transform="matrix(8.785064e-03 -1 1 8.785064e-03 359.4887 618.0079)" class="st1" width="0.8" height="13.9"/>
	
		<rect x="503.7" y="123" transform="matrix(8.784865e-03 -1 1 8.784865e-03 371.8479 630.697)" class="st1" width="0.8" height="9.5"/>
	
		<rect x="483.9" y="126.1" transform="matrix(8.777070e-03 -1 1 8.777070e-03 350.8952 612.1743)" class="st1" width="0.8" height="5.9"/>
	
		<rect x="488.5" y="123" transform="matrix(8.783624e-03 -1 1 8.783624e-03 353.9352 618.2898)" class="st1" width="0.8" height="15.2"/>
	
		<rect x="502.7" y="124.9" transform="matrix(8.779187e-03 -1 1 8.779187e-03 367.941 632.6317)" class="st1" width="0.8" height="11.6"/>
	
		<rect x="486.4" y="126.5" transform="matrix(8.777260e-03 -1 1 8.777260e-03 350.4669 617.7189)" class="st1" width="0.8" height="11.1"/>
	
		<rect x="487.5" y="126.9" transform="matrix(8.777176e-03 -1 1 8.777176e-03 350.0572 620.2902)" class="st1" width="0.8" height="13.4"/>
	
		<rect x="491.8" y="127.8" transform="matrix(8.783651e-03 -1 1 8.783651e-03 352.6423 626.1364)" class="st1" width="0.8" height="14.8"/>
	
		<rect x="493.6" y="127.4" transform="matrix(8.778217e-03 -1 1 8.778217e-03 353.0005 629.494)" class="st1" width="0.8" height="18.5"/>
	
		<rect x="487.3" y="135.2" transform="matrix(8.777070e-03 -1 1 8.777070e-03 345.3113 624.5915)" class="st1" width="0.8" height="5.9"/>
	
		<rect x="506.6" y="138.6" transform="matrix(8.745898e-03 -1 1 8.745898e-03 362.8161 645.5045)" class="st1" width="0.8" height="2.4"/>
	
		<rect x="494.4" y="129.6" transform="matrix(8.775467e-03 -1 1 8.775467e-03 350.8028 633.2208)" class="st1" width="0.8" height="20.1"/>
	
		<rect x="488.3" y="138.1" transform="matrix(8.777070e-03 -1 1 8.777070e-03 343.2815 628.4912)" class="st1" width="0.8" height="5.9"/>
	
		<rect x="499.2" y="134" transform="matrix(8.775380e-03 -1 1 8.775380e-03 354.0463 639.5427)" class="st1" width="0.8" height="14.4"/>
	
		<rect x="490" y="137" transform="matrix(8.783121e-03 -1 1 8.783121e-03 343.4425 631.6511)" class="st1" width="0.8" height="11.3"/>
	
		<rect x="485.4" y="141.1" transform="matrix(8.777070e-03 -1 1 8.777070e-03 337.5136 628.5537)" class="st1" width="0.8" height="5.9"/>
	
		<rect x="470.5" y="110.2" transform="matrix(8.785736e-03 -1 1 8.785736e-03 354.1611 582.4958)" class="st1" width="0.8" height="4.8"/>
	
		<rect x="470.5" y="111.7" transform="matrix(8.785736e-03 -1 1 8.785736e-03 352.6654 583.9525)" class="st1" width="0.8" height="4.8"/>
	
		<rect x="469.2" y="113.4" transform="matrix(8.784655e-03 -1 1 8.784655e-03 348.4554 585.614)" class="st1" width="0.8" height="7.3"/>
	
		<rect x="468.4" y="116.9" transform="matrix(8.829387e-03 -1 1 8.829387e-03 344.8986 587.4854)" class="st1" width="0.8" height="5.7"/>
	
		<rect x="466.5" y="111.7" transform="matrix(8.831714e-03 -1 1 8.831714e-03 350.1705 578.4154)" class="st1" width="0.8" height="1.7"/>
	
		<rect x="466.5" y="113.2" transform="matrix(8.831714e-03 -1 1 8.831714e-03 348.6748 579.872)" class="st1" width="0.8" height="1.7"/>
	
		<rect x="466.7" y="123.3" transform="matrix(8.831714e-03 -1 1 8.831714e-03 338.4915 590.5189)" class="st1" width="0.8" height="2.5"/>
	
		<rect x="466.7" y="124.8" transform="matrix(8.831714e-03 -1 1 8.831714e-03 336.996 591.9753)" class="st1" width="0.8" height="2.5"/>
	
		<rect x="468.3" y="127.6" transform="matrix(8.831714e-03 -1 1 8.831714e-03 334.0933 597.9711)" class="st1" width="0.8" height="5.7"/>
	
		<rect x="468.3" y="130.6" transform="matrix(8.831714e-03 -1 1 8.831714e-03 331.1021 600.884)" class="st1" width="0.8" height="5.7"/>
	
		<rect x="466.5" y="133.9" transform="matrix(8.831714e-03 -1 1 8.831714e-03 327.7635 600.6459)" class="st1" width="0.8" height="2.1"/>
	
		<rect x="466.5" y="138.4" transform="matrix(8.831714e-03 -1 1 8.831714e-03 323.2768 605.0153)" class="st1" width="0.8" height="2.1"/>
	
		<rect x="466.4" y="141.3" transform="matrix(8.831714e-03 -1 1 8.831714e-03 320.2856 607.9283)" class="st1" width="0.8" height="2.1"/>
</g>
<g>
	<g>
		
			<rect x="466.3" y="179.6" transform="matrix(1 -8.844980e-03 8.844980e-03 1 -1.6033 4.1445)" class="st16" width="2.9" height="7.5"/>
		<path class="st1" d="M466.3,187.5c-0.1,0-0.2,0-0.3-0.1c-0.1-0.1-0.1-0.2-0.1-0.3l-0.1-7.5c0-0.2,0.2-0.4,0.4-0.4l2.9,0
			c0.1,0,0.2,0,0.3,0.1c0.1,0.1,0.1,0.2,0.1,0.3l0.1,7.5c0,0.2-0.2,0.4-0.4,0.4L466.3,187.5C466.3,187.5,466.3,187.5,466.3,187.5z
			 M466.6,180l0.1,6.8l2.2,0l-0.1-6.8L466.6,180z"/>
	</g>
	<g>
		
			<rect x="473.3" y="177" transform="matrix(1 -8.844980e-03 8.844980e-03 1 -1.5914 4.2063)" class="st9" width="2.9" height="10"/>
		<path class="st1" d="M473.3,187.4c-0.1,0-0.2,0-0.3-0.1c-0.1-0.1-0.1-0.2-0.1-0.3l-0.1-10c0-0.2,0.2-0.4,0.4-0.4l2.9,0
			c0.1,0,0.2,0,0.3,0.1c0.1,0.1,0.1,0.2,0.1,0.3l0.1,10c0,0.2-0.2,0.4-0.4,0.4L473.3,187.4C473.3,187.4,473.3,187.4,473.3,187.4z
			 M473.6,177.4l0.1,9.3l2.2,0l-0.1-9.3L473.6,177.4z"/>
	</g>
	<g>
		
			<rect x="480.3" y="174.5" transform="matrix(1 -8.844980e-03 8.844980e-03 1 -1.5795 4.2681)" class="st0" width="2.9" height="12.5"/>
		<path class="st1" d="M480.3,187.4c-0.2,0-0.4-0.2-0.4-0.4l-0.1-12.5c0-0.1,0-0.2,0.1-0.3c0.1-0.1,0.2-0.1,0.3-0.1l2.9,0
			c0.2,0,0.4,0.2,0.4,0.4l0.1,12.5c0,0.1,0,0.2-0.1,0.3c-0.1,0.1-0.2,0.1-0.3,0.1L480.3,187.4C480.3,187.4,480.3,187.4,480.3,187.4z
			 M480.6,174.8l0.1,11.8l2.2,0l-0.1-11.8L480.6,174.8z"/>
	</g>
	<g>
		
			<rect x="487.3" y="171.9" transform="matrix(1 -8.844980e-03 8.844980e-03 1 -1.5677 4.3299)" class="st16" width="2.9" height="15"/>
		<path class="st1" d="M487.3,187.3c-0.1,0-0.2,0-0.3-0.1c-0.1-0.1-0.1-0.2-0.1-0.3l-0.1-15c0-0.2,0.2-0.4,0.4-0.4l2.9,0
			c0.1,0,0.2,0,0.3,0.1c0.1,0.1,0.1,0.2,0.1,0.3l0.1,15c0,0.2-0.2,0.4-0.4,0.4L487.3,187.3C487.3,187.3,487.3,187.3,487.3,187.3z
			 M487.6,172.3l0.1,14.3l2.2,0l-0.1-14.3L487.6,172.3z"/>
	</g>
	<g>
		
			<rect x="494.3" y="169.3" transform="matrix(1 -8.844980e-03 8.844980e-03 1 -1.5558 4.3917)" class="st9" width="2.9" height="17.5"/>
		<path class="st1" d="M494.3,187.2c-0.1,0-0.2,0-0.3-0.1c-0.1-0.1-0.1-0.2-0.1-0.3l-0.2-17.5c0-0.1,0-0.2,0.1-0.3
			c0.1-0.1,0.2-0.1,0.3-0.1l2.9,0c0.2,0,0.4,0.2,0.4,0.4l0.2,17.5c0,0.2-0.2,0.4-0.4,0.4L494.3,187.2
			C494.3,187.2,494.3,187.2,494.3,187.2z M494.6,169.7l0.2,16.8l2.2,0l-0.2-16.8L494.6,169.7z"/>
	</g>
	<g>
		
			<rect x="501.3" y="166.8" transform="matrix(1 -8.879128e-03 8.879128e-03 1 -1.5498 4.4707)" class="st0" width="2.9" height="20"/>
		<path class="st1" d="M501.3,187.2c-0.2,0-0.4-0.2-0.4-0.4l-0.2-20c0-0.2,0.2-0.4,0.4-0.4l2.9,0c0.1,0,0.2,0,0.3,0.1
			c0.1,0.1,0.1,0.2,0.1,0.3l0.2,20c0,0.1,0,0.2-0.1,0.3c-0.1,0.1-0.2,0.1-0.3,0.1L501.3,187.2C501.3,187.2,501.3,187.2,501.3,187.2z
			 M501.5,167.2l0.2,19.3l2.2,0l-0.2-19.3L501.5,167.2z"/>
	</g>
</g>
<g>
	<path class="st8" d="M569.7,168.4c-2.8-12.6-2.4-18.7-12.1-28c-2.5-2.4-5.2-4.4-7.9-6.6c-1.7-1.4-2.9-4-5.2-4.4
		c-7.9-1.2-8.3,6.3-6.9,10.4c0.7,2.1,1.3,4.3,2.2,7.3c0,0.7-0.7,6.8-0.9,8.8l3.7,0.4c1.4,4.5,1.5,9.2,0.5,13.8
		c-1.1,4.5-3.3,8.8-3.6,13.4c-0.5,8,3.5,10.4,11.9,12.4c8.4,2.1,20.4,3.6,24.3-3.6C578.6,186.7,571,174.4,569.7,168.4z"/>
	<path d="M563.7,198.1c-3.5,0-7.6-0.6-12.4-1.8c-8.6-2.1-12.8-4.7-12.3-12.9c0.2-2.9,1.1-5.7,2.1-8.5c0.6-1.6,1.1-3.3,1.5-5
		c1-4.3,0.9-8.9-0.4-13.2l-3.9-0.4l0-0.5c0.1-0.8,0.3-2.4,0.4-4c0.2-1.9,0.5-4.1,0.5-4.7l-0.3-1c-0.7-2.4-1.2-4.4-1.8-6.1
		c-0.9-2.8-1-6.8,1-9.2c1.4-1.7,3.6-2.3,6.4-1.8c1.7,0.3,2.9,1.6,3.9,2.9c0.5,0.6,1,1.2,1.5,1.6c0.8,0.7,1.6,1.3,2.5,2
		c1.8,1.5,3.7,3,5.5,4.6c8.1,7.9,9.3,13.6,11,22.4c0.4,1.8,0.7,3.7,1.2,5.9c0.4,1.9,1.5,4.5,2.6,7.2c2.5,6.1,5.4,13,3.3,17
		C574.1,196.2,569.9,198.1,563.7,198.1z M539.4,155.4l3.6,0.4l0.1,0.3c1.4,4.6,1.6,9.4,0.5,14c-0.4,1.7-1,3.5-1.6,5.1
		c-0.9,2.7-1.8,5.4-2,8.2c-0.5,7.7,3.2,9.9,11.5,11.9c8.8,2.2,20.2,3.3,23.7-3.4c1.9-3.5-1-10.5-3.3-16.1c-1.2-2.8-2.3-5.4-2.7-7.4
		c-0.5-2.1-0.8-4-1.2-5.9c-1.7-8.9-2.8-14.3-10.7-21.9c-1.7-1.6-3.6-3.1-5.4-4.6c-0.8-0.7-1.7-1.3-2.5-2c-0.6-0.5-1.1-1.1-1.6-1.7
		c-1-1.2-2-2.3-3.3-2.5c-2.5-0.4-4.4,0.1-5.5,1.5c-1.8,2.1-1.7,5.7-0.8,8.3c0.6,1.8,1.1,3.7,1.8,6.2l0.3,1.2l0,0.1
		c0,0.4-0.3,2.6-0.5,4.8C539.6,153.2,539.5,154.5,539.4,155.4z"/>
</g>
<g>
	<path class="st14" d="M538.4,159.7c0-0.1,0-0.2,0-0.3c0.1-1.2,0.2-2.4,0.4-3.5l9,1.2c-0.3,1.3-0.6,2.6-1,3.9L538.4,159.7z"/>
	<path class="st1" d="M546.8,161.3C546.8,161.3,546.8,161.3,546.8,161.3l-8.4-1.2c-0.2,0-0.3-0.2-0.3-0.4l0-0.3
		c0.1-1.2,0.2-2.4,0.4-3.5c0-0.1,0.1-0.2,0.1-0.3c0.1-0.1,0.2-0.1,0.3-0.1l9,1.2c0.1,0,0.2,0.1,0.3,0.2c0.1,0.1,0.1,0.2,0.1,0.3
		c-0.3,1.3-0.6,2.6-1,3.9C547.1,161.2,547,161.3,546.8,161.3z M538.8,159.4l7.7,1.1c0.3-1.1,0.5-2.1,0.8-3.2l-8.2-1.1
		C539,157.3,538.9,158.3,538.8,159.4z"/>
</g>
<g>
	<path class="st0" d="M538.4,159.7c-0.3,3-0.8,6.2-1.2,9.2c-0.4,2.9-1.3,5.7-2.6,8.3c-1.3,2.7-3.1,5.1-5.2,7.3
		c-0.5,0.6-1.1,1.1-1.7,1.6l-1.8,1.6c-1.2,1-2.5,2.1-3.7,3.1c-1.6,1.2-3.2,2.4-4.8,3.5c-0.9,0-2.1,0.3-3.3,0.9
		c-2.2,1.1-3.7,2.7-3.2,3.6c0.5,0.9,2.7,0.7,4.9-0.3c1.7-0.8,2.9-1.9,3.2-2.8c1.6-0.8,3.2-1.7,4.8-2.6c1.4-0.8,2.8-1.7,4.2-2.6
		l2.1-1.3c0.7-0.5,1.4-1,2.1-1.5c2.8-2.1,5.2-4.7,7.2-7.6c2-2.9,3.6-6.2,4.7-9.6c1-3.2,1.9-6.3,2.7-9.5
		C546.8,160.9,538.4,159.7,538.4,159.7z"/>
	<path class="st1" d="M512.3,199.7c-0.8,0-1.5-0.2-1.8-0.8c-0.2-0.3-0.2-0.7-0.1-1.1c0.3-1,1.6-2.2,3.4-3.1c1.2-0.6,2.4-0.9,3.4-1
		c1.6-1.1,3.1-2.3,4.7-3.5c1.1-0.9,2.3-1.8,3.7-3l1.8-1.6c0.5-0.5,1.1-1,1.6-1.6c2.1-2.2,3.8-4.6,5.1-7.2c1.3-2.7,2.2-5.4,2.6-8.2
		c0.5-3,0.9-6.1,1.2-9.1c0-0.1,0.1-0.2,0.1-0.3c0.1-0.1,0.2-0.1,0.3-0.1l8.4,1.2c0.1,0,0.2,0.1,0.3,0.2c0.1,0.1,0.1,0.2,0,0.3
		c-0.8,3.2-1.7,6.3-2.7,9.5c-1,3.4-2.6,6.7-4.7,9.7c-2,2.9-4.5,5.5-7.3,7.7c-0.7,0.6-1.5,1.1-2.1,1.5l-2.1,1.3c-1.6,1-3,1.8-4.2,2.6
		c-1.5,0.8-3,1.7-4.6,2.5c-0.4,1-1.7,2.1-3.3,2.9C514.8,199.3,513.4,199.7,512.3,199.7z M538.7,160.1c-0.3,2.9-0.7,5.9-1.2,8.8
		c-0.4,2.9-1.3,5.7-2.7,8.4c-1.3,2.7-3.1,5.2-5.3,7.4c-0.5,0.6-1.1,1.1-1.7,1.6l-1.8,1.6c-1.4,1.2-2.6,2.2-3.7,3.1
		c-1.6,1.2-3.2,2.4-4.8,3.5c-0.1,0-0.1,0.1-0.2,0.1c-0.9,0-2.1,0.3-3.2,0.9c-1.8,0.9-2.8,1.9-3,2.6c-0.1,0.2-0.1,0.4,0,0.5
		c0.3,0.6,2.3,0.5,4.4-0.5c1.8-0.9,2.8-1.9,3-2.6c0-0.1,0.1-0.2,0.2-0.2c1.7-0.8,3.2-1.7,4.7-2.6c1.3-0.7,2.6-1.5,4.2-2.5l2.1-1.3
		c0.6-0.4,1.4-0.9,2.1-1.5c2.8-2.1,5.2-4.7,7.2-7.5c2.1-3,3.6-6.2,4.6-9.5c0.9-3.1,1.8-6.1,2.6-9.1L538.7,160.1z"/>
</g>
<g>
	<g>
		<path class="st0" d="M482.6,99.9c0.1-1,2.3-1.6,4.7-1.4c2.5,0.2,4.4,1.3,4.2,2.3c-0.1,1-2.3,1.6-4.7,1.4
			C484.4,101.9,482.5,100.9,482.6,99.9z"/>
		<path class="st1" d="M487.9,102.6c-0.4,0-0.7,0-1.1-0.1c-2-0.2-3.6-0.8-4.2-1.7c-0.3-0.3-0.4-0.7-0.3-1c0.2-1.4,2.8-1.9,5.2-1.7
			c2,0.2,3.6,0.8,4.2,1.7c0.3,0.3,0.4,0.7,0.3,1C491.8,102.1,489.9,102.6,487.9,102.6z M486.3,98.8c-1.9,0-3.2,0.5-3.3,1.1
			c0,0.1,0,0.3,0.2,0.4c0.4,0.6,1.8,1.2,3.7,1.4c2.4,0.2,4.2-0.4,4.3-1.1c0-0.1,0-0.3-0.2-0.4c-0.4-0.6-1.8-1.2-3.7-1.4
			C487,98.9,486.6,98.8,486.3,98.8z"/>
	</g>
</g>
<g>
	<g>
		<path class="st5" d="M371,100.4c0-1,2.1-1.9,4.6-1.9c2.5,0,4.5,0.8,4.4,1.8c0,1-2.1,1.9-4.6,1.9
			C372.9,102.3,370.9,101.4,371,100.4z"/>
		<path class="st1" d="M375.4,102.6c-2,0-3.6-0.5-4.4-1.3c-0.3-0.3-0.4-0.6-0.4-1c0.1-1.4,2.6-2.2,5-2.2c2,0,3.6,0.5,4.4,1.3
			c0.3,0.3,0.4,0.6,0.4,1C380.3,101.9,377.8,102.6,375.4,102.6C375.4,102.6,375.4,102.6,375.4,102.6z M375.6,98.9
			c-2.4,0-4.2,0.8-4.2,1.5c0,0.1,0.1,0.3,0.2,0.4c0.5,0.5,1.9,1,3.8,1c2.4,0,4.2-0.8,4.2-1.5c0-0.1-0.1-0.3-0.2-0.4
			C378.9,99.5,377.6,98.9,375.6,98.9z"/>
	</g>
</g>
<g>
	<path class="st5" d="M340.5,192.5c-1.5-0.5-2.9-0.6-3.8-0.4c-1-0.6-2-1.2-3-1.8c-6.3-3.8-12.5-7.7-18.7-11.6l-2-1.3l-2.4,4.9
		l1.9,0.9c6.6,3.2,13.3,6.3,20,9.3c1.2,0.6,2.5,1.1,3.7,1.7c0.6,0.6,1.7,1.3,3.1,1.7c2.4,0.8,4.6,0.6,4.9-0.3
		C344.5,194.7,342.9,193.3,340.5,192.5z"/>
	<path class="st1" d="M342,196.9c-0.9,0-2-0.2-3-0.5c-1.3-0.4-2.4-1.1-3.2-1.8l-1.2-0.5c-0.8-0.4-1.7-0.7-2.5-1.1
		c-5.9-2.7-12.2-5.6-20-9.3l-1.9-0.9c-0.1,0-0.2-0.1-0.2-0.2c0-0.1,0-0.2,0-0.3l2.4-4.9c0-0.1,0.1-0.2,0.2-0.2c0.1,0,0.2,0,0.3,0
		l2,1.3c7.3,4.6,13.2,8.3,18.7,11.6c1,0.6,1.9,1.2,2.9,1.7c1-0.2,2.5,0,3.9,0.4c1.8,0.6,3.3,1.6,3.8,2.6c0.2,0.4,0.2,0.7,0.1,1.1
		C344.2,196.5,343.2,196.9,342,196.9z M311,182.2l1.6,0.8c7.8,3.7,14.1,6.7,20,9.3c0.8,0.4,1.6,0.7,2.5,1.1l1.3,0.6
		c0,0,0.1,0,0.1,0.1c0.6,0.6,1.7,1.2,2.9,1.6c2.3,0.7,4.2,0.5,4.5-0.1c0-0.1,0-0.3-0.1-0.5c-0.3-0.6-1.5-1.6-3.3-2.2
		c-1.4-0.4-2.7-0.6-3.6-0.4c-0.1,0-0.2,0-0.3,0c-1-0.6-2-1.2-3-1.8c-5.5-3.3-11.4-7-18.7-11.6l-1.7-1.1L311,182.2z"/>
</g>
<g>
	<path class="st0" d="M416,150.1c0-5.6,4.5-10.1,10.1-10.2l0-14.8c-14.1,0.1-25.5,11.5-25.6,25.5h15.6
		C416.1,150.5,416,150.3,416,150.1z"/>
	<path class="st1" d="M416.1,151h-15.6c-0.1,0-0.2,0-0.3-0.1c-0.1-0.1-0.1-0.2-0.1-0.3c0.1-14.2,11.7-25.8,26-25.9
		c0.1,0,0.2,0,0.3,0.1c0.1,0.1,0.1,0.2,0.1,0.3l0,14.8c0,0.2-0.2,0.4-0.4,0.4c-5.4,0.1-9.7,4.5-9.7,9.8c0,0.1,0,0.3,0,0.4l0,0.2
		c0,0.1,0,0.2-0.1,0.3C416.3,151,416.2,151,416.1,151z M400.9,150.3h14.8c0-0.1,0-0.1,0-0.2c0-5.6,4.5-10.3,10.1-10.5l0-14.1
		C412.2,125.8,401.2,136.8,400.9,150.3z"/>
</g>
<g>
	<path class="st9" d="M416.1,150.7h-15.6c0,0,0,0.1,0,0.1c0,7.1,2.9,13.5,7.6,18.2l11.2-11.5C417.4,155.8,416.2,153.4,416.1,150.7z"
		/>
	<path class="st1" d="M408.1,169.3c-0.1,0-0.2,0-0.3-0.1c-4.9-4.9-7.7-11.5-7.7-18.4c0,0,0-0.1,0-0.1c0-0.2,0.2-0.4,0.4-0.4h15.6
		c0.2,0,0.4,0.2,0.4,0.4c0.1,2.5,1.2,4.9,3.1,6.6c0.1,0.1,0.1,0.2,0.1,0.3c0,0.1,0,0.2-0.1,0.3l-11.2,11.5
		C408.3,169.3,408.2,169.4,408.1,169.3z M400.9,151c0.1,6.5,2.6,12.7,7.2,17.4l10.7-10.9c-1.7-1.8-2.8-4-3-6.5H400.9z"/>
</g>
<g>
	<path class="st8" d="M452,150.7c-0.1-14.1-11.6-25.5-25.8-25.5c-0.1,0-0.1,0-0.2,0l0,14.8c0,0,0.1,0,0.1,0
		c5.6,0,10.2,4.6,10.2,10.2c0,5.6-4.6,10.2-10.2,10.2c-2.7,0-5.2-1.1-7-2.8L408.1,169c4.6,4.6,11.1,7.5,18.1,7.5c0,0,0,0,0.1,0
		c14.2,0,25.8-11.5,25.8-25.7C452,150.7,452,150.7,452,150.7z"/>
	<path d="M426.3,177c-7,0-13.6-2.7-18.5-7.7l-0.3-0.3l11.9-12.2l0.4,0.3c1.8,1.7,4.2,2.6,6.6,2.6c5.4,0,9.7-4.3,9.7-9.7
		c0-5.3-4.4-9.7-9.7-9.7l-0.5,0l-0.1-0.5l0-15.3l0.7,0c14.4,0,26.2,11.7,26.3,26l-0.5,0l0.5,0C452.5,165.2,440.7,177,426.3,177z
		 M408.8,169c4.7,4.5,10.9,7,17.4,7c14,0,25.3-11.3,25.3-25.2l0.5-0.1l-0.5,0c-0.1-13.7-11.2-24.9-24.9-25l0,13.8
		c5.7,0.2,10.4,4.9,10.4,10.7c0,5.9-4.8,10.7-10.7,10.7c-2.6,0-5-0.9-7-2.6L408.8,169z"/>
</g>
<g>
	<path class="st0" d="M257.4,143.2c1.6-2.1,2.2-5,1.8-7.6c-0.4-2.6-1.6-5.1-3.1-7.3c-0.6-0.9-1.3-1.7-1.7-2.7
		c-0.4-1.1-0.4-2.2-0.5-3.4c0-0.3-0.1-0.7-0.1-1.1c0.6-1.5,0.9-4.4-3.7-5.9c-1.2-0.6-2.6-0.5-4.1,0.8c-3.4,3.1-0.3,7.9-1.3,11.5
		c-0.5,1.9-2,3.3-3.8,4.1c-1.7,0.8-3.6,1.2-5.5,1.6c-4.6,1-9.5,2.5-12.5,6.1c-2.5,2.9-3.5,6.8-4.3,10.6c-0.8,3.5-0.9,6.3,0.4,9.6
		c1,2.5,2.4,5.3,4.6,7c4.5,3.5,10,6,15.8,6c5.7,0,11.7-2.8,14.4-7.9c1.5-2.8,1.9-6.1,1.2-9.2c-0.6-2.6-2-5.3-1-7.8
		C254.6,145.9,256.3,144.7,257.4,143.2z"/>
	<path class="st1" d="M239.4,172.9C239.4,172.9,239.3,172.9,239.4,172.9c-6.7,0-12.4-3.3-16.1-6.1c-1.8-1.4-3.4-3.7-4.7-7.1
		c-1.4-3.5-1.1-6.5-0.4-9.8c0.9-4,1.9-7.8,4.4-10.7c3.3-3.9,8.5-5.4,12.7-6.2l0.6-0.1c1.6-0.3,3.3-0.7,4.8-1.4
		c1.9-0.9,3.2-2.3,3.6-3.9c0.3-1.3,0.1-2.8-0.1-4.3c-0.4-2.6-0.8-5.3,1.5-7.3c1.9-1.7,3.5-1.4,4.5-0.9c2,0.6,3.3,1.6,3.9,2.9
		c0.6,1.2,0.4,2.5,0,3.4c0.1,0.4,0.1,0.7,0.1,1l0,0.5c0,1,0.1,1.9,0.4,2.8c0.3,0.8,0.8,1.5,1.3,2.2l0.3,0.4c1.8,2.5,2.9,5,3.2,7.4
		c0.4,2.9-0.3,5.8-1.9,7.9c-0.4,0.5-0.9,1-1.4,1.5c-0.9,0.9-1.7,1.8-2.1,2.8c-0.7,1.8-0.1,3.6,0.5,5.6c0.2,0.7,0.4,1.3,0.6,2
		c0.7,3.1,0.3,6.6-1.3,9.4C251.4,169.7,245.7,172.9,239.4,172.9z M248.6,115.3c-0.8,0-1.6,0.4-2.4,1.1c-2,1.8-1.6,4.2-1.2,6.7
		c0.2,1.6,0.5,3.2,0.1,4.6c-0.5,1.8-1.9,3.4-4,4.4c-1.6,0.8-3.3,1.1-5,1.5l-0.6,0.1c-4.1,0.9-9.2,2.3-12.3,6
		c-2.4,2.8-3.3,6.4-4.2,10.4c-0.7,3.2-1,6.1,0.3,9.4c1.3,3.3,2.7,5.5,4.4,6.8c3.5,2.7,9.1,5.9,15.5,5.9c0,0,0,0,0.1,0
		c5.9,0,11.6-3.1,14-7.7c1.4-2.7,1.9-5.9,1.2-8.9c-0.1-0.6-0.3-1.3-0.5-1.9c-0.6-2-1.2-4-0.5-6c0.5-1.2,1.4-2.2,2.3-3.1
		c0.5-0.5,0.9-0.9,1.3-1.5c1.5-1.9,2.1-4.6,1.8-7.3c-0.3-2.3-1.3-4.7-3.1-7.1l-0.3-0.4c-0.5-0.7-1.1-1.5-1.4-2.4c-0.4-1-0.4-2-0.5-3
		l0-0.5c0-0.3-0.1-0.7-0.1-1c0-0.1,0-0.1,0-0.2c0.3-0.7,0.5-1.8,0-2.9c-0.5-1.1-1.7-1.9-3.5-2.5
		C249.5,115.4,249.1,115.3,248.6,115.3z"/>
</g>
<g>
	<path class="st5" d="M547.4,120.7c0.1-0.2,0.1-0.5,0.4-0.7c0.2-0.2,0.5-0.2,0.8-0.3c0.8-0.3,1.7-1.2,1.6-1.8
		c-0.1-0.4-0.5-0.5-0.6-0.9c-0.1-0.7,1-1.6,1.8-2.4c0.8-0.8,1.6-2,0.9-2.2c-0.6-0.2-1.7,0.7-2.6,0.8c-0.7,0.1-1.1-0.3-1.2-0.9
		c-0.1-0.5,0-1.1-0.3-1.5c-0.3-0.4-1.2-0.4-1.9,0.2c-0.4,0.3-0.8,0.8-1.2,0.9c-0.2,0-0.3,0-0.4-0.1c-0.4-0.3-0.8-0.7-1.5-0.8
		c-0.7-0.1-1.7,0.3-2.3,1c-0.8,0.8-0.9,2-1.9,2.4c-0.3,0.1-0.5,0.1-0.8,0.2c-0.6,0.2-1.1,0.9-1.2,1.4c-0.1,0.5-0.1,1-0.4,1.5
		c-0.2,0.3-0.4,0.5-0.5,0.8c-0.4,0.7-0.1,1.2,0.3,1.5c0.4,0.3,1,0.4,1.4,0.7c1.3,1.1,0.5,3.7,3.2,3.6
		C542.7,124.1,546.6,123.1,547.4,120.7z"/>
	<path class="st8" d="M540.8,124.5c-1.9,0-2.3-1.2-2.6-2.2c-0.2-0.6-0.3-1.1-0.7-1.4c-0.2-0.1-0.4-0.3-0.7-0.4
		c-0.2-0.1-0.5-0.2-0.7-0.3c-0.7-0.4-0.9-1.2-0.4-2c0.1-0.1,0.2-0.3,0.3-0.4c0.1-0.1,0.2-0.2,0.2-0.3c0.2-0.3,0.2-0.6,0.3-0.9
		c0-0.2,0.1-0.4,0.1-0.5c0.2-0.6,0.7-1.4,1.5-1.6c0.2-0.1,0.3-0.1,0.5-0.1c0.1,0,0.2,0,0.4-0.1c0.5-0.2,0.8-0.7,1-1.2
		c0.2-0.4,0.4-0.8,0.8-1.1c0.7-0.8,1.9-1.1,2.6-1.1c0.7,0.1,1.1,0.4,1.5,0.7l0.2,0.1c0.1,0.1,0.1,0.1,0.1,0.1c0.2,0,0.4-0.3,0.6-0.5
		c0.1-0.1,0.3-0.3,0.4-0.4c0.5-0.4,1.1-0.6,1.6-0.5c0.3,0,0.6,0.2,0.8,0.4c0.3,0.4,0.3,0.8,0.4,1.3c0,0.1,0,0.3,0,0.4
		c0,0.1,0.1,0.4,0.2,0.5c0.1,0.1,0.3,0.1,0.5,0.1c0.3-0.1,0.7-0.2,1-0.4c0.6-0.3,1.2-0.5,1.7-0.4c0.3,0.1,0.5,0.3,0.5,0.5
		c0.2,0.9-1.1,2.1-1.3,2.3l-0.2,0.1c-0.6,0.6-1.6,1.5-1.5,1.9c0,0.1,0.1,0.1,0.2,0.3c0.1,0.1,0.3,0.3,0.4,0.6
		c0.2,0.8-0.9,1.9-1.9,2.2l-0.2,0.1c-0.2,0-0.3,0.1-0.5,0.2c-0.1,0.1-0.2,0.2-0.3,0.4c0,0,0,0.1,0,0.1c-0.9,2.7-5,3.6-6.9,3.7
		C540.8,124.5,540.8,124.5,540.8,124.5z M543.1,111.5c-0.5,0-1.4,0.3-1.9,0.8c-0.3,0.3-0.5,0.6-0.6,1c-0.3,0.6-0.7,1.2-1.4,1.5
		c-0.2,0.1-0.3,0.1-0.5,0.1c-0.1,0-0.2,0-0.3,0.1c-0.5,0.2-0.9,0.7-1,1.2c0,0.2-0.1,0.3-0.1,0.5c-0.1,0.3-0.1,0.7-0.4,1.1
		c-0.1,0.1-0.2,0.3-0.3,0.4c-0.1,0.1-0.2,0.2-0.2,0.4c-0.2,0.4-0.2,0.7,0.2,1c0.2,0.1,0.4,0.2,0.6,0.3c0.3,0.1,0.6,0.3,0.9,0.5
		c0.6,0.5,0.8,1.2,1,1.8c0.3,1,0.5,1.7,1.9,1.7c1.8-0.1,5.4-1,6.2-3.2c0,0,0.4,0.1,0.4,0.1l-0.3-0.2c0.1-0.2,0.2-0.5,0.5-0.8
		c0.3-0.2,0.5-0.3,0.7-0.3l0.2,0c0.8-0.2,1.4-1.1,1.4-1.3c0-0.1-0.1-0.2-0.2-0.2c-0.2-0.2-0.4-0.4-0.4-0.7c-0.1-0.8,0.9-1.7,1.8-2.6
		l0.2-0.1c0.8-0.7,1.1-1.4,1-1.5c-0.2,0-0.8,0.2-1.2,0.4c-0.4,0.2-0.8,0.4-1.2,0.4c-0.4,0.1-0.8,0-1-0.2c-0.3-0.2-0.5-0.5-0.6-1
		c0-0.2,0-0.3-0.1-0.5c0-0.3-0.1-0.7-0.2-0.8c-0.1-0.1-0.2-0.1-0.3-0.1c-0.3,0-0.7,0.1-1.1,0.4c-0.1,0.1-0.2,0.2-0.3,0.3
		c-0.3,0.3-0.6,0.6-1,0.7c-0.4,0.1-0.6-0.1-0.8-0.2l-0.2-0.1c-0.3-0.3-0.7-0.5-1.1-0.6C543.2,111.5,543.2,111.5,543.1,111.5z"/>
</g>
<g>
	<path class="st0" d="M545.4,120.4c-0.1,0-0.3,0-0.4,0.1c-0.6-1.2-2.2-2.8-6.9-4.2c-2.3,3-0.9,7.3-0.9,7.3c0.6,2,2,3.4,3.5,3.7v4
		c-0.3,0.2-0.5,0.5-0.8,0.8c-1.7,2-2.2,4.3-1.2,5.1c1,0.8,3.2-0.1,4.9-2.1c1.3-1.6,1.9-3.3,1.6-4.4V124c0-0.1,0-0.9,0-0.9
		c0.1,0,0.1,0,0.2,0c0.6,0,1-0.6,1-1.4C546.4,121,545.9,120.4,545.4,120.4z"/>
	<path class="st1" d="M539.7,137.9c-0.5,0-0.9-0.1-1.2-0.4c-0.4-0.3-0.6-0.8-0.7-1.3c-0.1-1.2,0.6-2.9,1.8-4.3
		c0.2-0.2,0.4-0.5,0.7-0.7v-3.6c-1.6-0.4-2.9-1.8-3.5-3.8c-0.1-0.2-1.4-4.6,1-7.6c0.1-0.1,0.3-0.2,0.4-0.1c3.7,1.1,6,2.5,6.9,4.1
		c0.8-0.2,1.6,0.7,1.6,1.7c0,0.9-0.5,1.6-1.2,1.7v0.4c0,0.1,0,0.1,0,0.2v6.6c0.4,1.2-0.3,3.1-1.7,4.7
		C542.6,136.9,541,137.9,539.7,137.9z M538.3,116.7c-1.9,2.8-0.7,6.7-0.7,6.8c0.6,1.9,1.8,3.2,3.2,3.4c0.2,0,0.3,0.2,0.3,0.4v4
		c0,0.1,0,0.2-0.1,0.3c-0.3,0.3-0.5,0.5-0.8,0.8c-1.1,1.3-1.7,2.7-1.6,3.7c0,0.4,0.2,0.6,0.4,0.8c0.8,0.6,2.7,0,4.3-2
		c1.2-1.4,1.8-3.1,1.5-4.1c0,0,0-0.1,0-0.1V124c0-0.1,0-0.9,0-0.9c0-0.1,0.1-0.2,0.1-0.3c0.1-0.1,0.2-0.1,0.3-0.1
		c0.4,0,0.7-0.4,0.7-1c0-0.6-0.4-1.2-0.8-0.9c-0.1,0.1-0.2,0.1-0.3,0c-0.1,0-0.2-0.1-0.2-0.2C543.9,119.1,541.7,117.7,538.3,116.7z"
		/>
</g>
<g>
	<g>
		<g>
			<path class="st8" d="M184.5,94.1c-10.8,0-19.6-8.8-19.6-19.5S173.7,55,184.5,55c10.8,0,19.6,8.8,19.6,19.5S195.3,94.1,184.5,94.1
				z M184.5,56c-10.2,0-18.6,8.3-18.6,18.5c0,10.2,8.3,18.5,18.6,18.5c10.2,0,18.6-8.3,18.6-18.5C203,64.3,194.7,56,184.5,56z"/>
		</g>
	</g>
	<g>
		<path class="st2" d="M185.7,85.8c-6.5,0-11.7-5.2-11.7-11.7c0-6.4,5.3-11.7,11.7-11.7c6.5,0,11.7,5.2,11.7,11.7
			C197.4,80.6,192.2,85.8,185.7,85.8z"/>
		<path class="st1" d="M185.7,86.2c-6.7,0-12.1-5.4-12.1-12.1c0-6.7,5.4-12.1,12.1-12.1c6.7,0,12.1,5.4,12.1,12.1
			C197.8,80.8,192.4,86.2,185.7,86.2z M185.7,62.8c-6.2,0-11.3,5.1-11.3,11.3c0,6.2,5.1,11.3,11.3,11.3s11.3-5.1,11.3-11.3
			C197.1,67.9,192,62.8,185.7,62.8z"/>
	</g>
	<g>
		<path class="st0" d="M206.4,74.2c0-1.2-1-2.2-2.2-2.2s-2.2,1-2.2,2.2c0,0,0,0.1,0,0.1c-0.1,8.8-7.4,16-16.2,16
			c-9,0-16.2-7.3-16.2-16.2c0-8.9,7.2-16.1,16-16.2c0.1,0,0.1,0,0.1,0c0,0,0.1,0,0.1,0c1.1-0.1,2-1,2-2.2c0-1.2-0.9-2.1-2-2.2
			c-0.1,0-0.1,0-0.2,0c-0.1,0-0.3,0-0.4,0c-11.1,0.3-20,9.4-20,20.6c0,11.4,9.3,20.6,20.6,20.6c11.2,0,20.4-9,20.6-20.2
			C206.4,74.4,206.4,74.3,206.4,74.2z"/>
		<path class="st1" d="M185.7,95.1c-11.6,0-21-9.4-21-21c0-11.4,9-20.6,20.4-21c0.1,0,0.3,0,0.4,0c0,0,0.1,0,0.1,0c0,0,0.1,0,0.1,0
			c1.4,0.1,2.4,1.2,2.4,2.6c0,1.3-1,2.4-2.3,2.6c0,0-0.1,0-0.1,0c0,0-0.2,0-0.2,0c-8.7,0.1-15.7,7.2-15.7,15.8
			c0,8.7,7.1,15.8,15.9,15.8c8.6,0,15.7-7,15.9-15.6c0-0.1,0-0.1,0-0.1c0-1.4,1.2-2.6,2.6-2.6c1.4,0,2.6,1.2,2.6,2.6
			c0,0.1,0,0.3,0,0.4C206.5,85.9,197.1,95.1,185.7,95.1z M185.5,53.9c-0.1,0-0.2,0-0.3,0c-11.1,0.3-19.7,9.2-19.7,20.2
			c0,11.2,9.1,20.2,20.3,20.2c10.9,0,20-8.9,20.2-19.8c0-0.2,0-0.3,0-0.4c0-1-0.8-1.8-1.8-1.8s-1.8,0.8-1.8,1.8c0,0,0,0.1,0,0.1
			c-0.1,9-7.6,16.4-16.6,16.4c-9.2,0-16.6-7.4-16.6-16.6c0-9,7.4-16.5,16.4-16.6c0,0,0.1,0,0.1,0c1-0.1,1.8-0.9,1.8-1.8
			c0-1-0.7-1.7-1.7-1.8c0,0,0,0-0.1,0C185.6,53.9,185.6,53.9,185.5,53.9C185.6,53.9,185.5,53.9,185.5,53.9z"/>
	</g>
	<path class="st8" d="M185.7,61.4c-7,0-12.7,5.6-12.8,12.6c0,0,0,0,0,0.1c0,0.7,0.6,1.4,1.4,1.4c0.8,0,1.4-0.6,1.4-1.4
		c0,0,0,0,0-0.1c0.1-5.5,4.5-9.9,10-9.9c5.5,0,10,4.5,10,10c0,5.5-4.5,10-10,10c-0.8,0-1.4,0.6-1.4,1.4c0,0.7,0.6,1.4,1.4,1.4
		c7.1,0,12.8-5.7,12.8-12.7C198.5,67.1,192.8,61.4,185.7,61.4z"/>
</g>
</svg>
